<?xml version="1.0" encoding="UTF-8" standalone="no"?>
<!DOCTYPE svg PUBLIC "-//W3C//DTD SVG 1.1//EN" "http://www.w3.org/Graphics/SVG/1.1/DTD/svg11.dtd">
<!-- Generated by Microsoft Visio, SVG Export 2015-AT-01-Super Power Family.svg Page-1 -->
<svg xmlns="http://www.w3.org/2000/svg" xmlns:xlink="http://www.w3.org/1999/xlink" xmlns:ev="http://www.w3.org/2001/xml-events"
		width="10.401in" height="4.51042in" viewBox="0 0 748.875 324.75" xml:space="preserve" color-interpolation-filters="sRGB"
		class="st4">
	<style type="text/css">
	<![CDATA[
		.st1 {fill:#ffffff;stroke:#000000;stroke-linecap:round;stroke-linejoin:round;stroke-width:0.75}
		.st2 {fill:#000000;font-family:Calibri;font-size:1.00001em}
		.st3 {stroke:#000000;stroke-linecap:round;stroke-linejoin:round;stroke-width:0.75}
		.st4 {fill:none;fill-rule:evenodd;font-size:12px;overflow:visible;stroke-linecap:square;stroke-miterlimit:3}
	]]>
	</style>

	<g>
		<title>Page-1</title>
		<g id="group47-1" transform="translate(0.375,-0.375)">
			<title>Sheet.47</title>
			<g id="group4-2" transform="translate(72,-252)">
				<title>Sheet.4</title>
				<g id="shape2-3" transform="translate(0,-36)">
					<title>Sheet.2</title>
					<desc>Grandmother Maria</desc>
					<rect x="0" y="288.75" width="132.75" height="36" class="st1"/>
					<text x="17.42" y="310.35" class="st2">Grandmother Maria</text>				</g>
				<g id="shape3-6">
					<title>Sheet.3</title>
					<desc>singing</desc>
					<rect x="0" y="288.75" width="132.75" height="36" class="st1"/>
					<text x="49.32" y="310.35" class="st2">singing</text>				</g>
			</g>
			<g id="group5-9" transform="translate(228.375,-252)">
				<title>Sheet.5</title>
				<g id="shape6-10" transform="translate(0,-36)">
					<title>Sheet.6</title>
					<desc>Grandfather Jerry</desc>
					<rect x="0" y="288.75" width="132.75" height="36" class="st1"/>
					<text x="23.22" y="310.35" class="st2">Grandfather Jerry</text>				</g>
				<g id="shape7-13">
					<title>Sheet.7</title>
					<desc>swimming</desc>
					<rect x="0" y="288.75" width="132.75" height="36" class="st1"/>
					<text x="41.42" y="310.35" class="st2">swimming</text>				</g>
			</g>
			<g id="group8-16" transform="translate(0,-144)">
				<title>Sheet.8</title>
				<g id="shape9-17" transform="translate(0,-36)">
					<title>Sheet.9</title>
					<desc>Aunt Mary</desc>
					<rect x="0" y="288.75" width="132.75" height="36" class="st1"/>
					<text x="40.42" y="310.35" class="st2">Aunt Mary</text>				</g>
				<g id="shape10-20">
					<title>Sheet.10</title>
					<desc>dancing</desc>
					<rect x="0" y="288.75" width="132.75" height="36" class="st1"/>
					<text x="47.31" y="310.35" class="st2">dancing</text>				</g>
			</g>
			<g id="group11-23" transform="translate(455.625,-252)">
				<title>Sheet.11</title>
				<g id="shape12-24" transform="translate(0,-36)">
					<title>Sheet.12</title>
					<desc>Grandmother Margot</desc>
					<rect x="0" y="288.75" width="132.75" height="36" class="st1"/>
					<text x="13.67" y="310.35" class="st2">Grandmother Margot</text>				</g>
				<g id="shape13-27">
					<title>Sheet.13</title>
					<desc>calculating</desc>
					<rect x="0" y="288.75" width="132.75" height="36" class="st1"/>
					<text x="40.28" y="310.35" class="st2">calculating</text>				</g>
			</g>
			<g id="group14-30" transform="translate(257.625,-144)">
				<title>Sheet.14</title>
				<g id="shape15-31" transform="translate(0,-36)">
					<title>Sheet.15</title>
					<desc>Mother Jennifer</desc>
					<rect x="0" y="288.75" width="132.75" height="36" class="st1"/>
					<text x="27" y="310.35" class="st2">Mother Jennifer</text>				</g>
				<g id="shape16-34">
					<title>Sheet.16</title>
					<desc>programming</desc>
					<rect x="0" y="288.75" width="132.75" height="36" class="st1"/>
					<text x="33.24" y="310.35" class="st2">programming</text>				</g>
			</g>
			<g id="group17-37" transform="translate(414,-144)">
				<title>Sheet.17</title>
				<g id="shape18-38" transform="translate(0,-36)">
					<title>Sheet.18</title>
					<desc>Father Richard</desc>
					<rect x="0" y="288.75" width="132.75" height="36" class="st1"/>
					<text x="30.71" y="310.35" class="st2">Father Richard</text>				</g>
				<g id="shape19-41">
					<title>Sheet.19</title>
					<desc>photographing</desc>
					<rect x="0" y="288.75" width="132.75" height="36" class="st1"/>
					<text x="30.28" y="310.35" class="st2">photographing</text>				</g>
			</g>
			<g id="group20-44" transform="translate(59.625,0)">
				<title>Sheet.20</title>
				<g id="shape21-45" transform="translate(0,-36)">
					<title>Sheet.21</title>
					<desc>Lisa</desc>
					<rect x="0" y="288.75" width="132.75" height="36" class="st1"/>
					<text x="57.25" y="310.35" class="st2">Lisa</text>				</g>
				<g id="shape22-48">
					<title>Sheet.22</title>
					<desc>writing</desc>
					<rect x="0" y="288.75" width="132.75" height="36" class="st1"/>
					<text x="49.25" y="310.35" class="st2">writing</text>				</g>
			</g>
			<g id="group23-51" transform="translate(594,0)">
				<title>Sheet.23</title>
				<g id="shape24-52" transform="translate(0,-36)">
					<title>Sheet.24</title>
					<desc>Charles</desc>
					<rect x="0" y="288.75" width="132.75" height="36" class="st1"/>
					<text x="48.35" y="310.35" class="st2">Charles</text>				</g>
				<g id="shape25-55">
					<title>Sheet.25</title>
					<desc>reading</desc>
					<rect x="0" y="288.75" width="132.75" height="36" class="st1"/>
					<text x="47.92" y="310.35" class="st2">reading</text>				</g>
			</g>
			<g id="group26-58" transform="translate(423,0)">
				<title>Sheet.26</title>
				<g id="shape27-59" transform="translate(0,-36)">
					<title>Sheet.27</title>
					<desc>Tom</desc>
					<rect x="0" y="288.75" width="132.75" height="36" class="st1"/>
					<text x="55.49" y="310.35" class="st2">Tom</text>				</g>
				<g id="shape28-62">
					<title>Sheet.28</title>
					<desc>riding</desc>
					<rect x="0" y="288.75" width="132.75" height="36" class="st1"/>
					<text x="52.4" y="310.35" class="st2">riding</text>				</g>
			</g>
			<g id="group29-65" transform="translate(246.375,0)">
				<title>Sheet.29</title>
				<g id="shape30-66" transform="translate(0,-36)">
					<title>Sheet.30</title>
					<desc>Sarah</desc>
					<rect x="0" y="288.75" width="132.75" height="36" class="st1"/>
					<text x="52.63" y="310.35" class="st2">Sarah</text>				</g>
				<g id="shape31-69">
					<title>Sheet.31</title>
					<desc>climbing</desc>
					<rect x="0" y="288.75" width="132.75" height="36" class="st1"/>
					<text x="45.78" y="310.35" class="st2">climbing</text>				</g>
			</g>
			<g id="group32-72" transform="translate(615.375,-252)">
				<title>Sheet.32</title>
				<g id="shape33-73" transform="translate(0,-36)">
					<title>Sheet.33</title>
					<desc>Grandfather Josh</desc>
					<rect x="0" y="288.75" width="132.75" height="36" class="st1"/>
					<text x="24.44" y="310.35" class="st2">Grandfather Josh</text>				</g>
				<g id="shape34-76">
					<title>Sheet.34</title>
					<desc>painting</desc>
					<rect x="0" y="288.75" width="132.75" height="36" class="st1"/>
					<text x="46.46" y="310.35" class="st2">painting</text>				</g>
			</g>
			<g id="shape35-79" transform="translate(197.775,-234)">
				<title>Sheet.35</title>
				<ellipse cx="18" cy="306.75" rx="18" ry="18" class="st1"/>
			</g>
			<g id="shape36-81" transform="translate(584.175,-234)">
				<title>Sheet.36</title>
				<ellipse cx="18" cy="306.75" rx="18" ry="18" class="st1"/>
			</g>
			<g id="shape37-83" transform="translate(384.975,-126)">
				<title>Sheet.37</title>
				<ellipse cx="18" cy="306.75" rx="18" ry="18" class="st1"/>
			</g>
			<g id="shape39-85" transform="translate(198.847,-245.881)">
				<title>Dynamic connector</title>
				<path d="M0 324.75 L-82.67 354.63" class="st3"/>
			</g>
			<g id="shape40-88" transform="translate(231.881,-243.964)">
				<title>Dynamic connector.40</title>
				<path d="M0 324.75 L56.04 352.71" class="st3"/>
			</g>
			<g id="shape41-91" transform="translate(585.72,-244.705)">
				<title>Dynamic connector.41</title>
				<path d="M0 324.75 L-64.74 353.45" class="st3"/>
			</g>
			<g id="shape42-94" transform="translate(385.856,-138.437)">
				<title>Dynamic connector.42</title>
				<path d="M0 324.75 L-204.46 391.19" class="st3"/>
			</g>
			<g id="shape43-97" transform="translate(390.231,-131.288)">
				<title>Dynamic connector.43</title>
				<path d="M0 324.75 L-59.44 384.04" class="st3"/>
			</g>
			<g id="shape44-100" transform="translate(415.441,-131.015)">
				<title>Dynamic connector.44</title>
				<path d="M0 324.75 L56.65 383.77" class="st3"/>
			</g>
			<g id="shape45-103" transform="translate(419.966,-138.059)">
				<title>Dynamic connector.45</title>
				<path d="M0 324.75 L188.93 390.81" class="st3"/>
			</g>
		</g>
	</g>
</svg>
