<?xml version="1.0"?>
<svg version="1.1" xmlns="http://www.w3.org/2000/svg">
<rect x="1" y="1" width="30" height="30" fill="white" stroke="black" stroke-width="1" />
<rect x="31" y="1" width="30" height="30" fill="white" stroke="black" stroke-width="1" />
<rect x="61" y="1" width="30" height="30" fill="white" stroke="black" stroke-width="1" />
<rect x="91" y="1" width="30" height="30" fill="white" stroke="black" stroke-width="1" />
<rect x="121" y="1" width="30" height="30" fill="white" stroke="black" stroke-width="1" />
<rect x="151" y="1" width="30" height="30" fill="white" stroke="black" stroke-width="1" />
<rect x="181" y="1" width="30" height="30" fill="white" stroke="black" stroke-width="1" />
<rect x="211" y="1" width="30" height="30" fill="white" stroke="black" stroke-width="1" />
<rect x="241" y="1" width="30" height="30" fill="white" stroke="black" stroke-width="1" />
<rect x="271" y="1" width="30" height="30" fill="white" stroke="black" stroke-width="1" />
<rect x="1" y="31" width="30" height="30" fill="white" stroke="black" stroke-width="1" />
<rect x="31" y="31" width="30" height="30" fill="white" stroke="black" stroke-width="1" />
<rect x="61" y="31" width="30" height="30" fill="white" stroke="black" stroke-width="1" />
<rect x="91" y="31" width="30" height="30" fill="white" stroke="black" stroke-width="1" />
<rect x="121" y="31" width="30" height="30" fill="white" stroke="black" stroke-width="1" />
<rect x="151" y="31" width="30" height="30" fill="white" stroke="black" stroke-width="1" />
<rect x="181" y="31" width="30" height="30" fill="white" stroke="black" stroke-width="1" />
<rect x="211" y="31" width="30" height="30" fill="white" stroke="black" stroke-width="1" />
<rect x="241" y="31" width="30" height="30" fill="white" stroke="black" stroke-width="1" />
<rect x="271" y="31" width="30" height="30" fill="white" stroke="black" stroke-width="1" />
<rect x="1" y="61" width="30" height="30" fill="white" stroke="black" stroke-width="1" />
<rect x="31" y="61" width="30" height="30" fill="white" stroke="black" stroke-width="1" />
<rect x="61" y="61" width="30" height="30" fill="white" stroke="black" stroke-width="1" />
<rect x="91" y="61" width="30" height="30" fill="white" stroke="black" stroke-width="1" />
<rect x="121" y="61" width="30" height="30" fill="white" stroke="black" stroke-width="1" />
<rect x="151" y="61" width="30" height="30" fill="white" stroke="black" stroke-width="1" />
<rect x="181" y="61" width="30" height="30" fill="white" stroke="black" stroke-width="1" />
<rect x="211" y="61" width="30" height="30" fill="white" stroke="black" stroke-width="1" />
<rect x="241" y="61" width="30" height="30" fill="white" stroke="black" stroke-width="1" />
<rect x="271" y="61" width="30" height="30" fill="white" stroke="black" stroke-width="1" />
<rect x="1" y="91" width="30" height="30" fill="white" stroke="black" stroke-width="1" />
<rect x="31" y="91" width="30" height="30" fill="white" stroke="black" stroke-width="1" />
<rect x="61" y="91" width="30" height="30" fill="white" stroke="black" stroke-width="1" />
<rect x="91" y="91" width="30" height="30" fill="white" stroke="black" stroke-width="1" />
<rect x="121" y="91" width="30" height="30" fill="white" stroke="black" stroke-width="1" />
<rect x="151" y="91" width="30" height="30" fill="white" stroke="black" stroke-width="1" />
<rect x="181" y="91" width="30" height="30" fill="white" stroke="black" stroke-width="1" />
<rect x="211" y="91" width="30" height="30" fill="white" stroke="black" stroke-width="1" />
<rect x="241" y="91" width="30" height="30" fill="white" stroke="black" stroke-width="1" />
<rect x="271" y="91" width="30" height="30" fill="white" stroke="black" stroke-width="1" />
<rect x="1" y="121" width="30" height="30" fill="white" stroke="black" stroke-width="1" />
<rect x="31" y="121" width="30" height="30" fill="white" stroke="black" stroke-width="1" />
<rect x="61" y="121" width="30" height="30" fill="white" stroke="black" stroke-width="1" />
<rect x="91" y="121" width="30" height="30" fill="white" stroke="black" stroke-width="1" />
<rect x="121" y="121" width="30" height="30" fill="white" stroke="black" stroke-width="1" />
<rect x="151" y="121" width="30" height="30" fill="white" stroke="black" stroke-width="1" />
<rect x="181" y="121" width="30" height="30" fill="white" stroke="black" stroke-width="1" />
<rect x="211" y="121" width="30" height="30" fill="white" stroke="black" stroke-width="1" />
<rect x="241" y="121" width="30" height="30" fill="white" stroke="black" stroke-width="1" />
<rect x="271" y="121" width="30" height="30" fill="white" stroke="black" stroke-width="1" />
<rect x="1" y="151" width="30" height="30" fill="white" stroke="black" stroke-width="1" />
<rect x="31" y="151" width="30" height="30" fill="white" stroke="black" stroke-width="1" />
<rect x="61" y="151" width="30" height="30" fill="white" stroke="black" stroke-width="1" />
<rect x="91" y="151" width="30" height="30" fill="white" stroke="black" stroke-width="1" />
<rect x="121" y="151" width="30" height="30" fill="white" stroke="black" stroke-width="1" />
<rect x="151" y="151" width="30" height="30" fill="white" stroke="black" stroke-width="1" />
<rect x="181" y="151" width="30" height="30" fill="white" stroke="black" stroke-width="1" />
<rect x="211" y="151" width="30" height="30" fill="white" stroke="black" stroke-width="1" />
<rect x="241" y="151" width="30" height="30" fill="white" stroke="black" stroke-width="1" />
<rect x="271" y="151" width="30" height="30" fill="white" stroke="black" stroke-width="1" />
<rect x="1" y="181" width="30" height="30" fill="white" stroke="black" stroke-width="1" />
<rect x="31" y="181" width="30" height="30" fill="white" stroke="black" stroke-width="1" />
<rect x="61" y="181" width="30" height="30" fill="white" stroke="black" stroke-width="1" />
<rect x="91" y="181" width="30" height="30" fill="white" stroke="black" stroke-width="1" />
<rect x="121" y="181" width="30" height="30" fill="white" stroke="black" stroke-width="1" />
<rect x="151" y="181" width="30" height="30" fill="white" stroke="black" stroke-width="1" />
<rect x="181" y="181" width="30" height="30" fill="white" stroke="black" stroke-width="1" />
<rect x="211" y="181" width="30" height="30" fill="white" stroke="black" stroke-width="1" />
<rect x="241" y="181" width="30" height="30" fill="white" stroke="black" stroke-width="1" />
<rect x="271" y="181" width="30" height="30" fill="white" stroke="black" stroke-width="1" />
<rect x="1" y="211" width="30" height="30" fill="white" stroke="black" stroke-width="1" />
<rect x="31" y="211" width="30" height="30" fill="white" stroke="black" stroke-width="1" />
<rect x="61" y="211" width="30" height="30" fill="white" stroke="black" stroke-width="1" />
<rect x="91" y="211" width="30" height="30" fill="white" stroke="black" stroke-width="1" />
<rect x="121" y="211" width="30" height="30" fill="white" stroke="black" stroke-width="1" />
<rect x="151" y="211" width="30" height="30" fill="white" stroke="black" stroke-width="1" />
<rect x="181" y="211" width="30" height="30" fill="white" stroke="black" stroke-width="1" />
<rect x="211" y="211" width="30" height="30" fill="white" stroke="black" stroke-width="1" />
<rect x="241" y="211" width="30" height="30" fill="white" stroke="black" stroke-width="1" />
<rect x="271" y="211" width="30" height="30" fill="white" stroke="black" stroke-width="1" />
<rect x="1" y="241" width="30" height="30" fill="white" stroke="black" stroke-width="1" />
<rect x="31" y="241" width="30" height="30" fill="white" stroke="black" stroke-width="1" />
<rect x="61" y="241" width="30" height="30" fill="white" stroke="black" stroke-width="1" />
<rect x="91" y="241" width="30" height="30" fill="white" stroke="black" stroke-width="1" />
<rect x="121" y="241" width="30" height="30" fill="white" stroke="black" stroke-width="1" />
<rect x="151" y="241" width="30" height="30" fill="white" stroke="black" stroke-width="1" />
<rect x="181" y="241" width="30" height="30" fill="white" stroke="black" stroke-width="1" />
<rect x="211" y="241" width="30" height="30" fill="white" stroke="black" stroke-width="1" />
<rect x="241" y="241" width="30" height="30" fill="white" stroke="black" stroke-width="1" />
<rect x="271" y="241" width="30" height="30" fill="white" stroke="black" stroke-width="1" />
<rect x="1" y="1" width="300" height="270" fill="none" stroke="black" stroke-width="2" />
<g transform="translate(0 0)">
<rect x="1" y="1" width="30" height="30" fill="purple" stroke="black" stroke-width="1" />
<rect x="31" y="1" width="30" height="30" fill="purple" stroke="black" stroke-width="1" />
<rect x="1" y="31" width="30" height="30" fill="purple" stroke="black" stroke-width="1" />
<rect x="31" y="31" width="30" height="30" fill="purple" stroke="black" stroke-width="1" />
<rect x="1" y="61" width="30" height="30" fill="purple" stroke="black" stroke-width="1" />
<rect x="31" y="61" width="30" height="30" fill="purple" stroke="black" stroke-width="1" />
<rect x="1" y="91" width="30" height="30" fill="purple" stroke="black" stroke-width="1" />
<rect x="31" y="91" width="30" height="30" fill="purple" stroke="black" stroke-width="1" />
<rect x="1" y="121" width="30" height="30" fill="purple" stroke="black" stroke-width="1" />
<rect x="31" y="121" width="30" height="30" fill="purple" stroke="black" stroke-width="1" />
<rect x="1" y="151" width="30" height="30" fill="purple" stroke="black" stroke-width="1" />
<rect x="31" y="151" width="30" height="30" fill="purple" stroke="black" stroke-width="1" />
<rect x="1" y="181" width="30" height="30" fill="purple" stroke="black" stroke-width="1" />
<rect x="31" y="181" width="30" height="30" fill="purple" stroke="black" stroke-width="1" />
<rect x="1" y="211" width="30" height="30" fill="purple" stroke="black" stroke-width="1" />
<rect x="31" y="211" width="30" height="30" fill="purple" stroke="black" stroke-width="1" />
<rect x="1" y="241" width="30" height="30" fill="purple" stroke="black" stroke-width="1" />
<rect x="31" y="241" width="30" height="30" fill="purple" stroke="black" stroke-width="1" />
<rect x="1" y="1" width="60" height="270" fill="none" stroke="black" stroke-width="2" />
</g>
<g transform="translate(60 0)">
<rect x="1" y="1" width="30" height="30" fill="yellow" stroke="black" stroke-width="1" />
<rect x="31" y="1" width="30" height="30" fill="yellow" stroke="black" stroke-width="1" />
<rect x="61" y="1" width="30" height="30" fill="yellow" stroke="black" stroke-width="1" />
<rect x="1" y="31" width="30" height="30" fill="yellow" stroke="black" stroke-width="1" />
<rect x="31" y="31" width="30" height="30" fill="yellow" stroke="black" stroke-width="1" />
<rect x="61" y="31" width="30" height="30" fill="yellow" stroke="black" stroke-width="1" />
<rect x="1" y="61" width="30" height="30" fill="yellow" stroke="black" stroke-width="1" />
<rect x="31" y="61" width="30" height="30" fill="yellow" stroke="black" stroke-width="1" />
<rect x="61" y="61" width="30" height="30" fill="yellow" stroke="black" stroke-width="1" />
<rect x="1" y="91" width="30" height="30" fill="yellow" stroke="black" stroke-width="1" />
<rect x="31" y="91" width="30" height="30" fill="yellow" stroke="black" stroke-width="1" />
<rect x="61" y="91" width="30" height="30" fill="yellow" stroke="black" stroke-width="1" />
<rect x="1" y="121" width="30" height="30" fill="yellow" stroke="black" stroke-width="1" />
<rect x="31" y="121" width="30" height="30" fill="yellow" stroke="black" stroke-width="1" />
<rect x="61" y="121" width="30" height="30" fill="yellow" stroke="black" stroke-width="1" />
<rect x="1" y="151" width="30" height="30" fill="yellow" stroke="black" stroke-width="1" />
<rect x="31" y="151" width="30" height="30" fill="yellow" stroke="black" stroke-width="1" />
<rect x="61" y="151" width="30" height="30" fill="yellow" stroke="black" stroke-width="1" />
<rect x="1" y="1" width="90" height="180" fill="none" stroke="black" stroke-width="2" />
</g>
<g transform="translate(150 0)">
<rect x="1" y="1" width="30" height="30" fill="yellow" stroke="black" stroke-width="1" />
<rect x="31" y="1" width="30" height="30" fill="yellow" stroke="black" stroke-width="1" />
<rect x="61" y="1" width="30" height="30" fill="yellow" stroke="black" stroke-width="1" />
<rect x="1" y="31" width="30" height="30" fill="yellow" stroke="black" stroke-width="1" />
<rect x="31" y="31" width="30" height="30" fill="yellow" stroke="black" stroke-width="1" />
<rect x="61" y="31" width="30" height="30" fill="yellow" stroke="black" stroke-width="1" />
<rect x="1" y="61" width="30" height="30" fill="yellow" stroke="black" stroke-width="1" />
<rect x="31" y="61" width="30" height="30" fill="yellow" stroke="black" stroke-width="1" />
<rect x="61" y="61" width="30" height="30" fill="yellow" stroke="black" stroke-width="1" />
<rect x="1" y="91" width="30" height="30" fill="yellow" stroke="black" stroke-width="1" />
<rect x="31" y="91" width="30" height="30" fill="yellow" stroke="black" stroke-width="1" />
<rect x="61" y="91" width="30" height="30" fill="yellow" stroke="black" stroke-width="1" />
<rect x="1" y="121" width="30" height="30" fill="yellow" stroke="black" stroke-width="1" />
<rect x="31" y="121" width="30" height="30" fill="yellow" stroke="black" stroke-width="1" />
<rect x="61" y="121" width="30" height="30" fill="yellow" stroke="black" stroke-width="1" />
<rect x="1" y="151" width="30" height="30" fill="yellow" stroke="black" stroke-width="1" />
<rect x="31" y="151" width="30" height="30" fill="yellow" stroke="black" stroke-width="1" />
<rect x="61" y="151" width="30" height="30" fill="yellow" stroke="black" stroke-width="1" />
<rect x="1" y="1" width="90" height="180" fill="none" stroke="black" stroke-width="2" />
</g>
<g transform="translate(60 180)">
<rect x="1" y="1" width="30" height="30" fill="green" stroke="black" stroke-width="1" />
<rect x="31" y="1" width="30" height="30" fill="green" stroke="black" stroke-width="1" />
<rect x="61" y="1" width="30" height="30" fill="green" stroke="black" stroke-width="1" />
<rect x="91" y="1" width="30" height="30" fill="green" stroke="black" stroke-width="1" />
<rect x="121" y="1" width="30" height="30" fill="green" stroke="black" stroke-width="1" />
<rect x="151" y="1" width="30" height="30" fill="green" stroke="black" stroke-width="1" />
<rect x="1" y="31" width="30" height="30" fill="green" stroke="black" stroke-width="1" />
<rect x="31" y="31" width="30" height="30" fill="green" stroke="black" stroke-width="1" />
<rect x="61" y="31" width="30" height="30" fill="green" stroke="black" stroke-width="1" />
<rect x="91" y="31" width="30" height="30" fill="green" stroke="black" stroke-width="1" />
<rect x="121" y="31" width="30" height="30" fill="green" stroke="black" stroke-width="1" />
<rect x="151" y="31" width="30" height="30" fill="green" stroke="black" stroke-width="1" />
<rect x="1" y="61" width="30" height="30" fill="green" stroke="black" stroke-width="1" />
<rect x="31" y="61" width="30" height="30" fill="green" stroke="black" stroke-width="1" />
<rect x="61" y="61" width="30" height="30" fill="green" stroke="black" stroke-width="1" />
<rect x="91" y="61" width="30" height="30" fill="green" stroke="black" stroke-width="1" />
<rect x="121" y="61" width="30" height="30" fill="green" stroke="black" stroke-width="1" />
<rect x="151" y="61" width="30" height="30" fill="green" stroke="black" stroke-width="1" />
<rect x="1" y="1" width="180" height="90" fill="none" stroke="black" stroke-width="2" />
</g>
<g transform="translate(240 0)">
<rect x="1" y="1" width="30" height="30" fill="purple" stroke="black" stroke-width="1" />
<rect x="31" y="1" width="30" height="30" fill="purple" stroke="black" stroke-width="1" />
<rect x="1" y="31" width="30" height="30" fill="purple" stroke="black" stroke-width="1" />
<rect x="31" y="31" width="30" height="30" fill="purple" stroke="black" stroke-width="1" />
<rect x="1" y="61" width="30" height="30" fill="purple" stroke="black" stroke-width="1" />
<rect x="31" y="61" width="30" height="30" fill="purple" stroke="black" stroke-width="1" />
<rect x="1" y="91" width="30" height="30" fill="purple" stroke="black" stroke-width="1" />
<rect x="31" y="91" width="30" height="30" fill="purple" stroke="black" stroke-width="1" />
<rect x="1" y="121" width="30" height="30" fill="purple" stroke="black" stroke-width="1" />
<rect x="31" y="121" width="30" height="30" fill="purple" stroke="black" stroke-width="1" />
<rect x="1" y="151" width="30" height="30" fill="purple" stroke="black" stroke-width="1" />
<rect x="31" y="151" width="30" height="30" fill="purple" stroke="black" stroke-width="1" />
<rect x="1" y="181" width="30" height="30" fill="purple" stroke="black" stroke-width="1" />
<rect x="31" y="181" width="30" height="30" fill="purple" stroke="black" stroke-width="1" />
<rect x="1" y="211" width="30" height="30" fill="purple" stroke="black" stroke-width="1" />
<rect x="31" y="211" width="30" height="30" fill="purple" stroke="black" stroke-width="1" />
<rect x="1" y="241" width="30" height="30" fill="purple" stroke="black" stroke-width="1" />
<rect x="31" y="241" width="30" height="30" fill="purple" stroke="black" stroke-width="1" />
<rect x="1" y="1" width="60" height="270" fill="none" stroke="black" stroke-width="2" />
</g>
</svg>
