<?xml version="1.0"?>
<svg version="1.1" xmlns="http://www.w3.org/2000/svg">
<rect x="1" y="1" width="30" height="30" fill="green" stroke="black" stroke-width="1" />
<rect x="31" y="1" width="30" height="30" fill="green" stroke="black" stroke-width="1" />
<rect x="61" y="1" width="30" height="30" fill="green" stroke="black" stroke-width="1" />
<rect x="91" y="1" width="30" height="30" fill="green" stroke="black" stroke-width="1" />
<rect x="121" y="1" width="30" height="30" fill="green" stroke="black" stroke-width="1" />
<rect x="151" y="1" width="30" height="30" fill="green" stroke="black" stroke-width="1" />
<rect x="1" y="31" width="30" height="30" fill="green" stroke="black" stroke-width="1" />
<rect x="31" y="31" width="30" height="30" fill="green" stroke="black" stroke-width="1" />
<rect x="61" y="31" width="30" height="30" fill="green" stroke="black" stroke-width="1" />
<rect x="91" y="31" width="30" height="30" fill="green" stroke="black" stroke-width="1" />
<rect x="121" y="31" width="30" height="30" fill="green" stroke="black" stroke-width="1" />
<rect x="151" y="31" width="30" height="30" fill="green" stroke="black" stroke-width="1" />
<rect x="1" y="61" width="30" height="30" fill="green" stroke="black" stroke-width="1" />
<rect x="31" y="61" width="30" height="30" fill="green" stroke="black" stroke-width="1" />
<rect x="61" y="61" width="30" height="30" fill="green" stroke="black" stroke-width="1" />
<rect x="91" y="61" width="30" height="30" fill="green" stroke="black" stroke-width="1" />
<rect x="121" y="61" width="30" height="30" fill="green" stroke="black" stroke-width="1" />
<rect x="151" y="61" width="30" height="30" fill="green" stroke="black" stroke-width="1" />
<rect x="1" y="1" width="180" height="90" fill="none" stroke="black" stroke-width="2" />
</svg>
