<?xml version="1.0" encoding="UTF-8" standalone="no"?>
<!-- Created with Inkscape (http://www.inkscape.org/) -->

<svg
   xmlns:dc="http://purl.org/dc/elements/1.1/"
   xmlns:cc="http://creativecommons.org/ns#"
   xmlns:rdf="http://www.w3.org/1999/02/22-rdf-syntax-ns#"
   xmlns:svg="http://www.w3.org/2000/svg"
   xmlns="http://www.w3.org/2000/svg"
   xmlns:xlink="http://www.w3.org/1999/xlink"
   xmlns:sodipodi="http://sodipodi.sourceforge.net/DTD/sodipodi-0.dtd"
   xmlns:inkscape="http://www.inkscape.org/namespaces/inkscape"
   width="512.53668"
   height="177.45152"
   id="svg3089"
   version="1.1"
   inkscape:version="0.48.4 r9939"
   sodipodi:docname="Documento nuevo 1">
  <defs
     id="defs3091" />
  <sodipodi:namedview
     id="base"
     pagecolor="#ffffff"
     bordercolor="#666666"
     borderopacity="1.0"
     inkscape:pageopacity="0.0"
     inkscape:pageshadow="2"
     inkscape:zoom="2.1330157"
     inkscape:cx="271.69452"
     inkscape:cy="70.828596"
     inkscape:document-units="px"
     inkscape:current-layer="layer1"
     showgrid="false"
     fit-margin-top="0"
     fit-margin-left="0"
     fit-margin-right="0"
     fit-margin-bottom="0"
     inkscape:window-width="1680"
     inkscape:window-height="987"
     inkscape:window-x="-4"
     inkscape:window-y="-4"
     inkscape:window-maximized="1" />
  <metadata
     id="metadata3094">
    <rdf:RDF>
      <cc:Work
         rdf:about="">
        <dc:format>image/svg+xml</dc:format>
        <dc:type
           rdf:resource="http://purl.org/dc/dcmitype/StillImage" />
        <dc:title></dc:title>
      </cc:Work>
    </rdf:RDF>
  </metadata>
  <g
     inkscape:label="Capa 1"
     inkscape:groupmode="layer"
     id="layer1"
     transform="translate(-129.9375,-567.79848)">
    <path
       inkscape:connector-curvature="0"
       id="use3101"
       d="m 130.25437,584.64795 192.30232,160.1684"
       style="fill:none;stroke:#000000;stroke-width:1.02625751px;stroke-linecap:butt;stroke-linejoin:miter;stroke-opacity:1" />
    <use
       x="0"
       y="0"
       inkscape:tiled-clone-of="#use3101"
       xlink:href="#use3101"
       transform="translate(27.23629,0)"
       id="use3301"
       width="1052.3622"
       height="744.09448" />
    <use
       x="0"
       y="0"
       inkscape:tiled-clone-of="#use3101"
       xlink:href="#use3101"
       transform="translate(54.47258,0)"
       id="use3303"
       width="1052.3622"
       height="744.09448" />
    <use
       x="0"
       y="0"
       inkscape:tiled-clone-of="#use3101"
       xlink:href="#use3101"
       transform="translate(81.70887,0)"
       id="use3305"
       width="1052.3622"
       height="744.09448" />
    <use
       x="0"
       y="0"
       inkscape:tiled-clone-of="#use3101"
       xlink:href="#use3101"
       transform="translate(108.94516,0)"
       id="use3307"
       width="1052.3622"
       height="744.09448" />
    <use
       x="0"
       y="0"
       inkscape:tiled-clone-of="#use3101"
       xlink:href="#use3101"
       transform="translate(136.18145,0)"
       id="use3309"
       width="1052.3622"
       height="744.09448" />
    <use
       x="0"
       y="0"
       inkscape:tiled-clone-of="#use3101"
       xlink:href="#use3101"
       transform="translate(163.4177,0)"
       id="use3311"
       width="1052.3622"
       height="744.09448" />
    <use
       x="0"
       y="0"
       inkscape:tiled-clone-of="#use3101"
       xlink:href="#use3101"
       transform="translate(290.654,0)"
       id="use3313"
       width="1052.3622"
       height="744.09448" />
    <use
       x="0"
       y="0"
       inkscape:tiled-clone-of="#use3101"
       xlink:href="#use3101"
       transform="translate(257.8903,0)"
       id="use3315"
       width="1052.3622"
       height="744.09448" />
    <use
       x="0"
       y="0"
       inkscape:tiled-clone-of="#use3101"
       xlink:href="#use3101"
       transform="translate(225.1266,0)"
       id="use3317"
       width="1052.3622"
       height="744.09448" />
    <use
       x="0"
       y="0"
       inkscape:tiled-clone-of="#use3101"
       xlink:href="#use3101"
       transform="translate(192.3629,0)"
       id="use3319"
       width="1052.3622"
       height="744.09448" />
    <use
       x="0"
       y="0"
       inkscape:tiled-clone-of="#use3101"
       xlink:href="#use3101"
       transform="translate(319.5992,0)"
       id="use3321"
       width="1052.3622"
       height="744.09448" />
    <path
       style="fill:none;stroke:#000000;stroke-width:1px;stroke-linecap:butt;stroke-linejoin:miter;stroke-opacity:1"
       d="m 129.99825,276.48882 319.65989,0"
       id="path3323"
       inkscape:connector-curvature="0"
       transform="translate(0,308.2677)" />
    <path
       inkscape:connector-curvature="0"
       id="path4455"
       d="m 154.69763,604.75652 319.15533,0"
       style="fill:none;stroke:#000000;stroke-width:0.98561305px;stroke-linecap:butt;stroke-linejoin:miter;stroke-opacity:1" />
    <path
       style="fill:none;stroke:#000000;stroke-width:0.9732095px;stroke-linecap:butt;stroke-linejoin:miter;stroke-opacity:1"
       d="m 178.89202,624.75652 318.69047,0"
       id="path4457"
       inkscape:connector-curvature="0" />
    <path
       inkscape:connector-curvature="0"
       id="path4459"
       d="m 202.125,644.75652 319.65989,0"
       style="fill:none;stroke:#000000;stroke-width:1px;stroke-linecap:butt;stroke-linejoin:miter;stroke-opacity:1" />
    <path
       style="fill:none;stroke:#000000;stroke-width:0.98625022px;stroke-linecap:butt;stroke-linejoin:miter;stroke-opacity:1"
       d="m 226.61246,664.75652 319.17489,0"
       id="path4461"
       inkscape:connector-curvature="0" />
    <path
       inkscape:connector-curvature="0"
       id="path4463"
       d="m 250.69623,684.75652 319.25469,0"
       style="fill:none;stroke:#000000;stroke-width:0.97423041px;stroke-linecap:butt;stroke-linejoin:miter;stroke-opacity:1" />
    <path
       style="fill:none;stroke:#000000;stroke-width:0.96270823px;stroke-linecap:butt;stroke-linejoin:miter;stroke-opacity:1"
       d="m 274.75652,704.75652 319.3006,0"
       id="path4465"
       inkscape:connector-curvature="0" />
    <path
       inkscape:connector-curvature="0"
       id="path4467"
       d="m 298.7328,724.75652 319.7571,0"
       style="fill:none;stroke:#000000;stroke-width:0.95193344px;stroke-linecap:butt;stroke-linejoin:miter;stroke-opacity:1" />
    <path
       style="fill:none;stroke:#000000;stroke-width:1px;stroke-linecap:butt;stroke-linejoin:miter;stroke-opacity:1"
       d="m 322.125,744.75652 319.65989,0"
       id="path4469"
       inkscape:connector-curvature="0" />
    <g
       id="g5435"
       transform="matrix(0.04913627,0,0,0.06175716,210.35606,598.10015)">
      <g
         id="g5437"
         transform="translate(-9.5964575,-11.111678)">
        <path
           sodipodi:type="arc"
           style="fill:#4d4d4d;stroke:none"
           id="path5439"
           sodipodi:cx="382.34274"
           sodipodi:cy="260.40259"
           sodipodi:rx="86.368042"
           sodipodi:ry="29.294424"
           d="m 468.71078,260.40259 c 0,16.17886 -38.66828,29.29442 -86.36804,29.29442 -47.69975,0 -86.36804,-13.11556 -86.36804,-29.29442 0,-16.17887 38.66829,-29.29443 86.36804,-29.29443 47.69976,0 86.36804,13.11556 86.36804,29.29443 z"
           transform="matrix(2.4918325,0,0,2.3466097,-477.4573,18.550111)" />
        <path
           transform="matrix(2.1994348,0,0,1.8983338,-365.66116,84.774677)"
           d="m 468.71078,260.40259 c 0,16.17886 -38.66828,29.29442 -86.36804,29.29442 -47.69975,0 -86.36804,-13.11556 -86.36804,-29.29442 0,-16.17887 38.66829,-29.29443 86.36804,-29.29443 47.69976,0 86.36804,13.11556 86.36804,29.29443 z"
           sodipodi:ry="29.294424"
           sodipodi:rx="86.368042"
           sodipodi:cy="260.40259"
           sodipodi:cx="382.34274"
           id="path5441"
           style="fill:#808080;stroke:none"
           sodipodi:type="arc" />
        <path
           sodipodi:type="arc"
           style="fill:#4d4d4d;stroke:none"
           id="path5443"
           sodipodi:cx="382.34274"
           sodipodi:cy="260.40259"
           sodipodi:rx="86.368042"
           sodipodi:ry="29.294424"
           d="m 468.71078,260.40259 c 0,16.17886 -38.66828,29.29442 -86.36804,29.29442 -47.69975,0 -86.36804,-13.11556 -86.36804,-29.29442 0,-16.17887 38.66829,-29.29443 86.36804,-29.29443 47.69976,0 86.36804,13.11556 86.36804,29.29443 z"
           transform="matrix(1.8134699,0,0,1.3466097,-218.09028,204.20141)" />
      </g>
      <path
         sodipodi:type="arc"
         style="fill:#808080;stroke:none"
         id="path5445"
         sodipodi:cx="382.34274"
         sodipodi:cy="260.40259"
         sodipodi:rx="86.368042"
         sodipodi:ry="29.294424"
         d="m 468.71078,260.40259 c 0,16.17886 -38.66828,29.29442 -86.36804,29.29442 -47.69975,0 -86.36804,-13.11556 -86.36804,-29.29442 0,-16.17887 38.66829,-29.29443 86.36804,-29.29443 47.69976,0 86.36804,13.11556 86.36804,29.29443 z"
         transform="matrix(1.4545532,0,0,0.6504933,-91.467709,371.83486)" />
      <path
         style="fill:#999999;stroke:none"
         d="m 566.53984,551.22408 c -25.90426,6.2726 -29.61715,6.55937 -64.71403,8.61818 -27.20818,1.0982 -54.55137,2.01924 -81.60235,-0.64373 -14.29721,-1.40745 -41.76825,-3.10415 -58.9407,-7.13101 -15.68418,-3.67786 -21.77073,-9.77326 -21.77073,-9.77326 0,0 66.55899,-88.42471 68.28607,-140.64796 1.72708,-52.22325 -65.25448,-142.82981 -65.25448,-142.82981 250.10746,0.48929 249.65851,-1.90611 249.65851,-1.90611 0,0 -72.57596,92.98618 -70.84888,145.20943 1.72708,52.22325 68.88564,140.66374 68.88564,140.66374 0,0 7.83563,0.10035 -23.69905,8.44053 z"
         id="path5447"
         inkscape:connector-curvature="0"
         sodipodi:nodetypes="ccssczcczcc" />
      <g
         id="g5449"
         transform="translate(14.59645,-40)">
        <path
           sodipodi:type="arc"
           style="fill:#808080;stroke:none"
           id="path5451"
           sodipodi:cx="382.34274"
           sodipodi:cy="260.40259"
           sodipodi:rx="86.368042"
           sodipodi:ry="29.294424"
           d="m 468.71078,260.40259 c 0,16.17886 -38.66828,29.29442 -86.36804,29.29442 -47.69975,0 -86.36804,-13.11556 -86.36804,-29.29442 0,-16.17887 38.66829,-29.29443 86.36804,-29.29443 47.69976,0 86.36804,13.11556 86.36804,29.29443 z"
           transform="matrix(1.8134699,0,0,1.3466097,-237.28319,-40.255505)" />
        <path
           inkscape:connector-curvature="0"
           id="path5453"
           d="m 456.08387,252.96875 c -6.75498,0 -13.34921,0.12098 -19.71875,0.375 -6.36954,0.25402 -12.52202,0.64255 -18.375,1.125 -5.85298,0.48245 -11.4197,1.06471 -16.625,1.75 -5.2053,0.68529 -10.04226,1.48123 -14.46875,2.34375 -4.42649,0.86252 -8.42094,1.79833 -11.9375,2.8125 -3.51656,1.01417 -6.55575,2.10978 -9.03125,3.25 -1.23775,0.57011 -2.32835,1.15318 -3.28125,1.75 -0.9529,0.59682 -1.75459,1.19216 -2.40625,1.8125 -0.65166,0.62034 -1.16598,1.2656 -1.5,1.90625 -0.33402,0.64065 -0.5,1.27974 -0.5,1.9375 0,0.65776 0.16598,1.29708 0.5,1.9375 0.33402,0.64042 0.84834,1.28634 1.5,1.90625 0.65166,0.61991 1.45335,1.21627 2.40625,1.8125 0.9529,0.59623 2.0435,1.18062 3.28125,1.75 2.4755,1.13875 5.51469,2.23766 9.03125,3.25 3.51656,1.01234 7.51101,1.95193 11.9375,2.8125 4.42649,0.86057 9.26345,1.62905 14.46875,2.3125 5.2053,0.68345 10.77202,1.26901 16.625,1.75 5.85298,0.48099 12.00546,0.87183 18.375,1.125 6.36954,0.25317 12.96377,0.375 19.71875,0.375 6.75498,0 13.34921,-0.12183 19.71875,-0.375 6.36954,-0.25317 12.52202,-0.64401 18.375,-1.125 5.85298,-0.48099 11.4197,-1.06655 16.625,-1.75 5.2053,-0.68345 10.04226,-1.45193 14.46875,-2.3125 4.42649,-0.86057 8.42094,-1.80016 11.9375,-2.8125 3.51656,-1.01234 6.55575,-2.11125 9.03125,-3.25 1.23775,-0.56938 2.32835,-1.15377 3.28125,-1.75 0.9529,-0.59623 1.75459,-1.19259 2.40625,-1.8125 0.65166,-0.61991 1.16598,-1.26583 1.5,-1.90625 0.33402,-0.64042 0.5,-1.27974 0.5,-1.9375 0,-0.65776 -0.16598,-1.29685 -0.5,-1.9375 -0.33402,-0.64065 -0.84834,-1.28591 -1.5,-1.90625 -0.65166,-0.62034 -1.45335,-1.21568 -2.40625,-1.8125 -0.9529,-0.59682 -2.0435,-1.17989 -3.28125,-1.75 -2.4755,-1.14022 -5.51469,-2.23583 -9.03125,-3.25 -3.51656,-1.01417 -7.51101,-1.94998 -11.9375,-2.8125 -4.42649,-0.86252 -9.26345,-1.65846 -14.46875,-2.34375 -5.2053,-0.68529 -10.77202,-1.26755 -16.625,-1.75 -5.85298,-0.48245 -12.00546,-0.87098 -18.375,-1.125 -6.36954,-0.25402 -12.96377,-0.375 -19.71875,-0.375 z"
           style="fill:#4d4d4d;stroke:none" />
        <path
           inkscape:connector-curvature="0"
           id="path5455"
           d="m 456.08387,232.5625 c -86.50207,0 -156.625,17.68214 -156.625,39.46875 0,21.78661 70.12293,39.4375 156.625,39.4375 86.50207,0 156.625,-17.65089 156.625,-39.4375 0,-21.78661 -70.12293,-39.46875 -156.625,-39.46875 z m 0,20.40625 c 54.0398,0 97.84375,8.53826 97.84375,19.0625 0,10.52424 -43.80395,19.03125 -97.84375,19.03125 -54.0398,0 -97.84375,-8.50701 -97.84375,-19.03125 0,-10.52424 43.80395,-19.0625 97.84375,-19.0625 z"
           style="fill:#808080;stroke:none" />
        <path
           sodipodi:type="arc"
           style="fill:#808080;stroke:none"
           id="path5457"
           sodipodi:cx="382.34274"
           sodipodi:cy="260.40259"
           sodipodi:rx="86.368042"
           sodipodi:ry="29.294424"
           d="m 468.71078,260.40259 c 0,16.17886 -38.66828,29.29442 -86.36804,29.29442 -47.69975,0 -86.36804,-13.11556 -86.36804,-29.29442 0,-16.17887 38.66829,-29.29443 86.36804,-29.29443 47.69976,0 86.36804,13.11556 86.36804,29.29443 z"
           transform="matrix(1.1329158,0,0,0.6504933,22.921731,126.87287)" />
        <path
           inkscape:connector-curvature="0"
           id="path5459"
           d="m 304.33387,281.61485 c -3.06302,3.07882 -4.875,6.27576 -4.875,9.59375 0,21.78661 70.12293,39.4375 156.625,39.4375 86.50207,0 156.625,-17.65089 156.625,-39.4375 0,-3.67926 -2.13406,-7.21497 -5.875,-10.59375 -0.70627,0.70928 -1.29977,1.43156 -2.15625,2.125 -1.52542,1.23504 -3.29985,2.44537 -5.28125,3.625 -1.9814,1.17963 -4.1826,2.35113 -6.59375,3.46875 -2.41115,1.11762 -5.0291,2.20098 -7.84375,3.25 -2.81465,1.04902 -5.80808,2.05744 -9,3.03125 -3.19192,0.97381 -6.58206,1.88924 -10.125,2.78125 -7.08587,1.78401 -14.855,3.42655 -23.1875,4.84375 -8.3325,1.4172 -17.22456,2.62741 -26.59375,3.625 -9.36919,0.99759 -19.21031,1.75606 -29.40625,2.28125 -10.19594,0.52519 -20.74974,0.8125 -31.5625,0.8125 -10.81276,0 -21.36656,-0.28731 -31.5625,-0.8125 -10.19594,-0.52519 -20.03706,-1.28366 -29.40625,-2.28125 -9.36919,-0.99759 -18.26125,-2.2078 -26.59375,-3.625 -8.3325,-1.4172 -16.10163,-3.05974 -23.1875,-4.84375 -3.54294,-0.89201 -6.93308,-1.80744 -10.125,-2.78125 -3.19192,-0.97381 -6.18535,-1.98223 -9,-3.03125 -2.81465,-1.04902 -5.4326,-2.13238 -7.84375,-3.25 -2.41115,-1.11762 -4.61235,-2.28912 -6.59375,-3.46875 -1.9814,-1.17963 -3.75583,-2.38996 -5.28125,-3.625 -0.4564,-0.36952 -0.7422,-0.75091 -1.15625,-1.125 z"
           style="fill:#4d4d4d;stroke:none" />
      </g>
    </g>
    <g
       transform="matrix(0.04913627,0,0,0.06175716,271.30263,555.90637)"
       id="g5515">
      <g
         transform="translate(-9.5964575,-11.111678)"
         id="g5517">
        <path
           transform="matrix(2.4918325,0,0,2.3466097,-477.4573,18.550111)"
           d="m 468.71078,260.40259 c 0,16.17886 -38.66828,29.29442 -86.36804,29.29442 -47.69975,0 -86.36804,-13.11556 -86.36804,-29.29442 0,-16.17887 38.66829,-29.29443 86.36804,-29.29443 47.69976,0 86.36804,13.11556 86.36804,29.29443 z"
           sodipodi:ry="29.294424"
           sodipodi:rx="86.368042"
           sodipodi:cy="260.40259"
           sodipodi:cx="382.34274"
           id="path5519"
           style="fill:#4d4d4d;stroke:none"
           sodipodi:type="arc" />
        <path
           sodipodi:type="arc"
           style="fill:#808080;stroke:none"
           id="path5521"
           sodipodi:cx="382.34274"
           sodipodi:cy="260.40259"
           sodipodi:rx="86.368042"
           sodipodi:ry="29.294424"
           d="m 468.71078,260.40259 c 0,16.17886 -38.66828,29.29442 -86.36804,29.29442 -47.69975,0 -86.36804,-13.11556 -86.36804,-29.29442 0,-16.17887 38.66829,-29.29443 86.36804,-29.29443 47.69976,0 86.36804,13.11556 86.36804,29.29443 z"
           transform="matrix(2.1994348,0,0,1.8983338,-365.66116,84.774677)" />
        <path
           transform="matrix(1.8134699,0,0,1.3466097,-218.09028,204.20141)"
           d="m 468.71078,260.40259 c 0,16.17886 -38.66828,29.29442 -86.36804,29.29442 -47.69975,0 -86.36804,-13.11556 -86.36804,-29.29442 0,-16.17887 38.66829,-29.29443 86.36804,-29.29443 47.69976,0 86.36804,13.11556 86.36804,29.29443 z"
           sodipodi:ry="29.294424"
           sodipodi:rx="86.368042"
           sodipodi:cy="260.40259"
           sodipodi:cx="382.34274"
           id="path5523"
           style="fill:#4d4d4d;stroke:none"
           sodipodi:type="arc" />
      </g>
      <path
         transform="matrix(1.4545532,0,0,0.6504933,-91.467709,371.83486)"
         d="m 468.71078,260.40259 c 0,16.17886 -38.66828,29.29442 -86.36804,29.29442 -47.69975,0 -86.36804,-13.11556 -86.36804,-29.29442 0,-16.17887 38.66829,-29.29443 86.36804,-29.29443 47.69976,0 86.36804,13.11556 86.36804,29.29443 z"
         sodipodi:ry="29.294424"
         sodipodi:rx="86.368042"
         sodipodi:cy="260.40259"
         sodipodi:cx="382.34274"
         id="path5525"
         style="fill:#808080;stroke:none"
         sodipodi:type="arc" />
      <path
         sodipodi:nodetypes="ccssczcczcc"
         inkscape:connector-curvature="0"
         id="path5527"
         d="m 566.53984,551.22408 c -25.90426,6.2726 -29.61715,6.55937 -64.71403,8.61818 -27.20818,1.0982 -54.55137,2.01924 -81.60235,-0.64373 -14.29721,-1.40745 -41.76825,-3.10415 -58.9407,-7.13101 -15.68418,-3.67786 -21.77073,-9.77326 -21.77073,-9.77326 0,0 66.55899,-88.42471 68.28607,-140.64796 1.72708,-52.22325 -65.25448,-142.82981 -65.25448,-142.82981 250.10746,0.48929 249.65851,-1.90611 249.65851,-1.90611 0,0 -72.57596,92.98618 -70.84888,145.20943 1.72708,52.22325 68.88564,140.66374 68.88564,140.66374 0,0 7.83563,0.10035 -23.69905,8.44053 z"
         style="fill:#999999;stroke:none" />
      <g
         transform="translate(14.59645,-40)"
         id="g5529">
        <path
           transform="matrix(1.8134699,0,0,1.3466097,-237.28319,-40.255505)"
           d="m 468.71078,260.40259 c 0,16.17886 -38.66828,29.29442 -86.36804,29.29442 -47.69975,0 -86.36804,-13.11556 -86.36804,-29.29442 0,-16.17887 38.66829,-29.29443 86.36804,-29.29443 47.69976,0 86.36804,13.11556 86.36804,29.29443 z"
           sodipodi:ry="29.294424"
           sodipodi:rx="86.368042"
           sodipodi:cy="260.40259"
           sodipodi:cx="382.34274"
           id="path5531"
           style="fill:#808080;stroke:none"
           sodipodi:type="arc" />
        <path
           style="fill:#4d4d4d;stroke:none"
           d="m 456.08387,252.96875 c -6.75498,0 -13.34921,0.12098 -19.71875,0.375 -6.36954,0.25402 -12.52202,0.64255 -18.375,1.125 -5.85298,0.48245 -11.4197,1.06471 -16.625,1.75 -5.2053,0.68529 -10.04226,1.48123 -14.46875,2.34375 -4.42649,0.86252 -8.42094,1.79833 -11.9375,2.8125 -3.51656,1.01417 -6.55575,2.10978 -9.03125,3.25 -1.23775,0.57011 -2.32835,1.15318 -3.28125,1.75 -0.9529,0.59682 -1.75459,1.19216 -2.40625,1.8125 -0.65166,0.62034 -1.16598,1.2656 -1.5,1.90625 -0.33402,0.64065 -0.5,1.27974 -0.5,1.9375 0,0.65776 0.16598,1.29708 0.5,1.9375 0.33402,0.64042 0.84834,1.28634 1.5,1.90625 0.65166,0.61991 1.45335,1.21627 2.40625,1.8125 0.9529,0.59623 2.0435,1.18062 3.28125,1.75 2.4755,1.13875 5.51469,2.23766 9.03125,3.25 3.51656,1.01234 7.51101,1.95193 11.9375,2.8125 4.42649,0.86057 9.26345,1.62905 14.46875,2.3125 5.2053,0.68345 10.77202,1.26901 16.625,1.75 5.85298,0.48099 12.00546,0.87183 18.375,1.125 6.36954,0.25317 12.96377,0.375 19.71875,0.375 6.75498,0 13.34921,-0.12183 19.71875,-0.375 6.36954,-0.25317 12.52202,-0.64401 18.375,-1.125 5.85298,-0.48099 11.4197,-1.06655 16.625,-1.75 5.2053,-0.68345 10.04226,-1.45193 14.46875,-2.3125 4.42649,-0.86057 8.42094,-1.80016 11.9375,-2.8125 3.51656,-1.01234 6.55575,-2.11125 9.03125,-3.25 1.23775,-0.56938 2.32835,-1.15377 3.28125,-1.75 0.9529,-0.59623 1.75459,-1.19259 2.40625,-1.8125 0.65166,-0.61991 1.16598,-1.26583 1.5,-1.90625 0.33402,-0.64042 0.5,-1.27974 0.5,-1.9375 0,-0.65776 -0.16598,-1.29685 -0.5,-1.9375 -0.33402,-0.64065 -0.84834,-1.28591 -1.5,-1.90625 -0.65166,-0.62034 -1.45335,-1.21568 -2.40625,-1.8125 -0.9529,-0.59682 -2.0435,-1.17989 -3.28125,-1.75 -2.4755,-1.14022 -5.51469,-2.23583 -9.03125,-3.25 -3.51656,-1.01417 -7.51101,-1.94998 -11.9375,-2.8125 -4.42649,-0.86252 -9.26345,-1.65846 -14.46875,-2.34375 -5.2053,-0.68529 -10.77202,-1.26755 -16.625,-1.75 -5.85298,-0.48245 -12.00546,-0.87098 -18.375,-1.125 -6.36954,-0.25402 -12.96377,-0.375 -19.71875,-0.375 z"
           id="path5533"
           inkscape:connector-curvature="0" />
        <path
           style="fill:#808080;stroke:none"
           d="m 456.08387,232.5625 c -86.50207,0 -156.625,17.68214 -156.625,39.46875 0,21.78661 70.12293,39.4375 156.625,39.4375 86.50207,0 156.625,-17.65089 156.625,-39.4375 0,-21.78661 -70.12293,-39.46875 -156.625,-39.46875 z m 0,20.40625 c 54.0398,0 97.84375,8.53826 97.84375,19.0625 0,10.52424 -43.80395,19.03125 -97.84375,19.03125 -54.0398,0 -97.84375,-8.50701 -97.84375,-19.03125 0,-10.52424 43.80395,-19.0625 97.84375,-19.0625 z"
           id="path5535"
           inkscape:connector-curvature="0" />
        <path
           transform="matrix(1.1329158,0,0,0.6504933,22.921731,126.87287)"
           d="m 468.71078,260.40259 c 0,16.17886 -38.66828,29.29442 -86.36804,29.29442 -47.69975,0 -86.36804,-13.11556 -86.36804,-29.29442 0,-16.17887 38.66829,-29.29443 86.36804,-29.29443 47.69976,0 86.36804,13.11556 86.36804,29.29443 z"
           sodipodi:ry="29.294424"
           sodipodi:rx="86.368042"
           sodipodi:cy="260.40259"
           sodipodi:cx="382.34274"
           id="path5537"
           style="fill:#808080;stroke:none"
           sodipodi:type="arc" />
        <path
           style="fill:#4d4d4d;stroke:none"
           d="m 304.33387,281.61485 c -3.06302,3.07882 -4.875,6.27576 -4.875,9.59375 0,21.78661 70.12293,39.4375 156.625,39.4375 86.50207,0 156.625,-17.65089 156.625,-39.4375 0,-3.67926 -2.13406,-7.21497 -5.875,-10.59375 -0.70627,0.70928 -1.29977,1.43156 -2.15625,2.125 -1.52542,1.23504 -3.29985,2.44537 -5.28125,3.625 -1.9814,1.17963 -4.1826,2.35113 -6.59375,3.46875 -2.41115,1.11762 -5.0291,2.20098 -7.84375,3.25 -2.81465,1.04902 -5.80808,2.05744 -9,3.03125 -3.19192,0.97381 -6.58206,1.88924 -10.125,2.78125 -7.08587,1.78401 -14.855,3.42655 -23.1875,4.84375 -8.3325,1.4172 -17.22456,2.62741 -26.59375,3.625 -9.36919,0.99759 -19.21031,1.75606 -29.40625,2.28125 -10.19594,0.52519 -20.74974,0.8125 -31.5625,0.8125 -10.81276,0 -21.36656,-0.28731 -31.5625,-0.8125 -10.19594,-0.52519 -20.03706,-1.28366 -29.40625,-2.28125 -9.36919,-0.99759 -18.26125,-2.2078 -26.59375,-3.625 -8.3325,-1.4172 -16.10163,-3.05974 -23.1875,-4.84375 -3.54294,-0.89201 -6.93308,-1.80744 -10.125,-2.78125 -3.19192,-0.97381 -6.18535,-1.98223 -9,-3.03125 -2.81465,-1.04902 -5.4326,-2.13238 -7.84375,-3.25 -2.41115,-1.11762 -4.61235,-2.28912 -6.59375,-3.46875 -1.9814,-1.17963 -3.75583,-2.38996 -5.28125,-3.625 -0.4564,-0.36952 -0.7422,-0.75091 -1.15625,-1.125 z"
           id="path5539"
           inkscape:connector-curvature="0" />
      </g>
    </g>
    <g
       transform="matrix(0.04913627,0,0,0.06175716,503.36844,674.04895)"
       id="g5541">
      <g
         transform="translate(-9.5964575,-11.111678)"
         id="g5543">
        <path
           transform="matrix(2.4918325,0,0,2.3466097,-477.4573,18.550111)"
           d="m 468.71078,260.40259 c 0,16.17886 -38.66828,29.29442 -86.36804,29.29442 -47.69975,0 -86.36804,-13.11556 -86.36804,-29.29442 0,-16.17887 38.66829,-29.29443 86.36804,-29.29443 47.69976,0 86.36804,13.11556 86.36804,29.29443 z"
           sodipodi:ry="29.294424"
           sodipodi:rx="86.368042"
           sodipodi:cy="260.40259"
           sodipodi:cx="382.34274"
           id="path5545"
           style="fill:#4d4d4d;stroke:none"
           sodipodi:type="arc" />
        <path
           sodipodi:type="arc"
           style="fill:#808080;stroke:none"
           id="path5547"
           sodipodi:cx="382.34274"
           sodipodi:cy="260.40259"
           sodipodi:rx="86.368042"
           sodipodi:ry="29.294424"
           d="m 468.71078,260.40259 c 0,16.17886 -38.66828,29.29442 -86.36804,29.29442 -47.69975,0 -86.36804,-13.11556 -86.36804,-29.29442 0,-16.17887 38.66829,-29.29443 86.36804,-29.29443 47.69976,0 86.36804,13.11556 86.36804,29.29443 z"
           transform="matrix(2.1994348,0,0,1.8983338,-365.66116,84.774677)" />
        <path
           transform="matrix(1.8134699,0,0,1.3466097,-218.09028,204.20141)"
           d="m 468.71078,260.40259 c 0,16.17886 -38.66828,29.29442 -86.36804,29.29442 -47.69975,0 -86.36804,-13.11556 -86.36804,-29.29442 0,-16.17887 38.66829,-29.29443 86.36804,-29.29443 47.69976,0 86.36804,13.11556 86.36804,29.29443 z"
           sodipodi:ry="29.294424"
           sodipodi:rx="86.368042"
           sodipodi:cy="260.40259"
           sodipodi:cx="382.34274"
           id="path5549"
           style="fill:#4d4d4d;stroke:none"
           sodipodi:type="arc" />
      </g>
      <path
         transform="matrix(1.4545532,0,0,0.6504933,-91.467709,371.83486)"
         d="m 468.71078,260.40259 c 0,16.17886 -38.66828,29.29442 -86.36804,29.29442 -47.69975,0 -86.36804,-13.11556 -86.36804,-29.29442 0,-16.17887 38.66829,-29.29443 86.36804,-29.29443 47.69976,0 86.36804,13.11556 86.36804,29.29443 z"
         sodipodi:ry="29.294424"
         sodipodi:rx="86.368042"
         sodipodi:cy="260.40259"
         sodipodi:cx="382.34274"
         id="path5551"
         style="fill:#808080;stroke:none"
         sodipodi:type="arc" />
      <path
         sodipodi:nodetypes="ccssczcczcc"
         inkscape:connector-curvature="0"
         id="path5553"
         d="m 566.53984,551.22408 c -25.90426,6.2726 -29.61715,6.55937 -64.71403,8.61818 -27.20818,1.0982 -54.55137,2.01924 -81.60235,-0.64373 -14.29721,-1.40745 -41.76825,-3.10415 -58.9407,-7.13101 -15.68418,-3.67786 -21.77073,-9.77326 -21.77073,-9.77326 0,0 66.55899,-88.42471 68.28607,-140.64796 1.72708,-52.22325 -65.25448,-142.82981 -65.25448,-142.82981 250.10746,0.48929 249.65851,-1.90611 249.65851,-1.90611 0,0 -72.57596,92.98618 -70.84888,145.20943 1.72708,52.22325 68.88564,140.66374 68.88564,140.66374 0,0 7.83563,0.10035 -23.69905,8.44053 z"
         style="fill:#999999;stroke:none" />
      <g
         transform="translate(14.59645,-40)"
         id="g5555">
        <path
           transform="matrix(1.8134699,0,0,1.3466097,-237.28319,-40.255505)"
           d="m 468.71078,260.40259 c 0,16.17886 -38.66828,29.29442 -86.36804,29.29442 -47.69975,0 -86.36804,-13.11556 -86.36804,-29.29442 0,-16.17887 38.66829,-29.29443 86.36804,-29.29443 47.69976,0 86.36804,13.11556 86.36804,29.29443 z"
           sodipodi:ry="29.294424"
           sodipodi:rx="86.368042"
           sodipodi:cy="260.40259"
           sodipodi:cx="382.34274"
           id="path5557"
           style="fill:#808080;stroke:none"
           sodipodi:type="arc" />
        <path
           style="fill:#4d4d4d;stroke:none"
           d="m 456.08387,252.96875 c -6.75498,0 -13.34921,0.12098 -19.71875,0.375 -6.36954,0.25402 -12.52202,0.64255 -18.375,1.125 -5.85298,0.48245 -11.4197,1.06471 -16.625,1.75 -5.2053,0.68529 -10.04226,1.48123 -14.46875,2.34375 -4.42649,0.86252 -8.42094,1.79833 -11.9375,2.8125 -3.51656,1.01417 -6.55575,2.10978 -9.03125,3.25 -1.23775,0.57011 -2.32835,1.15318 -3.28125,1.75 -0.9529,0.59682 -1.75459,1.19216 -2.40625,1.8125 -0.65166,0.62034 -1.16598,1.2656 -1.5,1.90625 -0.33402,0.64065 -0.5,1.27974 -0.5,1.9375 0,0.65776 0.16598,1.29708 0.5,1.9375 0.33402,0.64042 0.84834,1.28634 1.5,1.90625 0.65166,0.61991 1.45335,1.21627 2.40625,1.8125 0.9529,0.59623 2.0435,1.18062 3.28125,1.75 2.4755,1.13875 5.51469,2.23766 9.03125,3.25 3.51656,1.01234 7.51101,1.95193 11.9375,2.8125 4.42649,0.86057 9.26345,1.62905 14.46875,2.3125 5.2053,0.68345 10.77202,1.26901 16.625,1.75 5.85298,0.48099 12.00546,0.87183 18.375,1.125 6.36954,0.25317 12.96377,0.375 19.71875,0.375 6.75498,0 13.34921,-0.12183 19.71875,-0.375 6.36954,-0.25317 12.52202,-0.64401 18.375,-1.125 5.85298,-0.48099 11.4197,-1.06655 16.625,-1.75 5.2053,-0.68345 10.04226,-1.45193 14.46875,-2.3125 4.42649,-0.86057 8.42094,-1.80016 11.9375,-2.8125 3.51656,-1.01234 6.55575,-2.11125 9.03125,-3.25 1.23775,-0.56938 2.32835,-1.15377 3.28125,-1.75 0.9529,-0.59623 1.75459,-1.19259 2.40625,-1.8125 0.65166,-0.61991 1.16598,-1.26583 1.5,-1.90625 0.33402,-0.64042 0.5,-1.27974 0.5,-1.9375 0,-0.65776 -0.16598,-1.29685 -0.5,-1.9375 -0.33402,-0.64065 -0.84834,-1.28591 -1.5,-1.90625 -0.65166,-0.62034 -1.45335,-1.21568 -2.40625,-1.8125 -0.9529,-0.59682 -2.0435,-1.17989 -3.28125,-1.75 -2.4755,-1.14022 -5.51469,-2.23583 -9.03125,-3.25 -3.51656,-1.01417 -7.51101,-1.94998 -11.9375,-2.8125 -4.42649,-0.86252 -9.26345,-1.65846 -14.46875,-2.34375 -5.2053,-0.68529 -10.77202,-1.26755 -16.625,-1.75 -5.85298,-0.48245 -12.00546,-0.87098 -18.375,-1.125 -6.36954,-0.25402 -12.96377,-0.375 -19.71875,-0.375 z"
           id="path5559"
           inkscape:connector-curvature="0" />
        <path
           style="fill:#808080;stroke:none"
           d="m 456.08387,232.5625 c -86.50207,0 -156.625,17.68214 -156.625,39.46875 0,21.78661 70.12293,39.4375 156.625,39.4375 86.50207,0 156.625,-17.65089 156.625,-39.4375 0,-21.78661 -70.12293,-39.46875 -156.625,-39.46875 z m 0,20.40625 c 54.0398,0 97.84375,8.53826 97.84375,19.0625 0,10.52424 -43.80395,19.03125 -97.84375,19.03125 -54.0398,0 -97.84375,-8.50701 -97.84375,-19.03125 0,-10.52424 43.80395,-19.0625 97.84375,-19.0625 z"
           id="path5561"
           inkscape:connector-curvature="0" />
        <path
           transform="matrix(1.1329158,0,0,0.6504933,22.921731,126.87287)"
           d="m 468.71078,260.40259 c 0,16.17886 -38.66828,29.29442 -86.36804,29.29442 -47.69975,0 -86.36804,-13.11556 -86.36804,-29.29442 0,-16.17887 38.66829,-29.29443 86.36804,-29.29443 47.69976,0 86.36804,13.11556 86.36804,29.29443 z"
           sodipodi:ry="29.294424"
           sodipodi:rx="86.368042"
           sodipodi:cy="260.40259"
           sodipodi:cx="382.34274"
           id="path5563"
           style="fill:#808080;stroke:none"
           sodipodi:type="arc" />
        <path
           style="fill:#4d4d4d;stroke:none"
           d="m 304.33387,281.61485 c -3.06302,3.07882 -4.875,6.27576 -4.875,9.59375 0,21.78661 70.12293,39.4375 156.625,39.4375 86.50207,0 156.625,-17.65089 156.625,-39.4375 0,-3.67926 -2.13406,-7.21497 -5.875,-10.59375 -0.70627,0.70928 -1.29977,1.43156 -2.15625,2.125 -1.52542,1.23504 -3.29985,2.44537 -5.28125,3.625 -1.9814,1.17963 -4.1826,2.35113 -6.59375,3.46875 -2.41115,1.11762 -5.0291,2.20098 -7.84375,3.25 -2.81465,1.04902 -5.80808,2.05744 -9,3.03125 -3.19192,0.97381 -6.58206,1.88924 -10.125,2.78125 -7.08587,1.78401 -14.855,3.42655 -23.1875,4.84375 -8.3325,1.4172 -17.22456,2.62741 -26.59375,3.625 -9.36919,0.99759 -19.21031,1.75606 -29.40625,2.28125 -10.19594,0.52519 -20.74974,0.8125 -31.5625,0.8125 -10.81276,0 -21.36656,-0.28731 -31.5625,-0.8125 -10.19594,-0.52519 -20.03706,-1.28366 -29.40625,-2.28125 -9.36919,-0.99759 -18.26125,-2.2078 -26.59375,-3.625 -8.3325,-1.4172 -16.10163,-3.05974 -23.1875,-4.84375 -3.54294,-0.89201 -6.93308,-1.80744 -10.125,-2.78125 -3.19192,-0.97381 -6.18535,-1.98223 -9,-3.03125 -2.81465,-1.04902 -5.4326,-2.13238 -7.84375,-3.25 -2.41115,-1.11762 -4.61235,-2.28912 -6.59375,-3.46875 -1.9814,-1.17963 -3.75583,-2.38996 -5.28125,-3.625 -0.4564,-0.36952 -0.7422,-0.75091 -1.15625,-1.125 z"
           id="path5565"
           inkscape:connector-curvature="0" />
      </g>
    </g>
    <path
       style="fill:#000080;stroke:none"
       d="m 170.99809,286.59211 c -5.91877,-4.92653 -10.8493,-9.04042 -10.95674,-9.14198 -0.10744,-0.10157 5.37776,-0.18116 12.18932,-0.17687 l 12.38465,0.008 10.9465,9.13419 10.9465,9.1342 -12.37442,0 -12.37441,0 -10.7614,-8.95733 z"
       id="path5569"
       inkscape:connector-curvature="0"
       transform="translate(0,308.2677)" />
    <path
       style="fill:#000080;stroke:none"
       d="m 194.99783,306.65 -10.71438,-8.99087 12.23816,-0.12499 12.23817,-0.12499 10.43112,8.69956 c 5.73712,4.78476 10.50145,8.90216 10.5874,9.14977 0.0974,0.28072 -4.40344,0.43745 -11.95491,0.4163 l -12.11118,-0.0339 -10.71438,-8.99087 z"
       id="path5571"
       inkscape:connector-curvature="0"
       transform="translate(0,308.2677)" />
    <path
       style="fill:#000080;stroke:none"
       d="m 227.16514,333.42617 c -1.60914,-1.32635 -2.86671,-2.47053 -2.79461,-2.54263 0.0721,-0.0721 1.07221,0.2059 2.22247,0.61778 2.92508,1.04739 10.25311,1.03539 13.40513,-0.022 2.64984,-0.88889 3.75452,-1.85195 3.99736,-3.48485 0.14484,-0.97396 0.64708,-0.67037 5.31697,3.21406 2.83636,2.35929 5.24492,4.37282 5.35236,4.4745 0.10743,0.10169 -5.37776,0.17808 -12.18932,0.16977 l -12.38466,-0.0151 -2.9257,-2.41154 z"
       id="path5573"
       inkscape:connector-curvature="0"
       transform="translate(0,308.2677)" />
    <path
       style="fill:#000080;stroke:none"
       d="m 242.81745,346.49968 -10.71438,-8.99087 12.2457,-0.125 12.2457,-0.125 9.95477,8.27879 c 5.47512,4.55334 10.37084,8.67074 10.87938,9.14978 0.90242,0.85008 0.62662,0.87018 -11.48608,0.83708 l -12.41071,-0.0339 -10.71438,-8.99087 z"
       id="path5575"
       inkscape:connector-curvature="0"
       transform="translate(0,308.2677)" />
    <path
       style="fill:#000080;stroke:none"
       d="m 215.24947,323.52838 -7.34027,-6.17882 10.57396,-0.12618 c 5.81567,-0.0694 10.68132,-0.0188 10.81256,0.11242 0.13123,0.13124 -0.14212,1.08291 -0.60745,2.11484 -0.56865,1.26104 -1.51502,2.26826 -2.88628,3.07187 -1.32535,0.7767 -2.04021,1.52304 -2.04021,2.13002 0,0.5139 -0.33395,1.44404 -0.74211,2.06697 -0.43483,0.66363 -0.61587,1.53034 -0.43723,2.09319 0.16769,0.52833 0.23792,0.94573 0.15608,0.92755 -0.0818,-0.0182 -3.45191,-2.81351 -7.48905,-6.21186 l 0,0 z"
       id="path5577"
       inkscape:connector-curvature="0"
       transform="translate(0,308.2677)" />
    <path
       style="fill:#000080;stroke:none"
       d="m 266.96589,366.54983 -10.94457,-9.11617 12.37249,0 12.37249,0 10.7614,8.95732 c 5.91876,4.92654 10.8493,9.04043 10.95674,9.14199 0.10743,0.10156 -5.37776,0.17304 -12.18932,0.15885 l -12.38466,-0.0258 -10.94457,-9.11618 z"
       id="path5579"
       inkscape:connector-curvature="0"
       transform="translate(0,308.2677)" />
    <path
       style="fill:#000080;stroke:none"
       d="m 291.12744,386.61769 -11.12893,-9.25919 12.20107,-0.12499 12.20106,-0.12499 11.01634,9.19293 c 6.05898,5.05611 11.01633,9.27899 11.01633,9.38418 0,0.10519 -5.43981,0.19125 -12.08847,0.19125 l -12.08847,0 -11.12893,-9.25919 z"
       id="path5581"
       inkscape:connector-curvature="0"
       transform="translate(0,308.2677)" />
    <path
       style="fill:#000080;stroke:none"
       d="m 315.65046,407.08952 c -5.5438,-4.63911 -10.38855,-8.74332 -10.76611,-9.12047 -0.60244,-0.60175 0.80763,-0.68571 11.51684,-0.68571 l 12.20334,0 10.51768,8.70907 c 5.78473,4.78999 10.71811,8.90388 10.96306,9.14199 0.2726,0.26497 -4.36508,0.42456 -11.9549,0.41139 l -12.40029,-0.0215 -10.07962,-8.43475 z"
       id="path5583"
       inkscape:connector-curvature="0"
       transform="translate(0,308.2677)" />
    <path
       style="fill:#000080;stroke:none"
       d="m 338.94706,426.46737 -11.12893,-9.25919 12.2381,-0.12506 12.2381,-0.12506 11.25902,9.38425 11.25903,9.38425 -12.36819,0 -12.3682,0 -11.12893,-9.25919 z"
       id="path5585"
       inkscape:connector-curvature="0"
       transform="translate(0,308.2677)" />
    <path
       style="fill:#000080;stroke:none"
       d="m 193.28849,327.82939 c -5.28594,-4.41255 -10.34452,-8.62838 -11.24129,-9.36853 l -1.63048,-1.34571 12.41334,0.008 12.41333,0.008 9.61081,8.02281 c 5.28594,4.41255 10.34452,8.62838 11.24129,9.36852 l 1.63048,1.34571 -12.41334,-0.008 -12.41333,-0.008 -9.61081,-8.02281 z"
       id="path5587"
       inkscape:connector-curvature="0"
       transform="translate(0,308.2677)" />
    <path
       style="fill:#000080;stroke:none"
       d="m 248.84364,328.75296 c -4.64132,-3.89053 -9.09809,-7.62594 -9.90393,-8.3009 -0.80584,-0.67497 -1.61119,-1.7019 -1.78967,-2.28206 l -0.32449,-1.05485 11.40047,0.0118 11.40047,0.0118 10.78286,8.93353 c 5.93057,4.91345 10.98327,9.1275 11.22823,9.36458 0.27125,0.26251 -4.40273,0.42296 -11.9549,0.41039 l -12.40029,-0.0207 -8.43875,-7.07369 z"
       id="path5589"
       inkscape:connector-curvature="0"
       transform="translate(0,308.2677)" />
    <path
       style="fill:#000080;stroke:none"
       d="m 273.29524,326.47063 -11.17869,-9.35548 12.3722,0 12.3722,0 10.7614,8.95016 c 5.91877,4.92259 10.96182,9.14197 11.20678,9.3764 0.26773,0.25623 -4.50063,0.41789 -11.9549,0.40531 l -12.40029,-0.0209 -11.1787,-9.35547 z"
       id="path5591"
       inkscape:connector-curvature="0"
       transform="translate(0,308.2677)" />
    <path
       style="fill:#000080;stroke:none"
       d="m 301.35145,327.14201 c -5.67272,-4.76275 -10.62295,-8.96718 -11.00052,-9.3432 -0.60155,-0.59907 0.82225,-0.68366 11.50754,-0.68366 l 12.19403,0 10.7614,8.95016 c 5.91877,4.92259 10.96182,9.14197 11.20678,9.3764 0.26772,0.25621 -4.50102,0.41299 -11.95491,0.39303 l -12.40028,-0.0332 -10.31404,-8.65953 z"
       id="path5593"
       inkscape:connector-curvature="0"
       transform="translate(0,308.2677)" />
    <path
       style="fill:#000080;stroke:none"
       d="m 328.543,327.14201 c -5.67272,-4.76275 -10.62295,-8.96718 -11.00052,-9.3432 -0.60155,-0.59907 0.8286,-0.68366 11.5588,-0.68366 l 12.24528,0 10.47574,8.71366 c 5.76165,4.79252 10.78465,9.01189 11.16222,9.3764 0.59215,0.57167 -1.01832,0.65817 -11.7205,0.62953 l -12.40698,-0.0332 -10.31404,-8.65953 z"
       id="path5595"
       inkscape:connector-curvature="0"
       transform="translate(0,308.2677)" />
    <path
       style="fill:#000080;stroke:none"
       d="m 355.89625,327.15429 c -5.76165,-4.79252 -10.78465,-9.0119 -11.16222,-9.3764 -0.59215,-0.57167 1.11799,-0.66274 12.44518,-0.66274 l 13.13167,0 10.7614,8.95016 c 5.91877,4.92259 10.96182,9.14197 11.20678,9.3764 0.26773,0.25622 -4.8103,0.42623 -12.73085,0.42623 l -13.17623,0 -10.47573,-8.71365 z"
       id="path5597"
       inkscape:connector-curvature="0"
       transform="translate(0,308.2677)" />
    <path
       style="fill:#000080;stroke:none"
       d="m 383.93672,326.47063 -11.1787,-9.35548 15.16367,0.008 15.16366,0.008 9.61081,8.02281 c 5.28594,4.41255 10.34452,8.62838 11.24128,9.36852 l 1.63049,1.34571 -15.22626,-0.0209 -15.22625,-0.0209 -11.1787,-9.35547 z"
       id="path5599"
       inkscape:connector-curvature="0"
       transform="translate(0,308.2677)" />
    <path
       style="fill:#000080;stroke:none"
       d="m 416.75411,326.47063 -11.1787,-9.35548 15.16366,0.008 15.16367,0.008 9.61081,8.02281 c 5.28594,4.41255 10.34452,8.62838 11.24128,9.36852 l 1.63049,1.34571 -15.22626,-0.0209 -15.22626,-0.0209 -11.17869,-9.35547 z"
       id="path5601"
       inkscape:connector-curvature="0"
       transform="translate(0,308.2677)" />
    <path
       style="fill:#000080;stroke:none"
       d="m 449.65414,326.59965 -11.09606,-9.25009 15.00335,-0.12375 15.00335,-0.12375 11.25746,9.38294 11.25745,9.38294 -15.16475,-0.009 -15.16475,-0.009 -11.09605,-9.25008 z"
       id="path5603"
       inkscape:connector-curvature="0"
       transform="translate(0,308.2677)" />
    <path
       style="fill:#000080;stroke:none"
       d="m 482.47143,326.59965 -11.09614,-9.25009 13.09013,-0.12451 13.09014,-0.1245 11.01576,9.19245 c 6.05866,5.05584 11.01575,9.27851 11.01575,9.3837 0,0.10518 -5.85438,0.18715 -13.00975,0.18214 l -13.00974,-0.009 -11.09615,-9.25008 z"
       id="path5605"
       inkscape:connector-curvature="0"
       transform="translate(0,308.2677)" />
    <path
       style="fill:#000080;stroke:none"
       d="m 279.8095,286.50356 -10.7591,-9.00368 10.00728,-0.12673 c 5.504,-0.0697 10.08685,-0.0471 10.18411,0.0501 0.49637,0.49638 -0.62567,1.81102 -2.46641,2.88976 -1.34687,0.78932 -2.06703,1.5369 -2.06703,2.14573 0,0.51391 -0.33395,1.44405 -0.74211,2.06698 -1.0288,1.57015 -0.47332,2.89301 1.67502,3.98901 5.06822,2.58561 14.59448,2.07676 18.81863,-1.00522 0.64321,-0.46929 1.46045,0.0245 5.15702,3.11622 2.41597,2.02064 4.7016,3.9551 5.07917,4.2988 0.57362,0.52217 -1.35332,0.62144 -11.7205,0.60382 l -12.40698,-0.0211 -10.7591,-9.00369 z"
       id="path5607"
       inkscape:connector-curvature="0"
       transform="translate(0,308.2677)" />
    <path
       style="fill:#000080;stroke:none"
       d="m 304.14292,306.75136 c -5.91877,-4.92653 -10.84931,-9.04042 -10.95674,-9.14198 -0.10744,-0.10156 5.37775,-0.18115 12.18931,-0.17687 l 12.38466,0.008 10.9465,9.1342 10.9465,9.13419 -12.37442,0 -12.37441,0 -10.7614,-8.95733 z"
       id="path5609"
       inkscape:connector-curvature="0"
       transform="translate(0,308.2677)" />
    <path
       style="fill:#000080;stroke:none"
       d="m 351.96254,346.60105 c -5.91877,-4.92653 -10.84931,-9.04043 -10.95674,-9.14199 -0.10744,-0.10156 5.37775,-0.18115 12.18931,-0.17687 l 12.38466,0.008 10.9465,9.1342 10.9465,9.1342 -12.37442,0 -12.37441,0 -10.7614,-8.95733 z"
       id="path5611"
       inkscape:connector-curvature="0"
       transform="translate(0,308.2677)" />
    <path
       style="fill:#000080;stroke:none"
       d="m 375.96228,366.65893 -10.71438,-8.99086 12.2457,-0.12501 12.2457,-0.125 9.95476,8.27879 c 5.47512,4.55334 10.37085,8.67074 10.87939,9.14979 0.90241,0.85007 0.62661,0.87017 -11.48609,0.83707 l -12.4107,-0.0339 -10.71438,-8.99087 z"
       id="path5613"
       inkscape:connector-curvature="0"
       transform="translate(0,308.2677)" />
    <path
       style="fill:#000080;stroke:none"
       d="m 401.21007,387.59893 c -5.41487,-4.52605 -10.47812,-8.73211 -11.25167,-9.34681 l -1.40646,-1.11763 12.42372,0.003 12.42373,0.003 9.6108,8.02282 c 5.28595,4.41254 10.34453,8.62838 11.24129,9.36852 l 1.63049,1.34571 -12.41334,-0.0244 -12.41334,-0.0244 -9.84522,-8.22916 z"
       id="path5615"
       inkscape:connector-curvature="0"
       transform="translate(0,308.2677)" />
    <path
       style="fill:#000080;stroke:none"
       d="m 423.98867,406.54253 -10.84163,-9.02478 12.20594,-0.125 12.20594,-0.12501 9.95476,8.27879 c 5.47513,4.55334 10.37085,8.67074 10.87939,9.14979 0.90248,0.85015 0.63157,0.87099 -11.31907,0.87099 l -12.24369,0 -10.84164,-9.02478 z"
       id="path5617"
       inkscape:connector-curvature="0"
       transform="translate(0,308.2677)" />
    <path
       style="fill:#000080;stroke:none"
       d="m 447.69621,426.32925 -11.17869,-9.35548 12.35074,0.006 12.35075,0.006 10.78285,8.93781 c 5.93057,4.9158 10.98328,9.13267 11.22824,9.37082 0.27266,0.26509 -4.36332,0.42489 -11.95491,0.41208 l -12.40028,-0.0209 -11.1787,-9.35547 z"
       id="path5619"
       inkscape:connector-curvature="0"
       transform="translate(0,308.2677)" />
    <path
       style="fill:#000080;stroke:none"
       d="m 143.65856,286.52466 -10.8991,-9.02478 12.25227,-0.12506 12.25226,-0.12506 10.74554,8.95438 c 5.91005,4.92491 10.74555,9.04234 10.74555,9.14984 0,0.10751 -5.44442,0.19546 -12.09871,0.19546 l -12.09871,0 -10.8991,-9.02478 z"
       id="path5621"
       inkscape:connector-curvature="0"
       transform="translate(0,308.2677)" />
    <path
       style="fill:#000080;stroke:none"
       d="m 198.18964,286.59211 c -5.91877,-4.92653 -10.8493,-9.04042 -10.95674,-9.14198 -0.10744,-0.10157 5.37775,-0.18116 12.18931,-0.17687 l 12.38466,0.008 10.9465,9.13419 10.9465,9.1342 -12.37442,0 -12.37441,0 -10.7614,-8.95733 z"
       id="path5623"
       inkscape:connector-curvature="0"
       transform="translate(0,308.2677)" />
    <path
       style="fill:#000080;stroke:none"
       d="m 225.239,286.39967 -10.9465,-9.1342 12.37442,0 12.37441,0 10.7614,8.95733 c 5.91877,4.92653 10.84931,9.04042 10.95674,9.14198 0.10744,0.10157 -5.37775,0.18116 -12.18931,0.17687 l -12.38466,-0.008 -10.9465,-9.13419 z"
       id="path5625"
       inkscape:connector-curvature="0"
       transform="translate(0,308.2677)" />
    <path
       style="fill:#000080;stroke:none"
       d="m 252.43055,286.39967 -10.9465,-9.1342 12.37442,0 12.37441,0 10.7614,8.95733 c 5.91877,4.92653 10.8493,9.04042 10.95674,9.14198 0.10744,0.10157 -5.37775,0.18116 -12.18931,0.17687 l -12.38466,-0.008 -10.9465,-9.13419 z"
       id="path5627"
       inkscape:connector-curvature="0"
       transform="translate(0,308.2677)" />
    <path
       style="fill:#000080;stroke:none"
       d="m 310.63686,289.55444 c -3.9178,-3.27795 -7.11008,-6.17087 -7.09395,-6.42872 0.0753,-1.20317 -0.21448,-1.60339 -2.07425,-2.86505 -2.02601,-1.37444 -2.67567,-2.01323 -2.68854,-2.64359 -0.004,-0.19338 5.31979,-0.34811 11.83053,-0.34382 l 11.8377,0.008 10.94649,9.13419 10.9465,9.1342 -13.29059,-0.0176 -13.2906,-0.0175 -7.12329,-5.9599 z"
       id="path5629"
       inkscape:connector-curvature="0"
       transform="translate(0,308.2677)" />
    <path
       style="fill:#000080;stroke:none"
       d="m 335.88048,286.39967 -10.9465,-9.1342 15.16588,0.008 15.16587,0.008 10.9465,9.13419 10.9465,9.1342 -15.16588,-0.008 -15.16587,-0.008 -10.9465,-9.13419 z"
       id="path5631"
       inkscape:connector-curvature="0"
       transform="translate(0,308.2677)" />
    <path
       style="fill:#000080;stroke:none"
       d="m 368.76522,286.52466 -10.84492,-9.02478 15.00309,-0.12375 15.0031,-0.12375 10.74396,8.95307 c 5.90919,4.92419 10.74397,9.04103 10.74397,9.14853 0,0.10751 -6.70596,0.19546 -14.90214,0.19546 l -14.90214,0 -10.84492,-9.02478 z"
       id="path5633"
       inkscape:connector-curvature="0"
       transform="translate(0,308.2677)" />
    <path
       style="fill:#000080;stroke:none"
       d="m 401.5826,286.52466 -10.84491,-9.02478 15.00309,-0.12375 15.00309,-0.12375 10.74397,8.95307 c 5.90918,4.92419 10.74397,9.04103 10.74397,9.14853 0,0.10751 -6.70597,0.19546 -14.90215,0.19546 l -14.90214,0 -10.84492,-9.02478 z"
       id="path5635"
       inkscape:connector-curvature="0"
       transform="translate(0,308.2677)" />
    <path
       style="fill:#000080;stroke:none"
       d="m 434.65798,286.83271 c -5.76166,-4.7942 -10.67616,-8.9081 -10.92111,-9.14199 -0.26701,-0.25493 4.8318,-0.42525 12.73084,-0.42525 l 13.17623,0 10.47573,8.71673 c 5.76166,4.7942 10.67616,8.9081 10.92111,9.14199 0.26701,0.25493 -4.8318,0.42525 -12.73084,0.42525 l -13.17623,0 -10.47573,-8.71673 z"
       id="path5637"
       inkscape:connector-curvature="0"
       transform="translate(0,308.2677)" />
    <path
       style="fill:#000080;stroke:none"
       d="m 393.64347,307.21531 c -5.6367,-4.67136 -10.55747,-8.78526 -10.93504,-9.14199 -0.58534,-0.55304 1.53208,-0.6486 14.37172,-0.6486 l 15.0582,0 10.47574,8.71673 c 5.76165,4.79421 10.67615,8.9081 10.92111,9.14199 0.26694,0.25488 -5.58207,0.42525 -14.5989,0.42525 l -15.04428,0 -10.24855,-8.49338 z"
       id="path5639"
       inkscape:connector-curvature="0"
       transform="translate(0,308.2677)" />
    <path
       style="fill:#000080;stroke:none"
       d="m 440.86634,346.5336 -10.84149,-9.02479 15.02025,-0.12371 15.02026,-0.12371 9.95322,8.2775 c 5.47427,4.55263 10.3693,8.66945 10.87784,9.14849 0.90221,0.84989 0.55982,0.871 -14.13199,0.871 l -15.05661,0 -10.84148,-9.02478 z"
       id="path5641"
       inkscape:connector-curvature="0"
       transform="translate(0,308.2677)" />
    <path
       style="fill:#000080;stroke:none"
       d="m 465.6728,367.23983 c -5.5438,-4.63911 -10.38855,-8.74332 -10.76612,-9.12046 -0.60243,-0.60175 1.15098,-0.68571 14.32047,-0.68571 l 15.00694,0 10.7614,8.95732 c 5.91877,4.92654 10.8493,9.04043 10.95674,9.14199 0.10744,0.10156 -6.64357,0.17497 -15.00223,0.16314 l -15.19758,-0.0215 -10.07962,-8.43476 z"
       id="path5643"
       inkscape:connector-curvature="0"
       transform="translate(0,308.2677)" />
    <path
       style="fill:#000080;stroke:none"
       d="m 488.96955,386.61769 -11.12878,-9.25919 15.02853,-0.12372 15.02853,-0.12372 7.13388,5.93757 c 3.92363,3.26566 7.3735,6.22955 7.66638,6.5864 0.36876,0.44932 0.39988,1.2391 0.10119,2.56843 -0.88093,3.92074 -0.0706,3.67342 -12.03543,3.67342 l -10.66552,0 -11.12878,-9.25919 z"
       id="path5645"
       inkscape:connector-curvature="0"
       transform="translate(0,308.2677)" />
    <path
       style="fill:#000080;stroke:none"
       d="m 513.49242,407.08952 c -5.5438,-4.63911 -10.38855,-8.74332 -10.76611,-9.12047 -0.60245,-0.60176 0.45938,-0.68517 8.67316,-0.68128 l 9.35965,0.004 -1.99248,1.19419 c -1.27033,0.76137 -1.99248,1.53037 -1.99248,2.12175 0,0.51015 -0.33395,1.43723 -0.74211,2.06016 -1.02694,1.56731 -0.47412,2.89261 1.66097,3.98185 4.91793,2.50894 15.24701,2.07175 18.39668,-0.77866 1.03862,-0.93994 1.09069,-2.64837 0.11059,-3.62847 -0.40322,-0.40322 -0.60296,-0.94372 -0.44388,-1.20113 0.21397,-0.34621 12.39021,9.32086 17.79666,14.1293 0.24496,0.21786 -6.40056,0.38643 -14.76782,0.37459 l -15.21321,-0.0215 -10.07962,-8.43475 z"
       id="path5647"
       inkscape:connector-curvature="0"
       transform="translate(0,308.2677)" />
    <path
       style="fill:#000080;stroke:none"
       d="m 536.78917,426.46737 -11.12878,-9.25919 15.01538,-0.1237 15.01537,-0.1237 11.0148,9.19164 c 6.05813,5.0554 11.01479,9.27771 11.01479,9.38289 0,0.10519 -6.70562,0.19125 -14.90139,0.19125 l -14.90139,0 -11.12878,-9.25919 z"
       id="path5649"
       inkscape:connector-curvature="0"
       transform="translate(0,308.2677)" />
    <path
       style="fill:#000080;stroke:none"
       d="m 578.26032,406.41754 -10.9465,-9.1342 13.22014,0 13.22013,0 10.73611,8.94653 c 5.90486,4.92059 10.73612,9.03448 10.73612,9.14198 0,0.10751 -5.85439,0.19196 -13.00975,0.18767 l -13.00975,-0.008 -10.9465,-9.1342 z"
       id="path5651"
       inkscape:connector-curvature="0"
       transform="translate(0,308.2677)" />
    <path
       style="fill:#000080;stroke:none"
       d="m 546.3098,407.08952 c -5.54379,-4.63911 -10.38854,-8.74332 -10.76611,-9.12047 -0.60243,-0.60175 1.14835,-0.68476 14.29901,-0.67792 l 14.98549,0.008 10.94649,9.13419 10.9465,9.1342 -15.16587,-0.0215 -15.16588,-0.0215 -10.07963,-8.43475 z"
       id="path5653"
       inkscape:connector-curvature="0"
       transform="translate(0,308.2677)" />
    <path
       style="fill:#000080;stroke:none"
       d="m 498.8418,415.68536 c 4.19008,-0.0777 11.04656,-0.0777 15.23664,0 4.19008,0.0777 0.76183,0.14127 -7.61832,0.14127 -8.38015,0 -11.8084,-0.0636 -7.61832,-0.14127 z"
       id="path5655"
       inkscape:connector-curvature="0"
       transform="translate(0,308.2677)" />
    <path
       style="fill:#000080;stroke:none"
       d="m 480.44952,406.8464 c -5.66783,-4.75998 -10.50956,-8.85893 -10.75942,-9.10878 -0.29315,-0.29316 4.86924,-0.45428 14.55528,-0.45428 l 15.00956,0 10.51768,8.70907 c 5.78473,4.78999 10.7181,8.90388 10.96306,9.14199 0.27254,0.26491 -5.45849,0.42003 -14.76782,0.39971 l -15.2132,-0.0332 -10.30514,-8.65451 z"
       id="path5657"
       inkscape:connector-curvature="0"
       transform="translate(0,308.2677)" />
    <path
       style="fill:#000080;stroke:none"
       d="m 451.53549,406.85058 c -5.76165,-4.7942 -10.67615,-8.9081 -10.92111,-9.14199 -0.267,-0.25493 4.83181,-0.42525 12.73085,-0.42525 l 13.17622,0 10.47574,8.71673 c 5.76165,4.7942 10.67615,8.9081 10.92111,9.14199 0.267,0.25493 -4.83181,0.42525 -12.73085,0.42525 l -13.17623,0 -10.47573,-8.71673 z"
       id="path5659"
       inkscape:connector-curvature="0"
       transform="translate(0,308.2677)" />
    <path
       style="fill:#000080;stroke:none"
       d="m 396.59035,406.50862 -10.71438,-8.99087 12.2457,-0.125 12.2457,-0.12501 9.95476,8.27879 c 5.47513,4.55334 10.37085,8.67074 10.87939,9.14979 0.90241,0.85008 0.62661,0.87018 -11.48609,0.83708 l -12.4107,-0.0339 -10.71438,-8.99087 z"
       id="path5661"
       inkscape:connector-curvature="0"
       transform="translate(0,308.2677)" />
    <path
       style="fill:#000080;stroke:none"
       d="m 369.80805,406.8464 c -5.66783,-4.75998 -10.50957,-8.85893 -10.75942,-9.10878 -0.29316,-0.29316 3.88388,-0.45428 11.77708,-0.45428 l 12.23136,0 10.24855,8.49338 c 5.6367,4.67137 10.55747,8.78526 10.93504,9.14199 0.58547,0.55316 -1.13913,0.64372 -11.7205,0.6154 l -12.40698,-0.0332 -10.30513,-8.65451 z"
       id="path5663"
       inkscape:connector-curvature="0"
       transform="translate(0,308.2677)" />
    <path
       style="fill:#000080;stroke:none"
       d="m 342.84201,407.08952 c -5.5438,-4.63911 -10.38855,-8.74332 -10.76611,-9.12047 -0.60244,-0.60175 0.81276,-0.68571 11.55879,-0.68571 l 12.24529,0 10.47573,8.71673 c 5.76165,4.7942 10.67615,8.9081 10.92111,9.14199 0.26701,0.25494 -4.52089,0.41663 -11.9549,0.40373 l -12.40029,-0.0215 -10.07962,-8.43475 z"
       id="path5665"
       inkscape:connector-curvature="0"
       transform="translate(0,308.2677)" />
    <path
       style="fill:#000080;stroke:none"
       d="m 287.59204,406.41754 -10.9465,-9.1342 12.37441,0 12.37442,0 10.7614,8.95733 c 5.91877,4.92653 10.8493,9.04042 10.95674,9.14198 0.10743,0.10157 -5.37776,0.18116 -12.18932,0.17687 l -12.38465,-0.008 -10.9465,-9.1342 z"
       id="path5667"
       inkscape:connector-curvature="0"
       transform="translate(0,308.2677)" />
    <path
       style="fill:#ff0000;stroke:none"
       d="m 318.31899,386.61769 -11.12893,-9.25919 12.2381,-0.12507 12.23809,-0.12506 11.25903,9.38426 11.25903,9.38425 -12.36819,0 -12.3682,0 -11.12893,-9.25919 z"
       id="path5669"
       inkscape:connector-curvature="0"
       transform="translate(0,308.2677)" />
    <path
       style="fill:#ff0000;stroke:none"
       d="m 295.02239,367.23983 c -5.5438,-4.63911 -10.38855,-8.74332 -10.76611,-9.12046 -0.60244,-0.60176 0.81276,-0.68571 11.55879,-0.68571 l 12.24529,0 10.47573,8.71673 c 5.76165,4.7942 10.67615,8.90809 10.92111,9.14198 0.26701,0.25495 -4.52089,0.41664 -11.9549,0.40374 l -12.40029,-0.0215 -10.07962,-8.43476 z"
       id="path5671"
       inkscape:connector-curvature="0"
       transform="translate(0,308.2677)" />
    <path
       style="fill:#ff0000;stroke:none"
       d="m 270.21578,346.5336 -10.84164,-9.02479 12.2356,-0.12506 12.2356,-0.12506 10.74554,8.95439 c 5.91005,4.92491 10.74554,9.04234 10.74554,9.14984 0,0.1075 -5.46277,0.19546 -12.1395,0.19546 l -12.13951,0 -10.84163,-9.02478 z"
       id="path5673"
       inkscape:connector-curvature="0"
       transform="translate(0,308.2677)" />
    <path
       style="fill:#ff0000;stroke:none"
       d="m 297.40733,346.5336 -10.84164,-9.02479 12.2356,-0.12506 12.2356,-0.12506 10.74554,8.95439 c 5.91005,4.92491 10.74554,9.04234 10.74554,9.14984 0,0.1075 -5.46278,0.19546 -12.1395,0.19546 l -12.13951,0 -10.84163,-9.02478 z"
       id="path5675"
       inkscape:connector-curvature="0"
       transform="translate(0,308.2677)" />
    <path
       style="fill:#ff0000;stroke:none"
       d="m 324.77099,346.60105 c -5.91877,-4.92653 -10.8493,-9.04043 -10.95674,-9.14199 -0.10744,-0.10156 5.37775,-0.18115 12.18931,-0.17687 l 12.38466,0.008 10.9465,9.1342 10.9465,9.1342 -12.37442,0 -12.37441,0 -10.7614,-8.95733 z"
       id="path5677"
       inkscape:connector-curvature="0"
       transform="translate(0,308.2677)" />
    <path
       style="fill:#ff0000;stroke:none"
       d="m 348.77073,366.65893 -10.71438,-8.99086 12.2457,-0.12501 12.2457,-0.125 9.95476,8.27879 c 5.47513,4.55334 10.37085,8.67074 10.87939,9.14979 0.90241,0.85007 0.62661,0.87017 -11.48609,0.83707 l -12.4107,-0.0339 -10.71438,-8.99087 z"
       id="path5679"
       inkscape:connector-curvature="0"
       transform="translate(0,308.2677)" />
    <path
       style="fill:#ff0000;stroke:none"
       d="m 374.25293,387.83832 c -5.28594,-4.41254 -10.34452,-8.62838 -11.24128,-9.36852 l -1.63049,-1.34571 12.41334,0.008 12.41334,0.008 9.61081,8.02282 c 5.28594,4.41254 10.34452,8.62838 11.24128,9.36852 l 1.63049,1.34571 -12.41334,-0.008 -12.41334,-0.008 -9.61081,-8.02281 z"
       id="path5681"
       inkscape:connector-curvature="0"
       transform="translate(0,308.2677)" />
    <path
       style="fill:#ff0000;stroke:none"
       d="m 345.57599,386.60858 -11.0962,-9.25008 12.18901,-0.12507 12.189,-0.12506 11.25903,9.38426 11.25902,9.38425 -12.35183,-0.009 -12.35183,-0.009 -11.0962,-9.25009 z"
       id="path5683"
       inkscape:connector-curvature="0"
       transform="translate(0,308.2677)" />
    <path
       style="fill:#ff0000;stroke:none"
       d="m 322.24678,367.26682 c -5.52573,-4.61698 -10.37048,-8.7182 -10.76611,-9.11383 -0.64656,-0.64656 0.51944,-0.71933 11.52595,-0.71933 l 12.24529,0 10.47573,8.71673 c 5.76165,4.7942 10.67615,8.90809 10.92111,9.14198 0.267,0.25494 -4.52111,0.41398 -11.9549,0.39711 l -12.40029,-0.0281 -10.04678,-8.39451 z"
       id="path5685"
       inkscape:connector-curvature="0"
       transform="translate(0,308.2677)" />
  </g>
</svg>
