<?xml version="1.0" encoding="utf-8"?>
<!-- Generator: Adobe Illustrator 18.1.1, SVG Export Plug-In . SVG Version: 6.00 Build 0)  -->
<svg version="1.1" id="Layer_1" xmlns="http://www.w3.org/2000/svg" xmlns:xlink="http://www.w3.org/1999/xlink" x="0px" y="0px"
	 viewBox="0 0 278.3 281.1" enable-background="new 0 0 278.3 281.1" xml:space="preserve">
<g>
	<g>
		<defs>
			<rect id="SVGID_1_" x="0.5" y="0.5" width="277.3" height="280.1"/>
		</defs>
		<clipPath id="SVGID_2_">
			<use xlink:href="#SVGID_1_"  overflow="visible"/>
		</clipPath>
		<rect x="0.5" y="1.6" clip-path="url(#SVGID_2_)" fill="#CEECF2" width="277.3" height="279"/>
		<path clip-path="url(#SVGID_2_)" fill="#BEE6F4" d="M108.6-6.3c-9-0.9-16.7,7.6-18.8,16.6c-2.1,9-5.5,17.7-4.8,27s5.1,20.1-0.9,27
			c-3.3,3.7-7.8,6.1-12.5,7.6c-13.3,4.1-27.5,1.2-41.2-0.4s-29-1.3-39.7,7.8c-3.7,3.1-6.5,7.1-9.2,11.1
			c-18.2,27.4-29.3,59.8-31.7,92.9c-0.8,11.2,0.4,24.6,9.7,30.5c5.3,3.3,12,3.3,18.2,3.2c13.4-0.3,26.8-0.6,40.2-0.9
			c1.8,0,3.7-0.1,5.4,0.6c2.3,0.8,4,2.7,5.4,4.7c8.1,11,10.5,25.9,19.8,35.9c4,4.4,9.1,7.5,14.2,10.6c6.1,3.8,12.2,7.5,18.3,11.3
			c4.7,2.9,9.5,5.9,14.9,7.3c5.9,1.6,12.1,1.2,18.2,0.9c10.9-0.7,21.8-1.3,32.6-2c2-0.1,4.1-0.3,5.8-1.4c1.6-1.1,2.6-2.9,4.3-3.9
			c2.8-1.7,6.4-0.7,9.4,0.6c6.9,3,13.3,7.1,18.9,12.2c39.3-2.5,78.8-3.1,118.2-2.1c7.5,0.2,15.9,0,20.9-5.7
			c2.7-3.1,3.8-7.4,4.3-11.5c2.1-17.3-4.8-34.4-13.3-49.6c-8.5-15.1-18.7-29.5-24.2-46c-8.8-26.3-4.7-54.9-4.4-82.7
			c0.1-6.7-0.1-13.4-1.9-19.8c-1.8-6.4-5.6-12.5-11.2-15.8c-5.2-3.1-11.4-3.5-17.4-3.8c-14.8-0.8-29.5-1-44.3-0.8
			c-6.9,0.1-13.9-3.6-18.7-8.6c-5.9-6-8.5-14.6-12.9-21.8C173,12.9,161.1,4.8,149.3-2.2c-6.5-3.9-13.2-7.6-20.5-9
			C121.5-12.6,114.1-11.4,108.6-6.3z"/>
		<path clip-path="url(#SVGID_2_)" fill="#85D4F0" d="M124.5,17.3c-7.9-0.8-15.4,11.3-17.3,19c-1.9,7.7-4.8,15.2-4.2,23.1
			s4.5,17.2-0.8,23.1c-2.9,3.2-6.8,5.3-10.9,6.5c-11.6,3.5-24.1,1-36.1-0.3c-12.1-1.3-25.4-1.1-34.8,6.7c-3.2,2.7-5.7,6.1-8.1,9.5
			c-16,23.5-25.6,51.2-27.8,79.5c-0.7,9.6,0.3,21,8.5,26c4.7,2.9,10.5,2.8,16,2.7c11.8-0.3,23.5-0.5,35.3-0.8c1.6,0,3.2-0.1,4.7,0.5
			c2,0.7,3.5,2.3,4.8,4c7.1,9.4,9.2,22.2,17.3,30.7c3.5,3.7,8,6.4,12.4,9.1c5.4,3.2,10.7,6.4,16.1,9.7c4.1,2.5,8.4,5,13,6.2
			c5.2,1.3,10.6,1,15.9,0.7c9.5-0.6,19.1-1.1,28.6-1.7c1.7-0.1,3.6-0.2,5-1.2c1.4-0.9,7.7-3.7,9.3-4c11.1-1.7,6,2.5,8.7,3.7
			c6,2.5,5.6,3.5,10.5,7.9c34.5-2.1,69-2.7,103.6-1.8c6.5,0.2,14,0,18.3-4.8c2.4-2.7,3.3-6.3,3.8-9.8c1.8-14.8-4.2-29.4-11.6-42.4
			c-7.4-12.9-16.4-25.2-21.2-39.3c-7.7-22.5-4.1-46.9-3.8-70.7c0.1-5.7-0.1-11.5-1.7-16.9c-1.6-5.5-4.9-10.6-9.8-13.5
			c-4.6-2.6-10-3-15.3-3.3c-12.9-0.7-25.9-0.9-38.8-0.7c-6,0.1-12.1-3.1-16.4-7.4c-5.1-5.2-7.4-12.5-11.3-18.7
			c-6.3-10.2-16.7-17-27.1-23c-5.7-3.3-11.5-6.5-18-7.7C135,16.6,129.4,12.9,124.5,17.3z"/>
		<g clip-path="url(#SVGID_2_)">
			<g>
				<path fill="#2BB673" d="M120.5,68.7c1.3,13.7,20.1,20.8,33.4,17.5c2.2-0.5,4.3-1.4,6-2.8c3.1-2.7,3.9-7.1,4.6-11.2
					c0.6-3.9,1.3-8,0.3-11.9c-0.9-3.7-3.3-6.9-4.1-10.6c-0.8-3.9,0-8.1-1.7-11.7c-1.3-2.8-4-4.7-6.7-6.2c-3.2-1.8-6.6-3.2-10.2-3.6
					c-5.5-0.5-11.1,1.8-15,5.7s-6,9.5-6.2,15c-0.2,6,1.4,12.2,0,18C120.7,67.4,120.5,68.3,120.5,68.7z"/>
				<g>
					<path fill="#2BB673" d="M118,68.7c1.4,10.5,10.1,17.1,19.9,19.6c9.9,2.5,23.6,1.8,27.6-9.4c2-5.7,3.2-13.4,1.7-19.3
						c-0.9-3.4-2.9-6.4-3.9-9.8c-1.1-4.1-0.2-8.5-1.9-12.5c-4.6-10.6-21.3-14.2-30.8-9.1c-5.9,3.2-10.1,9.1-11.6,15.6
						c-0.9,4.1-0.6,8.2-0.3,12.4C119,60.6,118.5,64.4,118,68.7c-0.4,3.2,4.6,3.2,5,0c0.4-3,1-5.8,0.9-8.9c-0.1-3.3-0.6-6.6-0.6-10
						c0.1-7.1,3.4-14,9.8-17.3c6.7-3.5,14.4-1.3,20.2,2.9c5.9,4.3,3.6,12.3,6.2,18.5c1.5,3.6,3.2,6.5,3.3,10.5
						c0.1,3.2-0.5,6.6-1.2,9.8c-1.7,7.8-7.4,10.3-14.9,10.3c-9.5-0.1-22.3-5-23.7-15.8C122.6,65.6,117.6,65.5,118,68.7z"/>
				</g>
			</g>
			<text transform="matrix(1 0 0 1 137.7886 64.8585)" font-family="'OpenSans-Bold'" font-size="13.7437">1</text>
		</g>
		<g clip-path="url(#SVGID_2_)">
			<g>
				<path fill="#2BB673" d="M39.5,118.2c15.1,1,26-6.9,38.8,1.2c6.4,4.1,10.5,11.3,11.5,18.8c0.5,4.2,0.1,8.7-2.3,12.2
					c-3.2,4.6-9,6.6-13.1,10.5c-6.6,6.5-7,16.8-6.9,26c0,1.8,0,3.6-0.6,5.2c-1.6,3.9-6.3,5.5-10.5,5.7c-13.7,0.7-26.9-8-33.9-19.9
					s-8.4-26.3-6.8-40c0.7-5.5,2.1-11.5,6.4-15c3.3-2.7,2-0.4,5.6-2.7C28.1,120,39.1,118.2,39.5,118.2z"/>
				<g>
					<path fill="#2BB673" d="M39.5,120.7c8.1,0.4,15.8-1.9,23.8-2.4c9.3-0.6,17.6,4,21.7,12.5c1.8,3.7,2.8,8.1,2.4,12.3
						c-0.5,5.7-4.2,8.6-8.6,11.6c-5.8,3.8-10,8.1-12.1,14.9c-1,3.3-1.4,6.7-1.6,10.1c-0.3,4.2,1.2,11.4-2.7,14.1
						c-6.6,4.5-17.6,0.8-23.7-2.8c-15.6-9.1-21.5-27.4-21.2-44.6c0.2-8.2,0.6-18.6,8.7-22.5C30.3,121.8,35.1,121,39.5,120.7
						c3.2-0.3,3.2-5.3,0-5c-5,0.4-9.9,1.4-14.5,3.2c-7.4,2.9-10.3,9.3-11.5,17c-3,19.8,1.1,42.4,17.4,55.5
						C41.7,200.1,70,208,70,186.2c0-4.9,0-10,1.4-14.8c1.7-6.1,5.4-9.6,10.6-13c8.2-5.4,11.9-12.5,10-22.5
						c-1.9-10-8.9-18.7-18.8-21.8c-10.9-3.4-22.6,2-33.7,1.4C36.3,115.5,36.3,120.5,39.5,120.7z"/>
				</g>
			</g>
			<text transform="matrix(1 0 0 1 44.3344 158.0099)" font-family="'OpenSans-Bold'" font-size="13.7437">2</text>
		</g>
		<g clip-path="url(#SVGID_2_)">
			<g>
				<path fill="#2BB673" d="M110.7,150.9c-0.9,11.2-0.7,20.8,7.1,28.9c7.6,8.1,20.4,8.6,31.2,6.4c8.5-1.7,17.1-5,22.9-11.5
					c7.5-8.3,9.1-20.1,10.4-31.2c0.3-2.2,0.5-4.3,0.1-6.5c-0.4-2.5-1.7-4.8-3.4-6.7c-4-4.6-10-6.9-16.1-7.5c-6-0.6-12.1,0.5-18,1.9
					c-7.8,1.8-18.1-1.8-22.6,4.9c-1.7,2.5-4.7,10-6.6,12.3c-1.9,2.3-2.2,0.3-3.7,4.6L110.7,150.9z"/>
				<g>
					<path fill="#2BB673" d="M108.2,150.9c-0.6,8.2-0.8,16.6,3.1,24.1c3.7,7.2,10.3,12.1,18.1,13.8c15.1,3.5,35.6-1.5,45.5-13.9
						c5.6-7,7.7-15.8,9-24.5c1.2-8.5,2.6-16.6-4.1-23.1c-6.3-6.2-15.6-7.8-24-7.1c-4.7,0.4-9.3,1.9-14,2.3c-4,0.4-7.9-0.1-11.9,0.4
						c-8.4,1-10.6,6.9-14.1,13.7c-1.4,2.7-3.2,3.8-4.8,6c-1.5,2.1-2,5.1-2.7,7.5c-0.9,3.1,3.9,4.4,4.8,1.3c0.4-1.4,0.7-3,1.3-4.3
						c0.8-2,2-2.3,3.3-3.9c3.1-3.6,3.9-8.7,6.8-12.4c3.8-5,12.5-2.8,18-3.3c8-0.8,15.4-3.6,23.6-1.8c8.6,1.9,14.8,7.8,13.8,16.9
						c-0.8,7.7-1.8,15.8-5,22.9c-6.3,13.8-22.5,19.4-36.8,19.3c-8.5-0.1-16.6-3-21.3-10.5c-4.4-7-4.1-15.5-3.5-23.4
						C113.5,147.7,108.5,147.7,108.2,150.9z"/>
				</g>
			</g>
			<text transform="matrix(1 0 0 1 142.6342 156.4553)" font-family="'OpenSans-Bold'" font-size="12">3</text>
		</g>
		<g clip-path="url(#SVGID_2_)">
			<g>
				<path fill="#2BB673" d="M229,121.3c-0.8,0.5-1,1.5-1.3,2.4c-2.7,7.6-5.4,15.2-8.1,22.8c-1.2,3.5-2.5,7.1-2.1,10.8
					c0.5,4.5,3.3,8.5,6.6,11.9c11.9,12.1,30.9,18.1,48.5,15.3c0.6-0.1,1.2-0.2,1.6-0.5c1.2-0.8,0.9-2.5,0.5-3.8
					c-7.7-24.5,10.1-62-11.5-75.5C255.1,99.4,236.8,115.9,229,121.3z"/>
				<g>
					<path fill="#2BB673" d="M227.2,119.5c-2.7,3.4-3.6,8.2-5.1,12.2c-2.1,5.8-4.5,11.6-6.1,17.5c-2.7,9.6,1.3,17.2,8.5,23.6
						c6.8,6.1,15.2,10.4,24,12.6c4.3,1.1,8.7,1.7,13.1,1.9c3.8,0.1,9.6,0.6,13.1-1.2c2.4-1.2,3.1-3.3,2.7-5.9
						c-0.7-4.2-1.9-8.1-2.1-12.5c-0.4-8.4,0.5-16.8,1.2-25.2c1-13.3,1.9-30-10-39.1c-5.7-4.3-12.1-2.2-17.9,1
						c-7.5,4-13.8,9.7-20.7,14.5c-2.6,1.8-0.1,6.2,2.5,4.3c4.5-3.2,8.8-6.7,13.3-9.8c4.3-3,9.9-7.2,15.3-7.5
						c5.4-0.3,9.5,6.3,11,10.8c2,5.7,2.1,12,1.9,18c-0.4,12.6-2.8,25.4-1.2,38c0.3,2,2,5.9,1.6,7.8c-0.6,2.8-9.6,1.9-12.2,1.7
						c-8.1-0.5-16.1-2.9-23.2-6.8c-8.1-4.5-18.7-12.6-16.4-23.1c1-4.8,3.1-9.5,4.8-14.1c0.9-2.6,1.9-5.3,2.8-7.9
						c0.8-2.3,1.3-5.5,2.8-7.4C232.7,120.5,229.2,117,227.2,119.5z"/>
				</g>
			</g>
			<text transform="matrix(1 0 0 1 246.2203 154.9435)" font-family="'OpenSans-Bold'" font-size="13.7437">4</text>
		</g>
		<g clip-path="url(#SVGID_2_)">
			<g>
				<path fill="#2BB673" d="M150.1,260.6c-4.3,1.6-8.9,2.4-13.5,1.8c-4.4-0.5-8.5-2.7-12.3-5.1c-9.1-5.7-17.9-14.4-18-25.1
					c0-1.7,0.2-3.5,1.1-5c1-1.7,2.8-2.8,4.5-3.8c13.1-7.2,28.6-9,43.6-8.7c3.6,0.1,7.3,0.3,10.3,2c6.5,3.8,7.5,12.5,7.7,20
					c0.2,4.6,7.8,5,1,12.4C170.1,254.2,156.5,258.3,150.1,260.6z"/>
				<g>
					<path fill="#2BB673" d="M149.4,258.2c-9.4,3.1-16.9,1.6-25-3.8c-6.2-4.1-12.5-9.8-14.7-17.2c-1.6-5.2-0.7-9.3,4.4-12
						c3.6-1.9,7.4-3.4,11.3-4.6c8.1-2.4,16.6-3.3,25-3.4c8.1-0.1,16.5-0.3,19.3,8.8c1.4,4.6,0.1,10.7,2.8,14.7
						c1.3,1.9,2.9,2.4,1.8,4.8c-1.3,2.8-4.9,4.6-7.5,5.9C161.3,254.3,155.3,256.1,149.4,258.2c-3,1.1-1.7,5.9,1.3,4.8
						c8.5-3,27.7-7,29.1-18.2c0.2-1.7-0.2-3.1-1.2-4.5c-1.6-2.4-2.5-3.2-2.7-6.3c-0.4-6-1.4-12.7-5.8-17.1c-5.2-5.2-13-4.9-19.8-4.7
						c-8.6,0.2-17.2,1.1-25.5,3.4c-6.2,1.7-16.1,4.4-19.6,10.4c-3.2,5.5-0.9,13.3,2.1,18.4c4,6.8,10.5,12.1,17.1,16
						c8.4,5,16.9,5.8,26.2,2.6C153.8,262,152.5,257.2,149.4,258.2z"/>
				</g>
			</g>
			<text transform="matrix(1 0 0 1 136.1313 242.4901)" font-family="'OpenSans-Bold'" font-size="13.7437">5</text>
		</g>
		<g clip-path="url(#SVGID_2_)">
			<g>
				<path fill="#2BB673" d="M201.8,274c-1.3-13.6-2.1-28.9,5.2-39.5c3.8-5.4,9.3-8.8,14.8-11.3c8-3.5,16.4-5.5,25-5.7
					c2.7-0.1,5.5,0,8.1,1.1c4.2,1.7,7.4,5.9,10,10.2c4.9,8.2,8.2,17.6,9.7,27.4c0.6,3.9,0.7,8.6-1.9,11.2c-1.5,1.5-3,7.2-5,7.5
					c-13.4,2-28.5,0.2-41.9-0.8c-7.6-0.6-10.1-1.5-17.4,0.8"/>
				<g>
					<path fill="#2BB673" d="M204.3,274c-1.5-17.2-2.6-37,14.7-46.6c8.4-4.6,18.3-7.2,27.8-7.4c10.4-0.2,15.1,7.4,19.2,16
						c3.3,7.1,7.5,17.6,6.5,25.7c-0.4,3-2.8,6-4.2,8.7c-0.3,0.5-0.7,1.8-1.2,2.2c-1.4,1-6.5,0.6-8.3,0.7c-9.2,0.4-18.4-0.5-27.6-1.2
						c-8-0.7-15.6-1.9-23.4,0.5c-3.1,0.9-1.8,5.8,1.3,4.8c7.8-2.4,15.9-0.8,23.9-0.2c9.2,0.8,18.4,1.5,27.6,1
						c2.7-0.2,6.9,0.1,9.2-1.5c2.1-1.4,2.7-4.2,3.9-6.2c1.2-2.2,2.7-3.7,3.3-6.2c0.8-3.1,0.4-6.4-0.2-9.6c-1.3-8.2-4-16.2-7.8-23.5
						c-3-5.8-7-12.3-13.3-14.9c-7-2.9-16.2-1.1-23.3,0.6c-7.7,1.9-15.6,5-21.8,10c-14,11.4-12.9,30.9-11.5,47.1
						C199.6,277.2,204.6,277.2,204.3,274L204.3,274z"/>
				</g>
			</g>
			<text transform="matrix(0.9615 0 0 1 234.874 253.3439)" font-family="'OpenSans-Bold'" font-size="13.7437">6</text>
		</g>
		<g clip-path="url(#SVGID_2_)">
			<rect x="0.5" y="0" fill="#FFFFFF" width="69.3" height="5.7"/>
			<rect x="69.8" y="0" fill="#6D6E71" width="69.3" height="5.7"/>
			<rect x="139.2" y="0" fill="#FFFFFF" width="69.3" height="5.7"/>
			<rect x="208.5" y="0" fill="#6D6E71" width="69.3" height="5.7"/>
		</g>
		<g clip-path="url(#SVGID_2_)">
			<rect x="0.5" y="274.9" fill="#FFFFFF" width="69.3" height="5.7"/>
			<rect x="69.8" y="274.9" fill="#6D6E71" width="69.3" height="5.7"/>
			<rect x="139.2" y="274.9" fill="#FFFFFF" width="69.3" height="5.7"/>
			<rect x="208.5" y="274.9" fill="#6D6E71" width="69.3" height="5.7"/>
		</g>
		<g clip-path="url(#SVGID_2_)">
			<rect x="0.5" y="208.5" fill="#FFFFFF" width="5.7" height="69.3"/>
			<rect x="0.5" y="139.2" fill="#6D6E71" width="5.7" height="69.3"/>
			<rect x="0.5" y="69.8" fill="#FFFFFF" width="5.7" height="69.3"/>
			<rect x="0.5" y="0.5" fill="#6D6E71" width="5.7" height="69.3"/>
		</g>
		<g clip-path="url(#SVGID_2_)">
			<rect x="272.2" y="211.3" fill="#FFFFFF" width="5.7" height="69.3"/>
			<rect x="272.2" y="142" fill="#6D6E71" width="5.7" height="69.3"/>
			<rect x="272.2" y="72.6" fill="#FFFFFF" width="5.7" height="69.3"/>
			<rect x="272.2" y="3.3" fill="#6D6E71" width="5.7" height="69.3"/>
		</g>
	</g>
	<rect x="0.5" y="0.5" fill="none" stroke="#6D6E71" stroke-miterlimit="10" width="277.3" height="280.1"/>
</g>
</svg>
