<?xml version="1.0" encoding="utf-8"?>
<!-- Generator: Adobe Illustrator 16.0.4, SVG Export Plug-In . SVG Version: 6.00 Build 0)  -->
<!DOCTYPE svg PUBLIC "-//W3C//DTD SVG 1.1//EN" "http://www.w3.org/Graphics/SVG/1.1/DTD/svg11.dtd">
<svg version="1.1" id="Layer_1" xmlns="http://www.w3.org/2000/svg" xmlns:xlink="http://www.w3.org/1999/xlink" x="0px" y="0px"
	 width="230px" height="225.5px" viewBox="0 0 230 225.5" enable-background="new 0 0 230 225.5" xml:space="preserve">
<text transform="matrix(1 0 0 1 107.2686 16.6133)" font-family="'MyriadPro-Regular'" font-size="12">Tony</text>
<text transform="matrix(1 0 0 1 3.5693 218.6548)" font-family="'MyriadPro-Regular'" font-size="12">Alberto</text>
<text transform="matrix(1 0 0 1 50.1431 218.6548)" font-family="'MyriadPro-Regular'" font-size="12">Donnie</text>
<text transform="matrix(1 0 0 1 96.7266 218.6548)" font-family="'MyriadPro-Regular'" font-size="12">Vincenzo</text>
<text transform="matrix(1 0 0 1 32.4453 83.9604)" font-family="'MyriadPro-Regular'" font-size="12">Lucky</text>
<text transform="matrix(1 0 0 1 115.293 83.833)" font-family="'MyriadPro-Regular'" font-size="12">Al</text>
<text transform="matrix(1 0 0 1 182.457 83.9604)" font-family="'MyriadPro-Regular'" font-size="12">Vito</text>
<text transform="matrix(1 0 0 1 29.3496 151.3076)" font-family="'MyriadPro-Regular'" font-size="12">Mickey</text>
<text transform="matrix(1 0 0 1 101.3652 151.3076)" font-family="'MyriadPro-Regular'" font-size="12">Frankie</text>
<text transform="matrix(1 0 0 1 203.1543 151.3076)" font-family="'MyriadPro-Regular'" font-size="12">Jack</text>
<text transform="matrix(1 0 0 1 146.0449 151.3076)" font-family="'MyriadPro-Regular'" font-size="12">Riccardo</text>
<line fill="none" stroke="#000000" stroke-width="2.3752" stroke-miterlimit="10" x1="119.7" y1="22.058" x2="119.7" y2="65.464"/>
<line fill="none" stroke="#000000" stroke-width="2" stroke-miterlimit="10" x1="46.911" y1="94.167" x2="46.911" y2="132.942"/>
<line fill="none" stroke="#000000" stroke-width="2.3752" stroke-miterlimit="10" x1="119.7" y1="160.153" x2="119.7" y2="203.559"/>
<line fill="none" stroke="#000000" stroke-width="2" stroke-miterlimit="10" x1="46.911" y1="160.153" x2="46.911" y2="190.928"/>
<line fill="none" stroke="#000000" stroke-width="2" stroke-miterlimit="10" x1="119.695" y1="94.167" x2="119.695" y2="132.942"/>
<polyline fill="none" stroke="#000000" stroke-width="2" stroke-miterlimit="10" points="192.489,65.464 192.489,52.833 
	46.911,52.833 46.911,65.464 "/>
<polyline fill="none" stroke="#000000" stroke-width="2" stroke-miterlimit="10" points="68.503,203.559 68.503,190.928 
	22.319,190.928 22.319,203.559 "/>
<line fill="none" stroke="#000000" stroke-width="2" stroke-miterlimit="10" x1="192.177" y1="89.536" x2="192.177" y2="120.311"/>
<polyline fill="none" stroke="#000000" stroke-width="2" stroke-miterlimit="10" points="213.769,132.942 213.769,120.311 
	167.584,120.311 167.584,132.942 "/>
</svg>
