<?xml version="1.0" encoding="UTF-8" standalone="no"?>
<!-- Created with Inkscape (http://www.inkscape.org/) -->

<svg
   xmlns:dc="http://purl.org/dc/elements/1.1/"
   xmlns:cc="http://creativecommons.org/ns#"
   xmlns:rdf="http://www.w3.org/1999/02/22-rdf-syntax-ns#"
   xmlns:svg="http://www.w3.org/2000/svg"
   xmlns="http://www.w3.org/2000/svg"
   xmlns:xlink="http://www.w3.org/1999/xlink"
   xmlns:sodipodi="http://sodipodi.sourceforge.net/DTD/sodipodi-0.dtd"
   xmlns:inkscape="http://www.inkscape.org/namespaces/inkscape"
   width="405.38605"
   height="173.29877"
   id="svg3396"
   version="1.1"
   inkscape:version="0.48.4 r9939"
   sodipodi:docname="2014-CH-04-task.svg">
  <defs
     id="defs3398">
    <linearGradient
       x1="165.26433"
       y1="21.361534"
       x2="165.26433"
       y2="201.18958"
       id="linearGradient3421"
       xlink:href="#SVGID_1_"
       gradientUnits="userSpaceOnUse" />
    <linearGradient
       gradientUnits="userSpaceOnUse"
       id="SVGID_1_"
       y2="162.15089"
       x2="255.5396"
       y1="13.4697"
       x1="255.5396">
      <stop
         offset="0"
         style="stop-color:#ffffff;stop-opacity:1"
         id="stop258" />
      <stop
         offset="1"
         style="stop-color:#ff9e10;stop-opacity:1"
         id="stop260" />
    </linearGradient>
    <linearGradient
       x1="199.73026"
       y1="25.964594"
       x2="216.08746"
       y2="180.06682"
       id="linearGradient5011"
       xlink:href="#SVGID_1_-3"
       gradientUnits="userSpaceOnUse" />
    <linearGradient
       x1="220.4995"
       y1="19.913601"
       x2="220.4995"
       y2="153.771"
       id="SVGID_1_-3"
       gradientUnits="userSpaceOnUse">
      <stop
         id="stop4970"
         style="stop-color:#ffffff;stop-opacity:1"
         offset="0.23630001" />
      <stop
         id="stop4972"
         style="stop-color:#ff9e10;stop-opacity:1"
         offset="1" />
    </linearGradient>
    <linearGradient
       x1="150.95201"
       y1="-22.383852"
       x2="252.20032"
       y2="204.04417"
       id="linearGradient3125"
       xlink:href="#SVGID_1_-5"
       gradientUnits="userSpaceOnUse" />
    <linearGradient
       x1="200.5"
       y1="13.8989"
       x2="200.5"
       y2="150.3159"
       id="SVGID_1_-5"
       gradientUnits="userSpaceOnUse">
      <stop
         id="stop3099"
         style="stop-color:#ffffff;stop-opacity:1"
         offset="0.1374" />
      <stop
         id="stop3101"
         style="stop-color:#ff9e10;stop-opacity:1"
         offset="1" />
    </linearGradient>
    <linearGradient
       inkscape:collect="always"
       xlink:href="#SVGID_1_-5"
       id="linearGradient4355"
       gradientUnits="userSpaceOnUse"
       x1="150.95201"
       y1="-22.383852"
       x2="252.20032"
       y2="204.04417"
       gradientTransform="matrix(0.24477307,0,0,0.24477307,377.18178,188.8051)" />
    <linearGradient
       gradientUnits="userSpaceOnUse"
       id="linearGradient3451"
       y2="162.15089"
       x2="255.5396"
       y1="13.4697"
       x1="255.5396">
      <stop
         offset="0"
         style="stop-color:#ffffff;stop-opacity:1"
         id="stop3453" />
      <stop
         offset="1"
         style="stop-color:#ff9e10;stop-opacity:1"
         id="stop3455" />
    </linearGradient>
    <linearGradient
       inkscape:collect="always"
       xlink:href="#SVGID_1_"
       id="linearGradient6798"
       gradientUnits="userSpaceOnUse"
       gradientTransform="matrix(0.23491779,0,0,0.23491779,174.07658,171.60677)"
       x1="165.26433"
       y1="21.361534"
       x2="165.26433"
       y2="201.18958" />
    <linearGradient
       inkscape:collect="always"
       xlink:href="#SVGID_1_-3"
       id="linearGradient6818"
       gradientUnits="userSpaceOnUse"
       x1="199.73026"
       y1="25.964594"
       x2="216.08746"
       y2="180.06682"
       gradientTransform="matrix(0.25622794,0,0,0.25622794,159.44882,42.78622)" />
    <linearGradient
       inkscape:collect="always"
       xlink:href="#SVGID_1_-3"
       id="linearGradient7167"
       gradientUnits="userSpaceOnUse"
       gradientTransform="matrix(0.25622794,0,0,0.25622794,159.44882,42.78622)"
       x1="199.73026"
       y1="25.964594"
       x2="216.08746"
       y2="180.06682" />
    <linearGradient
       inkscape:collect="always"
       xlink:href="#SVGID_1_-3"
       id="linearGradient7213"
       gradientUnits="userSpaceOnUse"
       gradientTransform="matrix(0.25622794,0,0,0.25622794,159.44882,42.78622)"
       x1="199.73026"
       y1="25.964594"
       x2="216.08746"
       y2="180.06682" />
    <linearGradient
       inkscape:collect="always"
       xlink:href="#SVGID_1_-3"
       id="linearGradient7241"
       gradientUnits="userSpaceOnUse"
       gradientTransform="matrix(0.25622794,0,0,0.25622794,159.44882,42.78622)"
       x1="199.73026"
       y1="25.964594"
       x2="216.08746"
       y2="180.06682" />
    <linearGradient
       inkscape:collect="always"
       xlink:href="#SVGID_1_"
       id="linearGradient7285"
       gradientUnits="userSpaceOnUse"
       gradientTransform="matrix(0.23491779,0,0,0.23491779,174.07658,171.60677)"
       x1="165.26433"
       y1="21.361534"
       x2="165.26433"
       y2="201.18958" />
    <linearGradient
       inkscape:collect="always"
       xlink:href="#SVGID_1_"
       id="linearGradient7307"
       gradientUnits="userSpaceOnUse"
       gradientTransform="matrix(0.23491779,0,0,0.23491779,174.07658,171.60677)"
       x1="165.26433"
       y1="21.361534"
       x2="165.26433"
       y2="201.18958" />
    <linearGradient
       inkscape:collect="always"
       xlink:href="#SVGID_1_-5"
       id="linearGradient7333"
       gradientUnits="userSpaceOnUse"
       gradientTransform="matrix(0.24477307,0,0,0.24477307,377.18178,188.8051)"
       x1="150.95201"
       y1="-22.383852"
       x2="252.20032"
       y2="204.04417" />
  </defs>
  <sodipodi:namedview
     id="base"
     pagecolor="#ffffff"
     bordercolor="#666666"
     borderopacity="1.0"
     inkscape:pageopacity="0.0"
     inkscape:pageshadow="2"
     inkscape:zoom="1.979899"
     inkscape:cx="196.9552"
     inkscape:cy="80.967287"
     inkscape:document-units="px"
     inkscape:current-layer="g7381"
     showgrid="true"
     inkscape:window-width="1600"
     inkscape:window-height="840"
     inkscape:window-x="0"
     inkscape:window-y="27"
     inkscape:window-maximized="1"
     fit-margin-top="0"
     fit-margin-left="0"
     fit-margin-right="0"
     fit-margin-bottom="0">
    <inkscape:grid
       type="xygrid"
       id="grid3656"
       units="mm"
       empspacing="5"
       visible="true"
       enabled="true"
       snapvisiblegridlinesonly="true"
       originx="-35mm"
       originy="-171.21518mm" />
  </sodipodi:namedview>
  <metadata
     id="metadata3401">
    <rdf:RDF>
      <cc:Work
         rdf:about="">
        <dc:format>image/svg+xml</dc:format>
        <dc:type
           rdf:resource="http://purl.org/dc/dcmitype/StillImage" />
        <dc:title />
      </cc:Work>
    </rdf:RDF>
  </metadata>
  <g
     inkscape:label="Layer 1"
     inkscape:groupmode="layer"
     id="layer1"
     transform="translate(-124.01575,-272.39543)">
    <path
       inkscape:connector-curvature="0"
       style="fill:none;stroke:#000000;stroke-width:2.34917784"
       id="path248"
       d="" />
    <path
       inkscape:connector-curvature="0"
       style="fill:none;stroke:#000000;stroke-width:2.34917784"
       id="path250"
       d="" />
    <path
       inkscape:connector-curvature="0"
       style="fill:none;stroke:#000000;stroke-width:2.34917784"
       id="path252"
       d="" />
    <path
       inkscape:connector-curvature="0"
       style="fill:none;stroke:#000000;stroke-width:2.34917784"
       id="path254"
       d="" />
    <g
       id="g7381">
      <g
         id="g7147"
         transform="translate(-17.716538,229.60905)">
        <path
           style="fill:#ff9e10"
           id="path7149"
           d="m 188.14635,44.606976 c 0,63.293424 0,63.293424 0,63.293424 L 245.3705,79.288452 188.14635,44.606976 z"
           inkscape:connector-curvature="0" />
        <path
           inkscape:connector-curvature="0"
           d="m 188.14635,44.606976 c 0,63.293424 0,63.293424 0,63.293424 L 245.3705,79.288452 188.14635,44.606976 z"
           id="path7151"
           style="fill:none" />
        <path
           inkscape:connector-curvature="0"
           d="m 186.35275,44.606976 c 0,19.031842 0,38.063941 0,57.095784 0,2.06597 0,4.13168 0,6.19764 0,1.42668 1.50586,2.14514 2.69885,1.54864 10.48946,-5.24473 20.97918,-10.489456 31.46915,-15.734186 8.58517,-4.292587 17.16983,-8.585173 25.75501,-12.87776 1.24168,-0.62084 1.08897,-2.437496 0,-3.097283 -9.82916,-5.9573 -19.65858,-11.914343 -29.48774,-17.871643 -9.24547,-5.603449 -18.49094,-11.206641 -27.73642,-16.809834 -1.98371,-1.202221 -3.78525,1.900443 -1.8105,3.09754 9.82941,5.957299 19.65857,11.914343 29.48799,17.871386 9.24521,5.603449 18.49094,11.206641 27.73616,16.809834 0,-1.032342 0,-2.064941 0,-3.097283 -10.48946,5.244729 -20.97917,10.489459 -31.46889,15.734189 -8.58492,4.292586 -17.17009,8.58517 -25.75526,12.87776 0.89961,0.5163 1.79923,1.03234 2.69884,1.54864 0,-3.30508 0,-6.61068 0,-9.915764 0,-17.792468 0,-35.584936 0,-53.377404 0,-2.313482 -3.58719,-2.313482 -3.58719,-2.56e-4 z"
           id="path7153" />
        <path
           inkscape:connector-curvature="0"
           d="m 189.85462,77.952736 c 0,0 8.74045,-8.540846 20.39421,-0.341552 0,0 11.91101,8.967978 31.79071,1.793596 L 189.85462,47.888743"
           id="path7155"
           style="opacity:0.95999995;fill:url(#linearGradient7167);fill-opacity:1" />
        <line
           style="fill:none;stroke:#000000;stroke-width:2.5;stroke-linecap:round;stroke-miterlimit:4;stroke-dasharray:none"
           id="line7157"
           y2="78.658646"
           x2="186.35275"
           y1="78.658646"
           x1="159.44882" />
        <line
           style="fill:none;stroke:#000000;stroke-width:2.5;stroke-linecap:round;stroke-miterlimit:4;stroke-dasharray:none"
           id="line7159"
           y2="78.658646"
           x2="283.46457"
           y1="78.658646"
           x1="256.08801" />
        <circle
           transform="matrix(0.25622794,0,0,0.25622794,159.44882,42.78622)"
           sodipodi:ry="18.333"
           sodipodi:rx="18.333"
           sodipodi:cy="141.336"
           sodipodi:cx="357.41599"
           d="m 375.74899,141.336 c 0,10.12503 -8.20797,18.333 -18.333,18.333 -10.12504,0 -18.33301,-8.20797 -18.33301,-18.333 0,-10.12504 8.20797,-18.333 18.33301,-18.333 10.12503,0 18.333,8.20796 18.333,18.333 z"
           cx="357.41599"
           cy="141.336"
           r="18.333"
           id="circle7161"
           style="fill:none;stroke:#000000;stroke-width:10" />
        <text
           sodipodi:linespacing="125%"
           id="text7163"
           y="83.325462"
           x="192.88945"
           style="font-size:16px;font-style:normal;font-variant:normal;font-weight:bold;font-stretch:normal;text-align:start;line-height:125%;letter-spacing:0px;word-spacing:0px;writing-mode:lr-tb;text-anchor:start;fill:#000000;fill-opacity:1;stroke:none;font-family:Arial;-inkscape-font-specification:Arial Bold"
           xml:space="preserve"><tspan
             y="83.325462"
             x="192.88945"
             id="tspan7165"
             sodipodi:role="line">NOT</tspan></text>
      </g>
      <g
         id="g7193"
         transform="translate(-17.716538,335.90826)">
        <path
           style="fill:#ff9e10"
           id="path7195"
           d="m 188.14635,44.606976 c 0,63.293424 0,63.293424 0,63.293424 L 245.3705,79.288452 188.14635,44.606976 z"
           inkscape:connector-curvature="0" />
        <path
           inkscape:connector-curvature="0"
           d="m 188.14635,44.606976 c 0,63.293424 0,63.293424 0,63.293424 L 245.3705,79.288452 188.14635,44.606976 z"
           id="path7197"
           style="fill:none" />
        <path
           inkscape:connector-curvature="0"
           d="m 186.35275,44.606976 c 0,19.031842 0,38.063941 0,57.095784 0,2.06597 0,4.13168 0,6.19764 0,1.42668 1.50586,2.14514 2.69885,1.54864 10.48946,-5.24473 20.97918,-10.489456 31.46915,-15.734186 8.58517,-4.292587 17.16983,-8.585173 25.75501,-12.87776 1.24168,-0.62084 1.08897,-2.437496 0,-3.097283 -9.82916,-5.9573 -19.65858,-11.914343 -29.48774,-17.871643 -9.24547,-5.603449 -18.49094,-11.206641 -27.73642,-16.809834 -1.98371,-1.202221 -3.78525,1.900443 -1.8105,3.09754 9.82941,5.957299 19.65857,11.914343 29.48799,17.871386 9.24521,5.603449 18.49094,11.206641 27.73616,16.809834 0,-1.032342 0,-2.064941 0,-3.097283 -10.48946,5.244729 -20.97917,10.489459 -31.46889,15.734189 -8.58492,4.292586 -17.17009,8.58517 -25.75526,12.87776 0.89961,0.5163 1.79923,1.03234 2.69884,1.54864 0,-3.30508 0,-6.61068 0,-9.915764 0,-17.792468 0,-35.584936 0,-53.377404 0,-2.313482 -3.58719,-2.313482 -3.58719,-2.56e-4 z"
           id="path7199" />
        <path
           inkscape:connector-curvature="0"
           d="m 189.85462,77.952736 c 0,0 8.74045,-8.540846 20.39421,-0.341552 0,0 11.91101,8.967978 31.79071,1.793596 L 189.85462,47.888743"
           id="path7201"
           style="opacity:0.95999995;fill:url(#linearGradient7213);fill-opacity:1" />
        <line
           style="fill:none;stroke:#000000;stroke-width:2.5;stroke-linecap:round;stroke-miterlimit:4;stroke-dasharray:none"
           id="line7203"
           y2="78.658646"
           x2="186.35275"
           y1="78.658646"
           x1="159.44882" />
        <line
           style="fill:none;stroke:#000000;stroke-width:2.5;stroke-linecap:round;stroke-miterlimit:4;stroke-dasharray:none"
           id="line7205"
           y2="78.658646"
           x2="283.46457"
           y1="78.658646"
           x1="256.08801" />
        <circle
           transform="matrix(0.25622794,0,0,0.25622794,159.44882,42.78622)"
           sodipodi:ry="18.333"
           sodipodi:rx="18.333"
           sodipodi:cy="141.336"
           sodipodi:cx="357.41599"
           d="m 375.74899,141.336 c 0,10.12503 -8.20797,18.333 -18.333,18.333 -10.12504,0 -18.33301,-8.20797 -18.33301,-18.333 0,-10.12504 8.20797,-18.333 18.33301,-18.333 10.12503,0 18.333,8.20796 18.333,18.333 z"
           cx="357.41599"
           cy="141.336"
           r="18.333"
           id="circle7207"
           style="fill:none;stroke:#000000;stroke-width:10" />
        <text
           sodipodi:linespacing="125%"
           id="text7209"
           y="83.325462"
           x="192.88945"
           style="font-size:16px;font-style:normal;font-variant:normal;font-weight:bold;font-stretch:normal;text-align:start;line-height:125%;letter-spacing:0px;word-spacing:0px;writing-mode:lr-tb;text-anchor:start;fill:#000000;fill-opacity:1;stroke:none;font-family:Arial;-inkscape-font-specification:Arial Bold"
           xml:space="preserve"><tspan
             y="83.325462"
             x="192.88945"
             id="tspan7211"
             sodipodi:role="line">NOT</tspan></text>
      </g>
      <path
         inkscape:connector-curvature="0"
         id="path7215"
         d="m 265.74803,343.70077 -35.43307,0 0,17.71653 -88.58268,0 0,0"
         style="fill:none;stroke:#000000;stroke-width:2.5;stroke-linecap:round;stroke-linejoin:miter;stroke-miterlimit:4;stroke-opacity:1;stroke-dasharray:none" />
      <path
         inkscape:connector-curvature="0"
         id="path7217"
         d="m 265.74803,379.13384 -35.43307,0 0,-17.71654 0,0"
         style="fill:none;stroke:#000000;stroke-width:2.5;stroke-linecap:round;stroke-linejoin:miter;stroke-miterlimit:4;stroke-opacity:1;stroke-dasharray:none" />
      <path
         sodipodi:type="arc"
         style="color:#000000;fill:#000000;fill-opacity:1;stroke:none;stroke-width:1px;marker:none;visibility:visible;display:inline;overflow:visible;enable-background:accumulate"
         id="path7219"
         sodipodi:cx="301.18109"
         sodipodi:cy="77.952736"
         sodipodi:rx="3.5433071"
         sodipodi:ry="3.5433071"
         d="m 304.7244,77.952736 c 0,1.956914 -1.58639,3.543307 -3.54331,3.543307 -1.95691,0 -3.54331,-1.586393 -3.54331,-3.543307 0,-1.956915 1.5864,-3.543307 3.54331,-3.543307 1.95692,0 3.54331,1.586392 3.54331,3.543307 z"
         transform="translate(-70.866131,283.46456)" />
      <g
         id="g7221"
         transform="translate(230.31496,247.32558)">
        <path
           style="fill:#ff9e10"
           id="path7223"
           d="m 188.14635,44.606976 c 0,63.293424 0,63.293424 0,63.293424 L 245.3705,79.288452 188.14635,44.606976 z"
           inkscape:connector-curvature="0" />
        <path
           inkscape:connector-curvature="0"
           d="m 188.14635,44.606976 c 0,63.293424 0,63.293424 0,63.293424 L 245.3705,79.288452 188.14635,44.606976 z"
           id="path7225"
           style="fill:none" />
        <path
           inkscape:connector-curvature="0"
           d="m 186.35275,44.606976 c 0,19.031842 0,38.063941 0,57.095784 0,2.06597 0,4.13168 0,6.19764 0,1.42668 1.50586,2.14514 2.69885,1.54864 10.48946,-5.24473 20.97918,-10.489456 31.46915,-15.734186 8.58517,-4.292587 17.16983,-8.585173 25.75501,-12.87776 1.24168,-0.62084 1.08897,-2.437496 0,-3.097283 -9.82916,-5.9573 -19.65858,-11.914343 -29.48774,-17.871643 -9.24547,-5.603449 -18.49094,-11.206641 -27.73642,-16.809834 -1.98371,-1.202221 -3.78525,1.900443 -1.8105,3.09754 9.82941,5.957299 19.65857,11.914343 29.48799,17.871386 9.24521,5.603449 18.49094,11.206641 27.73616,16.809834 0,-1.032342 0,-2.064941 0,-3.097283 -10.48946,5.244729 -20.97917,10.489459 -31.46889,15.734189 -8.58492,4.292586 -17.17009,8.58517 -25.75526,12.87776 0.89961,0.5163 1.79923,1.03234 2.69884,1.54864 0,-3.30508 0,-6.61068 0,-9.915764 0,-17.792468 0,-35.584936 0,-53.377404 0,-2.313482 -3.58719,-2.313482 -3.58719,-2.56e-4 z"
           id="path7227" />
        <path
           inkscape:connector-curvature="0"
           d="m 189.85462,77.952736 c 0,0 8.74045,-8.540846 20.39421,-0.341552 0,0 11.91101,8.967978 31.79071,1.793596 L 189.85462,47.888743"
           id="path7229"
           style="opacity:0.95999995;fill:url(#linearGradient7241);fill-opacity:1" />
        <line
           style="fill:none;stroke:#000000;stroke-width:2.5;stroke-linecap:round;stroke-miterlimit:4;stroke-dasharray:none"
           id="line7231"
           y2="78.658646"
           x2="186.35275"
           y1="78.658646"
           x1="159.44882" />
        <line
           style="fill:none;stroke:#000000;stroke-width:2.5;stroke-linecap:round;stroke-miterlimit:4;stroke-dasharray:none"
           id="line7233"
           y2="78.658646"
           x2="283.46457"
           y1="78.658646"
           x1="256.08801" />
        <circle
           transform="matrix(0.25622794,0,0,0.25622794,159.44882,42.78622)"
           sodipodi:ry="18.333"
           sodipodi:rx="18.333"
           sodipodi:cy="141.336"
           sodipodi:cx="357.41599"
           d="m 375.74899,141.336 c 0,10.12503 -8.20797,18.333 -18.333,18.333 -10.12504,0 -18.33301,-8.20797 -18.33301,-18.333 0,-10.12504 8.20797,-18.333 18.33301,-18.333 10.12503,0 18.333,8.20796 18.333,18.333 z"
           cx="357.41599"
           cy="141.336"
           r="18.333"
           id="circle7235"
           style="fill:none;stroke:#000000;stroke-width:10" />
        <text
           sodipodi:linespacing="125%"
           id="text7237"
           y="83.325462"
           x="192.88945"
           style="font-size:16px;font-style:normal;font-variant:normal;font-weight:bold;font-stretch:normal;text-align:start;line-height:125%;letter-spacing:0px;word-spacing:0px;writing-mode:lr-tb;text-anchor:start;fill:#000000;fill-opacity:1;stroke:none;font-family:Arial;-inkscape-font-specification:Arial Bold"
           xml:space="preserve"><tspan
             y="83.325462"
             x="192.88945"
             id="tspan7239"
             sodipodi:role="line">NOT</tspan></text>
      </g>
      <g
         id="g7265"
         transform="translate(88.582672,124.01576)">
        <path
           inkscape:connector-curvature="0"
           style="fill:#ff9e10"
           id="path7267"
           d="m 269.48304,201.99855 c 0,38.76144 -70.94518,28.26837 -70.94518,28.26837 0,-37.06839 0.15669,-55.59729 0.15669,-55.59729 0,0 70.78849,-11.08013 70.78849,27.32892" />
        <path
           d="m 269.48304,201.99855 c 0,38.76144 -70.94518,28.26837 -70.94518,28.26837 0,-37.06839 0.15669,-55.59729 0.15669,-55.59729 0,0 70.78849,-11.08013 70.78849,27.32892"
           id="path7269"
           style="fill:none"
           inkscape:connector-curvature="0" />
        <path
           d="m 267.95607,201.99855 c -0.0228,6.43252 -2.26484,12.2801 -6.87839,16.69467 -4.51089,4.31615 -10.61147,6.8152 -16.61809,8.43402 -12.11189,3.26465 -25.07677,3.37765 -37.51496,2.47228 -2.03345,-0.148 -4.06431,-0.33476 -6.08977,-0.56639 -0.55793,-0.0637 -1.11539,-0.13179 -1.67215,-0.20485 -0.40687,-0.0536 0.45034,0.063 -0.0855,-0.0122 -0.0512,-0.007 -0.10219,-0.0143 -0.15316,-0.0218 0.37375,0.49074 0.74727,0.98172 1.12103,1.47246 2.3e-4,-18.08068 0.0176,-36.16207 0.14635,-54.24228 0.003,-0.45151 0.006,-0.90326 0.0101,-1.35477 -0.37375,0.49074 -0.74727,0.98172 -1.12103,1.47246 0.16116,-0.0251 0.32278,-0.0484 0.48417,-0.0714 0.18629,-0.0266 0.37281,-0.0524 0.55934,-0.0778 0.008,-9.4e-4 -0.40618,0.0538 0.0122,-0.001 0.16116,-0.0212 0.32231,-0.0418 0.48346,-0.0623 1.71443,-0.21777 3.4338,-0.39818 5.15481,-0.5544 5.59339,-0.50766 11.21615,-0.73318 16.83185,-0.64086 6.75835,0.11112 13.53855,0.69536 20.13998,2.19131 6.10598,1.38367 12.37006,3.63136 17.18893,7.60805 5.31854,4.38874 7.97617,10.54711 8.00083,17.46496 0.007,1.96909 3.06098,1.96979 3.05393,0 -0.0242,-6.72193 -2.29538,-13.08586 -7.03508,-17.92046 -4.54002,-4.63094 -10.70309,-7.39921 -16.84689,-9.18412 -12.37477,-3.59518 -25.78247,-3.72932 -38.54673,-2.80069 -3.43684,0.24996 -6.88638,0.57203 -10.29268,1.10388 -0.66459,0.10384 -1.11586,0.85158 -1.12103,1.47247 -0.11112,13.19674 -0.12874,26.39442 -0.14635,39.59163 -0.007,5.33522 -0.0101,10.67044 -0.0101,16.00566 0,0.61595 0.46021,1.37497 1.12103,1.47246 7.86082,1.16003 15.91427,1.48844 23.84745,1.31131 6.87557,-0.15363 13.78356,-0.80013 20.50409,-2.29467 6.37943,-1.41844 12.80983,-3.7056 18.0781,-7.66185 3.11994,-2.3433 5.78039,-5.25464 7.59513,-8.72625 1.99116,-3.8099 2.83804,-8.09198 2.85331,-12.36913 0.007,-1.97002 -3.04712,-1.96932 -3.05417,-2.4e-4 l 0,0 z"
           id="path7271"
           inkscape:connector-curvature="0" />
        <path
           d="m 260.07904,184.45067 c -8.52587,-6.97213 -26.12779,-12.28761 -59.92659,-8.32314 l 0,25.84095 c 0,0 14.38707,-13.78192 30.16251,0 0,0 18.45937,17.39332 37.64323,0 0,0 1.61318,-9.75496 -7.87915,-17.51781 z"
           id="path7273"
           style="fill:url(#linearGradient7285);fill-opacity:1;fill-rule:nonzero"
           inkscape:connector-curvature="0" />
        <line
           x1="177.16536"
           y1="219.68501"
           x2="198.4252"
           y2="219.68501"
           id="line7275"
           style="fill:none;stroke:#000000;stroke-width:2.5;stroke-linecap:round;stroke-miterlimit:4;stroke-dasharray:none" />
        <line
           x1="177.16536"
           y1="184.25194"
           x2="198.4252"
           y2="184.25194"
           id="line7277"
           style="fill:none;stroke:#000000;stroke-width:2.5;stroke-linecap:round;stroke-miterlimit:4;stroke-dasharray:none" />
        <line
           x1="270.39291"
           y1="201.96848"
           x2="301.18112"
           y2="201.96848"
           id="line7279"
           style="fill:none;stroke:#000000;stroke-width:2.5;stroke-linecap:round;stroke-miterlimit:4;stroke-dasharray:none" />
        <text
           sodipodi:linespacing="125%"
           id="text7281"
           y="207.65465"
           x="213.82031"
           style="font-size:16px;font-style:normal;font-variant:normal;font-weight:bold;font-stretch:normal;text-align:start;line-height:125%;letter-spacing:0px;word-spacing:0px;writing-mode:lr-tb;text-anchor:start;fill:#000000;fill-opacity:1;stroke:none;font-family:Arial;-inkscape-font-specification:Arial Bold"
           xml:space="preserve"><tspan
             y="207.65465"
             x="213.82031"
             id="tspan7283"
             sodipodi:role="line">AND</tspan></text>
      </g>
      <g
         id="g7287"
         transform="translate(212.59842,212.59843)">
        <path
           inkscape:connector-curvature="0"
           style="fill:#ff9e10"
           id="path7289"
           d="m 269.48304,201.99855 c 0,38.76144 -70.94518,28.26837 -70.94518,28.26837 0,-37.06839 0.15669,-55.59729 0.15669,-55.59729 0,0 70.78849,-11.08013 70.78849,27.32892" />
        <path
           d="m 269.48304,201.99855 c 0,38.76144 -70.94518,28.26837 -70.94518,28.26837 0,-37.06839 0.15669,-55.59729 0.15669,-55.59729 0,0 70.78849,-11.08013 70.78849,27.32892"
           id="path7291"
           style="fill:none"
           inkscape:connector-curvature="0" />
        <path
           d="m 267.95607,201.99855 c -0.0228,6.43252 -2.26484,12.2801 -6.87839,16.69467 -4.51089,4.31615 -10.61147,6.8152 -16.61809,8.43402 -12.11189,3.26465 -25.07677,3.37765 -37.51496,2.47228 -2.03345,-0.148 -4.06431,-0.33476 -6.08977,-0.56639 -0.55793,-0.0637 -1.11539,-0.13179 -1.67215,-0.20485 -0.40687,-0.0536 0.45034,0.063 -0.0855,-0.0122 -0.0512,-0.007 -0.10219,-0.0143 -0.15316,-0.0218 0.37375,0.49074 0.74727,0.98172 1.12103,1.47246 2.3e-4,-18.08068 0.0176,-36.16207 0.14635,-54.24228 0.003,-0.45151 0.006,-0.90326 0.0101,-1.35477 -0.37375,0.49074 -0.74727,0.98172 -1.12103,1.47246 0.16116,-0.0251 0.32278,-0.0484 0.48417,-0.0714 0.18629,-0.0266 0.37281,-0.0524 0.55934,-0.0778 0.008,-9.4e-4 -0.40618,0.0538 0.0122,-0.001 0.16116,-0.0212 0.32231,-0.0418 0.48346,-0.0623 1.71443,-0.21777 3.4338,-0.39818 5.15481,-0.5544 5.59339,-0.50766 11.21615,-0.73318 16.83185,-0.64086 6.75835,0.11112 13.53855,0.69536 20.13998,2.19131 6.10598,1.38367 12.37006,3.63136 17.18893,7.60805 5.31854,4.38874 7.97617,10.54711 8.00083,17.46496 0.007,1.96909 3.06098,1.96979 3.05393,0 -0.0242,-6.72193 -2.29538,-13.08586 -7.03508,-17.92046 -4.54002,-4.63094 -10.70309,-7.39921 -16.84689,-9.18412 -12.37477,-3.59518 -25.78247,-3.72932 -38.54673,-2.80069 -3.43684,0.24996 -6.88638,0.57203 -10.29268,1.10388 -0.66459,0.10384 -1.11586,0.85158 -1.12103,1.47247 -0.11112,13.19674 -0.12874,26.39442 -0.14635,39.59163 -0.007,5.33522 -0.0101,10.67044 -0.0101,16.00566 0,0.61595 0.46021,1.37497 1.12103,1.47246 7.86082,1.16003 15.91427,1.48844 23.84745,1.31131 6.87557,-0.15363 13.78356,-0.80013 20.50409,-2.29467 6.37943,-1.41844 12.80983,-3.7056 18.0781,-7.66185 3.11994,-2.3433 5.78039,-5.25464 7.59513,-8.72625 1.99116,-3.8099 2.83804,-8.09198 2.85331,-12.36913 0.007,-1.97002 -3.04712,-1.96932 -3.05417,-2.4e-4 l 0,0 z"
           id="path7293"
           inkscape:connector-curvature="0" />
        <path
           d="m 260.07904,184.45067 c -8.52587,-6.97213 -26.12779,-12.28761 -59.92659,-8.32314 l 0,25.84095 c 0,0 14.38707,-13.78192 30.16251,0 0,0 18.45937,17.39332 37.64323,0 0,0 1.61318,-9.75496 -7.87915,-17.51781 z"
           id="path7295"
           style="fill:url(#linearGradient7307);fill-opacity:1;fill-rule:nonzero"
           inkscape:connector-curvature="0" />
        <line
           x1="154.38991"
           y1="219.68501"
           x2="196.32565"
           y2="219.68501"
           id="line7297"
           style="fill:none;stroke:#000000;stroke-width:2.55664396;stroke-linecap:round;stroke-miterlimit:4;stroke-dasharray:none" />
        <line
           x1="177.16536"
           y1="184.25194"
           x2="198.4252"
           y2="184.25194"
           id="line7299"
           style="fill:none;stroke:#000000;stroke-width:2.5;stroke-linecap:round;stroke-miterlimit:4;stroke-dasharray:none" />
        <line
           x1="270.39291"
           y1="201.96848"
           x2="301.18112"
           y2="201.96848"
           id="line7301"
           style="fill:none;stroke:#000000;stroke-width:2.5;stroke-linecap:round;stroke-miterlimit:4;stroke-dasharray:none" />
        <text
           sodipodi:linespacing="125%"
           id="text7303"
           y="207.65465"
           x="213.82031"
           style="font-size:16px;font-style:normal;font-variant:normal;font-weight:bold;font-stretch:normal;text-align:start;line-height:125%;letter-spacing:0px;word-spacing:0px;writing-mode:lr-tb;text-anchor:start;fill:#000000;fill-opacity:1;stroke:none;font-family:Arial;-inkscape-font-specification:Arial Bold"
           xml:space="preserve"><tspan
             y="207.65465"
             x="213.82031"
             id="tspan7305"
             sodipodi:role="line">AND</tspan></text>
      </g>
      <g
         id="g7309"
         transform="translate(-108.50352,177.16536)">
        <g
           transform="matrix(0.24477307,0,0,0.24477307,377.18178,188.8051)"
           id="g7311">
          <path
             d="M 348.5,126.267 C 256.5,276.267 46.5,246.6 46.5,246.6 178.167,114.933 47.167,9.934 47.167,9.934 c 0,0 212.333,-32.667 301.333,116.333"
             id="path7313"
             style="fill:#ff9e10"
             inkscape:connector-curvature="0" />
          <g
             id="g7315">
            <path
               d="M 348.5,126.267 C 256.5,276.267 46.5,246.6 46.5,246.6 178.167,114.933 47.167,9.934 47.167,9.934 c 0,0 212.333,-32.667 301.333,116.333"
               id="path7317"
               style="fill:none"
               inkscape:connector-curvature="0" />
            <path
               d="m 342.888,122.987 c -21.697,35.15 -52.396,63.058 -88.73,82.52 -31.545,16.896 -66.463,26.91 -101.714,32.368 -24.517,3.796 -49.476,5.103 -74.266,4.456 -7.682,-0.2 -15.361,-0.617 -23.017,-1.297 -2.112,-0.188 -4.222,-0.399 -6.328,-0.643 -1.194,-0.138 -3.507,-0.467 -0.605,-0.059 0.956,3.621 1.912,7.242 2.868,10.864 C 85.32,216.752 112.902,172.73 111.636,122.618 110.816,90.136 97.485,59.084 77.983,33.49 70.281,23.383 61.717,13.337 51.763,5.337 c -0.956,3.621 -1.912,7.243 -2.868,10.864 2.512,-0.385 -1.297,0.154 1.003,-0.14 2.466,-0.314 4.938,-0.581 7.411,-0.825 8.892,-0.876 17.819,-1.386 26.75,-1.653 28.634,-0.855 57.429,1.013 85.627,6.109 32.594,5.891 64.479,16.242 93.392,32.542 32.842,18.515 60.372,44.987 79.81,77.312 4.313,7.174 15.557,0.643 11.225,-6.561 C 332.904,87.713 302.636,59.198 266.652,39.341 234.997,21.876 199.81,11.297 164.214,5.642 125.474,-0.513 84.386,-2.3 45.438,3.666 c -4.635,0.71 -6.485,7.957 -2.868,10.864 12.511,10.055 22.994,22.962 31.643,35.994 18.467,27.829 28.313,61.188 23.051,94.594 -5.96,37.834 -28.917,70.272 -55.36,96.886 -3.104,3.125 -2.168,10.156 2.868,10.864 40.747,5.729 83.679,2.87 123.929,-4.642 34.599,-6.457 68.466,-17.944 99.095,-35.406 35.256,-20.1 65.001,-48.739 86.316,-83.272 4.417,-7.155 -6.832,-13.679 -11.224,-6.561 l 0,0 z"
               id="path7319"
               inkscape:connector-curvature="0" />
          </g>
        </g>
        <path
           d="m 391.66234,192.21009 c 0,0 12.67001,11.25695 12.67001,27.47493 0,0 9.82356,-9.7551 23.06879,0 0,0 15.09772,13.30507 33.22878,0 0,0 -15.53872,-32.08692 -68.96758,-27.47493 z"
           id="path7321"
           style="fill:url(#linearGradient7333);fill-opacity:1"
           inkscape:connector-curvature="0" />
        <line
           x1="374.25156"
           y1="237.40155"
           x2="397.56326"
           y2="237.40155"
           id="line7323"
           style="fill:none;stroke:#000000;stroke-width:2.5;stroke-linecap:round;stroke-miterlimit:4;stroke-dasharray:none" />
        <line
           x1="374.25156"
           y1="201.96848"
           x2="397.04361"
           y2="201.96848"
           id="line7325"
           style="fill:none;stroke:#000000;stroke-width:2.5;stroke-linecap:round;stroke-miterlimit:4;stroke-dasharray:none" />
        <line
           x1="461.99649"
           y1="220.23282"
           x2="475.58337"
           y2="220.23282"
           id="line7327"
           style="fill:none;stroke:#000000;stroke-width:2.80851722;stroke-linecap:round;stroke-miterlimit:4;stroke-dasharray:none" />
        <text
           sodipodi:linespacing="125%"
           id="text7329"
           y="225.57521"
           x="414.3605"
           style="font-size:16px;font-style:normal;font-variant:normal;font-weight:bold;font-stretch:normal;text-align:start;line-height:125%;letter-spacing:0px;word-spacing:0px;writing-mode:lr-tb;text-anchor:start;fill:#000000;fill-opacity:1;stroke:none;font-family:Arial;-inkscape-font-specification:Arial Bold"
           xml:space="preserve"><tspan
             y="225.57521"
             x="414.3605"
             id="tspan7331"
             sodipodi:role="line">OR</tspan></text>
      </g>
      <path
         sodipodi:nodetypes="cc"
         inkscape:connector-curvature="0"
         id="path7337-0"
         d="m 367.13687,431.538 0,-33.65078"
         style="fill:none;stroke:#000000;stroke-width:2.74238753;stroke-linecap:round;stroke-linejoin:miter;stroke-miterlimit:4;stroke-opacity:1;stroke-dasharray:none" />
      <path
         inkscape:connector-curvature="0"
         id="path7337"
         d="m 389.76378,326.38301 0,70.28226"
         style="fill:none;stroke:#000000;stroke-width:2.87483406;stroke-linecap:round;stroke-linejoin:miter;stroke-miterlimit:4;stroke-opacity:1;stroke-dasharray:none" />
      <path
         sodipodi:type="arc"
         style="color:#000000;fill:#000000;fill-opacity:1;stroke:none;stroke-width:1px;marker:none;visibility:visible;display:inline;overflow:visible;enable-background:accumulate"
         id="path7365"
         sodipodi:cx="301.18109"
         sodipodi:cy="77.952736"
         sodipodi:rx="3.5433071"
         sodipodi:ry="3.5433071"
         d="m 304.7244,77.952736 c 0,1.956914 -1.58639,3.543307 -3.54331,3.543307 -1.95691,0 -3.54331,-1.586393 -3.54331,-3.543307 0,-1.956915 1.5864,-3.543307 3.54331,-3.543307 1.95692,0 3.54331,1.586392 3.54331,3.543307 z"
         transform="translate(88.582688,248.03149)" />
      <text
         sodipodi:linespacing="334.99999%"
         id="text7367"
         y="313.35431"
         x="124.01575"
         style="font-size:16px;font-style:normal;font-variant:normal;font-weight:bold;font-stretch:normal;text-align:start;line-height:334.99999046%;letter-spacing:0px;word-spacing:0px;writing-mode:lr-tb;text-anchor:start;fill:#000000;fill-opacity:1;stroke:none;font-family:Arial;-inkscape-font-specification:Arial Bold"
         xml:space="preserve"><tspan
           y="313.35431"
           x="124.01575"
           id="tspan7369"
           sodipodi:role="line">A</tspan><tspan
           id="tspan7371"
           y="366.95432"
           x="124.01575"
           sodipodi:role="line">B</tspan><tspan
           id="tspan7373"
           y="420.55432"
           x="124.01575"
           sodipodi:role="line">C</tspan></text>
      <text
         sodipodi:linespacing="552%"
         id="text7375"
         y="331.57648"
         x="518.71429"
         style="font-size:16px;font-style:normal;font-variant:normal;font-weight:bold;font-stretch:normal;text-align:start;line-height:551.99999809%;letter-spacing:0px;word-spacing:0px;writing-mode:lr-tb;text-anchor:start;fill:#000000;fill-opacity:1;stroke:none;font-family:Arial;-inkscape-font-specification:Arial Bold"
         xml:space="preserve"><tspan
           y="331.57648"
           x="518.71429"
           id="tspan7377"
           sodipodi:role="line">X</tspan><tspan
           id="tspan7379"
           y="419.89648"
           x="518.71429"
           sodipodi:role="line">Y</tspan></text>
    </g>
  </g>
</svg>
