<?xml version="1.0" encoding="UTF-8" standalone="no"?>
<!-- Created with Inkscape (http://www.inkscape.org/) -->

<svg
   xmlns:dc="http://purl.org/dc/elements/1.1/"
   xmlns:cc="http://creativecommons.org/ns#"
   xmlns:rdf="http://www.w3.org/1999/02/22-rdf-syntax-ns#"
   xmlns:svg="http://www.w3.org/2000/svg"
   xmlns="http://www.w3.org/2000/svg"
   xmlns:xlink="http://www.w3.org/1999/xlink"
   xmlns:sodipodi="http://sodipodi.sourceforge.net/DTD/sodipodi-0.dtd"
   xmlns:inkscape="http://www.inkscape.org/namespaces/inkscape"
   width="116.9083"
   height="61.488754"
   id="svg3868"
   version="1.1"
   inkscape:version="0.48.3.1 r9886"
   sodipodi:docname="2014-CH-04-NOT.svg">
  <defs
     id="defs3870">
    <linearGradient
       inkscape:collect="always"
       xlink:href="#SVGID_1_-3"
       id="linearGradient3814"
       gradientUnits="userSpaceOnUse"
       x1="199.73026"
       y1="25.964594"
       x2="216.08746"
       y2="180.06682" />
    <linearGradient
       x1="220.4995"
       y1="19.913601"
       x2="220.4995"
       y2="153.771"
       id="SVGID_1_-3"
       gradientUnits="userSpaceOnUse">
      <stop
         id="stop4970"
         style="stop-color:#ffffff;stop-opacity:1"
         offset="0.23630001" />
      <stop
         id="stop4972"
         style="stop-color:#ff9e10;stop-opacity:1"
         offset="1" />
    </linearGradient>
    <linearGradient
       inkscape:collect="always"
       xlink:href="#SVGID_1_"
       id="linearGradient3816"
       gradientUnits="userSpaceOnUse"
       x1="165.26433"
       y1="21.361534"
       x2="165.26433"
       y2="201.18958" />
    <linearGradient
       gradientUnits="userSpaceOnUse"
       id="SVGID_1_"
       y2="162.15089"
       x2="255.5396"
       y1="13.4697"
       x1="255.5396">
      <stop
         offset="0"
         style="stop-color:#ffffff;stop-opacity:1"
         id="stop258" />
      <stop
         offset="1"
         style="stop-color:#ff9e10;stop-opacity:1"
         id="stop260" />
    </linearGradient>
  </defs>
  <sodipodi:namedview
     id="base"
     pagecolor="#ffffff"
     bordercolor="#666666"
     borderopacity="1.0"
     inkscape:pageopacity="0.0"
     inkscape:pageshadow="2"
     inkscape:zoom="0.35"
     inkscape:cx="-21.515388"
     inkscape:cy="-172.96183"
     inkscape:document-units="px"
     inkscape:current-layer="layer1"
     showgrid="false"
     fit-margin-top="0"
     fit-margin-left="0"
     fit-margin-right="0"
     fit-margin-bottom="0"
     inkscape:window-width="470"
     inkscape:window-height="376"
     inkscape:window-x="469"
     inkscape:window-y="184"
     inkscape:window-maximized="0" />
  <metadata
     id="metadata3873">
    <rdf:RDF>
      <cc:Work
         rdf:about="">
        <dc:format>image/svg+xml</dc:format>
        <dc:type
           rdf:resource="http://purl.org/dc/dcmitype/StillImage" />
        <dc:title></dc:title>
      </cc:Work>
    </rdf:RDF>
  </metadata>
  <g
     inkscape:label="Layer 1"
     inkscape:groupmode="layer"
     id="layer1"
     transform="translate(-396.51539,-297.9116)">
    <g
       id="g3709"
       transform="matrix(0.24477307,0,0,0.24477307,381.72723,385.97597)">
      <g
         id="g3404"
         transform="matrix(0.95973707,0,0,0.95973707,47.789244,-359.78006)">
        <g
           id="Layer_2">
          <g
             id="g238">
            <path
               d="m 406.127,129.372 c 0,165 -302,120.333 -302,120.333 0,-157.793 0.667,-236.667 0.667,-236.667 0,0 301.333,-47.166 301.333,116.334"
               id="path240"
               style="fill:#ff9e10"
               inkscape:connector-curvature="0" />
            <g
               id="g242">
              <path
                 d="m 406.127,129.372 c 0,165 -302,120.333 -302,120.333 0,-157.793 0.667,-236.667 0.667,-236.667 0,0 301.333,-47.166 301.333,116.334"
                 id="path244"
                 style="fill:none"
                 inkscape:connector-curvature="0" />
              <path
                 d="m 399.627,129.372 c -0.097,27.382 -9.641,52.274 -29.28,71.066 -19.202,18.373 -45.171,29.011 -70.74,35.902 -51.558,13.897 -106.747,14.378 -159.694,10.524 -8.656,-0.63 -17.301,-1.425 -25.923,-2.411 -2.375,-0.271 -4.748,-0.561 -7.118,-0.872 -1.732,-0.228 1.917,0.268 -0.364,-0.052 -0.218,-0.03 -0.435,-0.061 -0.652,-0.093 1.591,2.089 3.181,4.179 4.772,6.268 0.001,-76.966 0.075,-153.935 0.623,-230.899 0.014,-1.922 0.027,-3.845 0.043,-5.767 -1.591,2.089 -3.181,4.179 -4.772,6.268 0.686,-0.107 1.374,-0.206 2.061,-0.304 0.793,-0.113 1.587,-0.223 2.381,-0.331 0.032,-0.004 -1.729,0.229 0.052,-0.005 0.686,-0.09 1.372,-0.178 2.058,-0.265 7.298,-0.927 14.617,-1.695 21.943,-2.36 23.81,-2.161 47.745,-3.121 71.65,-2.728 28.769,0.473 57.631,2.96 85.732,9.328 25.992,5.89 52.657,15.458 73.17,32.386 22.64,18.682 33.953,44.897 34.058,74.345 0.03,8.382 13.03,8.385 13,0 C 412.524,100.758 402.856,73.668 382.68,53.088 363.354,33.375 337.119,21.591 310.966,13.993 258.289,-1.311 201.215,-1.882 146.88,2.071 132.25,3.135 117.566,4.506 103.066,6.77 c -2.829,0.442 -4.75,3.625 -4.772,6.268 -0.473,56.176 -0.548,112.356 -0.623,168.534 -0.03,22.711 -0.043,45.422 -0.043,68.133 0,2.622 1.959,5.853 4.772,6.268 33.462,4.938 67.744,6.336 101.514,5.582 29.268,-0.654 58.674,-3.406 87.282,-9.768 27.156,-6.038 54.529,-15.774 76.955,-32.615 13.281,-9.975 24.606,-22.368 32.331,-37.146 8.476,-16.218 12.081,-34.446 12.146,-52.653 0.029,-8.386 -12.971,-8.383 -13.001,-10e-4 l 0,0 z"
                 id="path246"
                 inkscape:connector-curvature="0" />
            </g>
          </g>
          <path
             d=""
             id="path248"
             style="fill:none;stroke:#000000;stroke-width:10"
             inkscape:connector-curvature="0" />
          <path
             d=""
             id="path250"
             style="fill:none;stroke:#000000;stroke-width:10"
             inkscape:connector-curvature="0" />
          <path
             d=""
             id="path252"
             style="fill:none;stroke:#000000;stroke-width:10"
             inkscape:connector-curvature="0" />
          <path
             d=""
             id="path254"
             style="fill:none;stroke:#000000;stroke-width:10"
             inkscape:connector-curvature="0" />
        </g>
        <g
           id="Layer_4">
          <linearGradient
             x1="255.5396"
             y1="13.4697"
             x2="255.5396"
             y2="162.15089"
             id="linearGradient3451"
             gradientUnits="userSpaceOnUse">
            <stop
               id="stop3453"
               style="stop-color:#ffffff;stop-opacity:1"
               offset="0" />
            <stop
               id="stop3455"
               style="stop-color:#ff9e10;stop-opacity:1"
               offset="1" />
          </linearGradient>
          <path
             d="M 366.096,54.674 C 329.803,24.995 254.875,2.368 111,19.244 l 0,110 c 0,0 61.243,-58.667 128.396,0 0,0 78.578,74.04 160.24,0 0,0 6.867,-41.525 -33.54,-74.57 z"
             id="path262"
             style="fill:url(#linearGradient3816);fill-opacity:1;fill-rule:nonzero"
             inkscape:connector-curvature="0" />
        </g>
        <g
           id="Layer_3">
          <line
             x1="13.148335"
             y1="204.65988"
             x2="103.64741"
             y2="204.65988"
             id="line265"
             style="fill:none;stroke:#000000;stroke-width:9.45886707" />
          <line
             x1="13.148335"
             y1="53.828083"
             x2="103.64741"
             y2="53.828083"
             id="line267"
             style="fill:none;stroke:#000000;stroke-width:9.47447586" />
          <line
             x1="410"
             y1="130.578"
             x2="510.81699"
             y2="130.578"
             id="line269"
             style="fill:none;stroke:#000000;stroke-width:10" />
        </g>
      </g>
      <text
         sodipodi:linespacing="125%"
         id="text3662"
         y="-212.50948"
         x="210.15894"
         style="font-size:65.3666687px;font-style:normal;font-variant:normal;font-weight:bold;font-stretch:normal;text-align:start;line-height:125%;letter-spacing:0px;word-spacing:0px;writing-mode:lr-tb;text-anchor:start;fill:#000000;fill-opacity:1;stroke:none;font-family:Arial;-inkscape-font-specification:Arial Bold"
         xml:space="preserve"><tspan
           y="-212.50948"
           x="210.15894"
           id="tspan3664"
           sodipodi:role="line">AND</tspan></text>
    </g>
  </g>
</svg>
