<?xml version="1.0" encoding="UTF-8" standalone="no"?>
<!-- Created with Inkscape (http://www.inkscape.org/) -->

<svg
   xmlns:dc="http://purl.org/dc/elements/1.1/"
   xmlns:cc="http://creativecommons.org/ns#"
   xmlns:rdf="http://www.w3.org/1999/02/22-rdf-syntax-ns#"
   xmlns:svg="http://www.w3.org/2000/svg"
   xmlns="http://www.w3.org/2000/svg"
   xmlns:xlink="http://www.w3.org/1999/xlink"
   xmlns:sodipodi="http://sodipodi.sourceforge.net/DTD/sodipodi-0.dtd"
   xmlns:inkscape="http://www.inkscape.org/namespaces/inkscape"
   width="103.26015"
   height="106.54462"
   id="svg2"
   inkscape:label="Pozadí"
   version="1.1"
   inkscape:version="0.48.5 r10040"
   sodipodi:docname="2015-CZ-01-EN_starfish_d.svg">
  <defs
     id="defs3" />
  <sodipodi:namedview
     id="base"
     pagecolor="#ffffff"
     bordercolor="#666666"
     borderopacity="1.0"
     inkscape:pageopacity="0.0"
     inkscape:pageshadow="2"
     inkscape:zoom="0.7071068"
     inkscape:cx="172.71323"
     inkscape:cy="-150.04802"
     inkscape:document-units="px"
     inkscape:current-layer="layer1"
     showgrid="false"
     inkscape:window-width="1323"
     inkscape:window-height="748"
     inkscape:window-x="41"
     inkscape:window-y="-3"
     inkscape:window-maximized="1"
     fit-margin-top="0"
     fit-margin-left="0"
     fit-margin-right="0"
     fit-margin-bottom="0" />
  <metadata
     id="metadata6">
    <rdf:RDF>
      <cc:Work
         rdf:about="">
        <dc:format>image/svg+xml</dc:format>
        <dc:type
           rdf:resource="http://purl.org/dc/dcmitype/StillImage" />
        <dc:title />
      </cc:Work>
    </rdf:RDF>
  </metadata>
  <g
     inkscape:label="Vrstva 1"
     inkscape:groupmode="layer"
     id="layer1"
     transform="translate(-398.28881,-46.402356)">
    <path
       style="fill:none;stroke:#ffff00;stroke-width:3;stroke-linecap:butt;stroke-linejoin:miter;stroke-miterlimit:4;stroke-opacity:1;stroke-dasharray:none"
       d="m 454.7841,90.87542 26.07143,36.42857"
       id="path3114-1"
       inkscape:connector-curvature="0" />
    <path
       style="fill:none;stroke:#ffff00;stroke-width:3;stroke-linecap:butt;stroke-linejoin:miter;stroke-miterlimit:4;stroke-opacity:1;stroke-dasharray:none"
       d="M 416.42679,128.14368 436.87923,95.579949"
       id="path3884-5"
       inkscape:connector-curvature="0" />
    <use
       x="0"
       y="0"
       xlink:href="#path3114-1"
       id="use3899-0"
       transform="matrix(0.9665032,0.25665455,-0.25665455,0.9665032,36.24188,-103.21235)"
       width="744.09448"
       height="1052.3622" />
    <use
       x="0"
       y="0"
       xlink:href="#path3114-1"
       id="use3899-4-5"
       transform="matrix(-0.08576175,-0.99631568,0.99631568,-0.08576175,397.49943,551.2019)"
       width="744.09448"
       height="1052.3622" />
    <use
       x="0"
       y="0"
       xlink:href="#path3114-1"
       id="use3899-3-2"
       transform="matrix(-0.64191123,-0.76677897,0.76677897,-0.64191123,653.29395,542.49587)"
       width="744.09448"
       height="1052.3622" />
    <path
       transform="matrix(0.8640568,0,0,0.78406806,365.83386,93.595809)"
       d="m 90.000001,60.219326 c 0,8.284271 -6.395932,15 -14.285714,15 -7.889782,0 -14.285714,-6.715729 -14.285714,-15 0,-8.284271 6.395932,-15 14.285714,-15 7.889782,0 14.285714,6.715729 14.285714,15 z"
       sodipodi:ry="15"
       sodipodi:rx="14.285714"
       sodipodi:cy="60.219326"
       sodipodi:cx="75.714287"
       id="use2986-7"
       style="fill:#803300;fill-opacity:1;stroke:#000000;stroke-width:0.90899998;stroke-linecap:round;stroke-miterlimit:4;stroke-opacity:1;stroke-dasharray:none"
       sodipodi:type="arc" />
    <path
       transform="matrix(0.8640568,0,0,0.78406806,345.58513,88.78946)"
       d="m 90.000001,60.219326 c 0,8.284271 -6.395932,15 -14.285714,15 -7.889782,0 -14.285714,-6.715729 -14.285714,-15 0,-8.284271 6.395932,-15 14.285714,-15 7.889782,0 14.285714,6.715729 14.285714,15 z"
       sodipodi:ry="15"
       sodipodi:rx="14.285714"
       sodipodi:cy="60.219326"
       sodipodi:cx="75.714287"
       id="use2986-2"
       style="fill:#803300;fill-opacity:1;stroke:#000000;stroke-width:0.90899998;stroke-linecap:round;stroke-miterlimit:4;stroke-opacity:1;stroke-dasharray:none"
       sodipodi:type="arc" />
    <path
       transform="matrix(0.8640568,0,0,0.78406806,419.23083,86.132605)"
       d="m 90.000001,60.219326 c 0,8.284271 -6.395932,15 -14.285714,15 -7.889782,0 -14.285714,-6.715729 -14.285714,-15 0,-8.284271 6.395932,-15 14.285714,-15 7.889782,0 14.285714,6.715729 14.285714,15 z"
       sodipodi:ry="15"
       sodipodi:rx="14.285714"
       sodipodi:cy="60.219326"
       sodipodi:cx="75.714287"
       id="use2986-167"
       style="fill:#803300;fill-opacity:1;stroke:#000000;stroke-width:0.90899998;stroke-linecap:round;stroke-miterlimit:4;stroke-opacity:1;stroke-dasharray:none"
       sodipodi:type="arc" />
    <path
       transform="matrix(0.8640568,0,0,0.78406806,401.13895,91.688954)"
       d="m 90.000001,60.219326 c 0,8.284271 -6.395932,15 -14.285714,15 -7.889782,0 -14.285714,-6.715729 -14.285714,-15 0,-8.284271 6.395932,-15 14.285714,-15 7.889782,0 14.285714,6.715729 14.285714,15 z"
       sodipodi:ry="15"
       sodipodi:rx="14.285714"
       sodipodi:cy="60.219326"
       sodipodi:cx="75.714287"
       id="use2986-93"
       style="fill:#803300;fill-opacity:1;stroke:#000000;stroke-width:0.90899998;stroke-linecap:round;stroke-miterlimit:4;stroke-opacity:1;stroke-dasharray:none"
       sodipodi:type="arc" />
    <path
       transform="matrix(0.8640568,0,0,0.78406806,423.40976,11.321422)"
       d="m 90.000001,60.219326 c 0,8.284271 -6.395932,15 -14.285714,15 -7.889782,0 -14.285714,-6.715729 -14.285714,-15 0,-8.284271 6.395932,-15 14.285714,-15 7.889782,0 14.285714,6.715729 14.285714,15 z"
       sodipodi:ry="15"
       sodipodi:rx="14.285714"
       sodipodi:cy="60.219326"
       sodipodi:cx="75.714287"
       id="use2986-24"
       style="fill:#803300;fill-opacity:1;stroke:#000000;stroke-width:0.90899998;stroke-linecap:round;stroke-miterlimit:4;stroke-opacity:1;stroke-dasharray:none"
       sodipodi:type="arc" />
    <path
       sodipodi:type="arc"
       style="fill:#803300;fill-opacity:1;stroke:#000000;stroke-width:0.90899998;stroke-linecap:round;stroke-miterlimit:4;stroke-opacity:1;stroke-dasharray:none"
       id="path2984-9"
       sodipodi:cx="75.714287"
       sodipodi:cy="60.219326"
       sodipodi:rx="14.285714"
       sodipodi:ry="15"
       d="m 90.000001,60.219326 c 0,8.284271 -6.395932,15 -14.285714,15 -7.889782,0 -14.285714,-6.715729 -14.285714,-15 0,-8.284271 6.395932,-15 14.285714,-15 7.889782,0 14.285714,6.715729 14.285714,15 z"
       transform="matrix(1.018381,0,0,0.96988671,369.78549,33.70525)" />
  </g>
</svg>
