<?xml version="1.0" encoding="UTF-8" standalone="no"?>
<!-- Created with Inkscape (http://www.inkscape.org/) -->

<svg
   xmlns:dc="http://purl.org/dc/elements/1.1/"
   xmlns:cc="http://creativecommons.org/ns#"
   xmlns:rdf="http://www.w3.org/1999/02/22-rdf-syntax-ns#"
   xmlns:svg="http://www.w3.org/2000/svg"
   xmlns="http://www.w3.org/2000/svg"
   xmlns:sodipodi="http://sodipodi.sourceforge.net/DTD/sodipodi-0.dtd"
   xmlns:inkscape="http://www.inkscape.org/namespaces/inkscape"
   width="123.72337"
   height="119.02254"
   id="svg2"
   inkscape:label="Pozadí"
   version="1.1"
   inkscape:version="0.48.5 r10040"
   sodipodi:docname="2015-CZ-01-EN_giraffe_d.svg">
  <defs
     id="defs3" />
  <sodipodi:namedview
     id="base"
     pagecolor="#ffffff"
     bordercolor="#666666"
     borderopacity="1.0"
     inkscape:pageopacity="0.0"
     inkscape:pageshadow="2"
     inkscape:zoom="0.7071068"
     inkscape:cx="391.21013"
     inkscape:cy="98.097011"
     inkscape:document-units="px"
     inkscape:current-layer="layer1"
     showgrid="false"
     inkscape:window-width="1323"
     inkscape:window-height="748"
     inkscape:window-x="41"
     inkscape:window-y="-3"
     inkscape:window-maximized="1"
     fit-margin-top="0"
     fit-margin-left="0"
     fit-margin-right="0"
     fit-margin-bottom="0" />
  <metadata
     id="metadata6">
    <rdf:RDF>
      <cc:Work
         rdf:about="">
        <dc:format>image/svg+xml</dc:format>
        <dc:type
           rdf:resource="http://purl.org/dc/dcmitype/StillImage" />
        <dc:title />
      </cc:Work>
    </rdf:RDF>
  </metadata>
  <g
     inkscape:label="Vrstva 1"
     inkscape:groupmode="layer"
     id="layer1"
     transform="translate(-400.2326,-638.59041)">
    <path
       inkscape:connector-curvature="0"
       id="use3899-84-8"
       d="m 492.58974,740.16138 15.89197,-41.88323"
       style="fill:none;stroke:#ffff00;stroke-width:3;stroke-linecap:butt;stroke-linejoin:miter;stroke-miterlimit:4;stroke-opacity:1;stroke-dasharray:none" />
    <path
       inkscape:connector-curvature="0"
       id="use3899-5-4"
       d="m 457.1012,703.59836 11.15476,43.38585"
       style="fill:none;stroke:#ffff00;stroke-width:3;stroke-linecap:butt;stroke-linejoin:miter;stroke-miterlimit:4;stroke-opacity:1;stroke-dasharray:none" />
    <path
       inkscape:connector-curvature="0"
       id="use3899-836-3"
       d="m 462.09702,704.71533 25.44883,36.86621"
       style="fill:none;stroke:#ffff00;stroke-width:3;stroke-linecap:butt;stroke-linejoin:miter;stroke-miterlimit:4;stroke-opacity:1;stroke-dasharray:none" />
    <path
       inkscape:connector-curvature="0"
       id="use3899-41-4"
       d="m 446.28567,706.47243 -15.78561,41.92344"
       style="fill:none;stroke:#ffff00;stroke-width:3;stroke-linecap:butt;stroke-linejoin:miter;stroke-miterlimit:4;stroke-opacity:1;stroke-dasharray:none" />
    <path
       inkscape:connector-curvature="0"
       id="use3899-30-3"
       d="m 459.98193,690.2177 22.69254,-38.62394"
       style="fill:none;stroke:#ffff00;stroke-width:3;stroke-linecap:butt;stroke-linejoin:miter;stroke-miterlimit:4;stroke-opacity:1;stroke-dasharray:none" />
    <path
       inkscape:connector-curvature="0"
       id="use3899-846-9"
       d="m 414.16457,737.68187 27.58589,-35.29559"
       style="fill:none;stroke:#ffff00;stroke-width:3;stroke-linecap:butt;stroke-linejoin:miter;stroke-miterlimit:4;stroke-opacity:1;stroke-dasharray:none" />
    <path
       sodipodi:type="arc"
       style="fill:#803300;fill-opacity:1;stroke:#000000;stroke-width:0.90899998;stroke-linecap:round;stroke-miterlimit:4;stroke-opacity:1;stroke-dasharray:none"
       id="path2984-51"
       sodipodi:cx="75.714287"
       sodipodi:cy="60.219326"
       sodipodi:rx="14.285714"
       sodipodi:ry="15"
       d="m 90.000001,60.219326 c 0,8.284271 -6.395932,15 -14.285714,15 -7.889782,0 -14.285714,-6.715729 -14.285714,-15 0,-8.284271 6.395932,-15 14.285714,-15 7.889782,0 14.285714,6.715729 14.285714,15 z"
       transform="matrix(1.018381,0,0,0.96988671,375.44235,639.69576)" />
    <path
       transform="matrix(0.8640568,0,0,0.78406806,445.81676,648.76431)"
       d="m 90.000001,60.219326 c 0,8.284271 -6.395932,15 -14.285714,15 -7.889782,0 -14.285714,-6.715729 -14.285714,-15 0,-8.284271 6.395932,-15 14.285714,-15 7.889782,0 14.285714,6.715729 14.285714,15 z"
       sodipodi:ry="15"
       sodipodi:rx="14.285714"
       sodipodi:cy="60.219326"
       sodipodi:cx="75.714287"
       id="use2986-31-4"
       style="fill:#803300;fill-opacity:1;stroke:#000000;stroke-width:0.90899998;stroke-linecap:round;stroke-miterlimit:4;stroke-opacity:1;stroke-dasharray:none"
       sodipodi:type="arc" />
    <path
       transform="matrix(0.8640568,0,0,0.78406806,418.2396,603.50948)"
       d="m 90.000001,60.219326 c 0,8.284271 -6.395932,15 -14.285714,15 -7.889782,0 -14.285714,-6.715729 -14.285714,-15 0,-8.284271 6.395932,-15 14.285714,-15 7.889782,0 14.285714,6.715729 14.285714,15 z"
       sodipodi:ry="15"
       sodipodi:rx="14.285714"
       sodipodi:cy="60.219326"
       sodipodi:cx="75.714287"
       id="use2986-31-0"
       style="fill:#803300;fill-opacity:1;stroke:#000000;stroke-width:0.90899998;stroke-linecap:round;stroke-miterlimit:4;stroke-opacity:1;stroke-dasharray:none"
       sodipodi:type="arc" />
    <path
       transform="matrix(0.8640568,0,0,0.78406806,424.60356,693.31205)"
       d="m 90.000001,60.219326 c 0,8.284271 -6.395932,15 -14.285714,15 -7.889782,0 -14.285714,-6.715729 -14.285714,-15 0,-8.284271 6.395932,-15 14.285714,-15 7.889782,0 14.285714,6.715729 14.285714,15 z"
       sodipodi:ry="15"
       sodipodi:rx="14.285714"
       sodipodi:cy="60.219326"
       sodipodi:cx="75.714287"
       id="use2986-31-9"
       style="fill:#803300;fill-opacity:1;stroke:#000000;stroke-width:0.90899998;stroke-linecap:round;stroke-miterlimit:4;stroke-opacity:1;stroke-dasharray:none"
       sodipodi:type="arc" />
    <path
       transform="matrix(0.8640568,0,0,0.78406806,405.51167,698.26179)"
       d="m 90.000001,60.219326 c 0,8.284271 -6.395932,15 -14.285714,15 -7.889782,0 -14.285714,-6.715729 -14.285714,-15 0,-8.284271 6.395932,-15 14.285714,-15 7.889782,0 14.285714,6.715729 14.285714,15 z"
       sodipodi:ry="15"
       sodipodi:rx="14.285714"
       sodipodi:cy="60.219326"
       sodipodi:cx="75.714287"
       id="use2986-31-1"
       style="fill:#803300;fill-opacity:1;stroke:#000000;stroke-width:0.90899998;stroke-linecap:round;stroke-miterlimit:4;stroke-opacity:1;stroke-dasharray:none"
       sodipodi:type="arc" />
    <path
       transform="matrix(0.8640568,0,0,0.78406806,366.6208,698.26179)"
       d="m 90.000001,60.219326 c 0,8.284271 -6.395932,15 -14.285714,15 -7.889782,0 -14.285714,-6.715729 -14.285714,-15 0,-8.284271 6.395932,-15 14.285714,-15 7.889782,0 14.285714,6.715729 14.285714,15 z"
       sodipodi:ry="15"
       sodipodi:rx="14.285714"
       sodipodi:cy="60.219326"
       sodipodi:cx="75.714287"
       id="use2986-31-14"
       style="fill:#803300;fill-opacity:1;stroke:#000000;stroke-width:0.90899998;stroke-linecap:round;stroke-miterlimit:4;stroke-opacity:1;stroke-dasharray:none"
       sodipodi:type="arc" />
    <path
       transform="matrix(0.8640568,0,0,0.78406806,347.52892,691.89783)"
       d="m 90.000001,60.219326 c 0,8.284271 -6.395932,15 -14.285714,15 -7.889782,0 -14.285714,-6.715729 -14.285714,-15 0,-8.284271 6.395932,-15 14.285714,-15 7.889782,0 14.285714,6.715729 14.285714,15 z"
       sodipodi:ry="15"
       sodipodi:rx="14.285714"
       sodipodi:cy="60.219326"
       sodipodi:cx="75.714287"
       id="use2986-31-2"
       style="fill:#803300;fill-opacity:1;stroke:#000000;stroke-width:0.90899998;stroke-linecap:round;stroke-miterlimit:4;stroke-opacity:1;stroke-dasharray:none"
       sodipodi:type="arc" />
  </g>
</svg>
