<?xml version="1.0" encoding="UTF-8" standalone="no"?>
<!-- Created with Inkscape (http://www.inkscape.org/) -->

<svg
   xmlns:dc="http://purl.org/dc/elements/1.1/"
   xmlns:cc="http://creativecommons.org/ns#"
   xmlns:rdf="http://www.w3.org/1999/02/22-rdf-syntax-ns#"
   xmlns:svg="http://www.w3.org/2000/svg"
   xmlns="http://www.w3.org/2000/svg"
   xmlns:sodipodi="http://sodipodi.sourceforge.net/DTD/sodipodi-0.dtd"
   xmlns:inkscape="http://www.inkscape.org/namespaces/inkscape"
   width="130.95532"
   height="131.7869"
   id="svg2"
   inkscape:label="Pozadí"
   version="1.1"
   inkscape:version="0.48.5 r10040"
   sodipodi:docname="2015-CZ-01-EN_sealion_d.svg">
  <defs
     id="defs3" />
  <sodipodi:namedview
     id="base"
     pagecolor="#ffffff"
     bordercolor="#666666"
     borderopacity="1.0"
     inkscape:pageopacity="0.0"
     inkscape:pageshadow="2"
     inkscape:zoom="0.7071068"
     inkscape:cx="366.07513"
     inkscape:cy="47.071712"
     inkscape:document-units="px"
     inkscape:current-layer="layer1"
     showgrid="false"
     inkscape:window-width="1323"
     inkscape:window-height="748"
     inkscape:window-x="41"
     inkscape:window-y="-3"
     inkscape:window-maximized="1"
     fit-margin-top="0"
     fit-margin-left="0"
     fit-margin-right="0"
     fit-margin-bottom="0" />
  <metadata
     id="metadata6">
    <rdf:RDF>
      <cc:Work
         rdf:about="">
        <dc:format>image/svg+xml</dc:format>
        <dc:type
           rdf:resource="http://purl.org/dc/dcmitype/StillImage" />
        <dc:title />
      </cc:Work>
    </rdf:RDF>
  </metadata>
  <g
     inkscape:label="Vrstva 1"
     inkscape:groupmode="layer"
     id="layer1"
     transform="translate(-410.1321,-198.73356)">
    <path
       inkscape:connector-curvature="0"
       id="use3899-8-2"
       d="m 436.68275,264.03955 44.58119,-4.39065"
       style="fill:none;stroke:#ffff00;stroke-width:3;stroke-linecap:butt;stroke-linejoin:miter;stroke-miterlimit:4;stroke-opacity:1;stroke-dasharray:none" />
    <path
       inkscape:connector-curvature="0"
       id="use3899-2-8"
       d="m 486.84265,264.4022 21.46009,39.32207"
       style="fill:none;stroke:#ffff00;stroke-width:3;stroke-linecap:butt;stroke-linejoin:miter;stroke-miterlimit:4;stroke-opacity:1;stroke-dasharray:none" />
    <path
       inkscape:connector-curvature="0"
       id="use3899-1-1"
       d="M 495.04378,251.99642 523.1828,217.1402"
       style="fill:none;stroke:#ffff00;stroke-width:3;stroke-linecap:butt;stroke-linejoin:miter;stroke-miterlimit:4;stroke-opacity:1;stroke-dasharray:none" />
    <path
       inkscape:connector-curvature="0"
       id="use3899-83-4"
       d="m 423.7738,319.78852 0.82618,-44.78925"
       style="fill:none;stroke:#ffff00;stroke-width:3;stroke-linecap:butt;stroke-linejoin:miter;stroke-miterlimit:4;stroke-opacity:1;stroke-dasharray:none" />
    <path
       inkscape:connector-curvature="0"
       id="use3899-9-8"
       d="m 469.42845,313.42881 11.96584,-43.16919"
       style="fill:none;stroke:#ffff00;stroke-width:3;stroke-linecap:butt;stroke-linejoin:miter;stroke-miterlimit:4;stroke-opacity:1;stroke-dasharray:none" />
    <path
       sodipodi:type="arc"
       style="fill:#803300;fill-opacity:1;stroke:#000000;stroke-width:0.90899998;stroke-linecap:round;stroke-miterlimit:4;stroke-opacity:1;stroke-dasharray:none"
       id="path2984-7"
       sodipodi:cx="75.714287"
       sodipodi:cy="60.219326"
       sodipodi:rx="14.285714"
       sodipodi:ry="15"
       d="m 90.000001,60.219326 c 0,8.284271 -6.395932,15 -14.285714,15 -7.889782,0 -14.285714,-6.715729 -14.285714,-15 0,-8.284271 6.395932,-15 14.285714,-15 7.889782,0 14.285714,6.715729 14.285714,15 z"
       transform="matrix(1.018381,0,0,0.96988671,410.09058,198.46113)" />
    <path
       transform="matrix(0.8640568,0,0,0.78406806,358.13552,218.13628)"
       d="m 90.000001,60.219326 c 0,8.284271 -6.395932,15 -14.285714,15 -7.889782,0 -14.285714,-6.715729 -14.285714,-15 0,-8.284271 6.395932,-15 14.285714,-15 7.889782,0 14.285714,6.715729 14.285714,15 z"
       sodipodi:ry="15"
       sodipodi:rx="14.285714"
       sodipodi:cy="60.219326"
       sodipodi:cx="75.714287"
       id="use2986-31-09"
       style="fill:#803300;fill-opacity:1;stroke:#000000;stroke-width:0.90899998;stroke-linecap:round;stroke-miterlimit:4;stroke-opacity:1;stroke-dasharray:none"
       sodipodi:type="arc" />
    <path
       transform="matrix(0.8640568,0,0,0.78406806,357.42842,271.16929)"
       d="m 90.000001,60.219326 c 0,8.284271 -6.395932,15 -14.285714,15 -7.889782,0 -14.285714,-6.715729 -14.285714,-15 0,-8.284271 6.395932,-15 14.285714,-15 7.889782,0 14.285714,6.715729 14.285714,15 z"
       sodipodi:ry="15"
       sodipodi:rx="14.285714"
       sodipodi:cy="60.219326"
       sodipodi:cx="75.714287"
       id="use2986-31-6"
       style="fill:#803300;fill-opacity:1;stroke:#000000;stroke-width:0.90899998;stroke-linecap:round;stroke-miterlimit:4;stroke-opacity:1;stroke-dasharray:none"
       sodipodi:type="arc" />
    <path
       transform="matrix(0.8640568,0,0,0.78406806,401.97614,269.75508)"
       d="m 90.000001,60.219326 c 0,8.284271 -6.395932,15 -14.285714,15 -7.889782,0 -14.285714,-6.715729 -14.285714,-15 0,-8.284271 6.395932,-15 14.285714,-15 7.889782,0 14.285714,6.715729 14.285714,15 z"
       sodipodi:ry="15"
       sodipodi:rx="14.285714"
       sodipodi:cy="60.219326"
       sodipodi:cx="75.714287"
       id="use2986-31-25"
       style="fill:#803300;fill-opacity:1;stroke:#000000;stroke-width:0.90899998;stroke-linecap:round;stroke-miterlimit:4;stroke-opacity:1;stroke-dasharray:none"
       sodipodi:type="arc" />
    <path
       transform="matrix(0.8640568,0,0,0.78406806,446.52387,260.56269)"
       d="m 90.000001,60.219326 c 0,8.284271 -6.395932,15 -14.285714,15 -7.889782,0 -14.285714,-6.715729 -14.285714,-15 0,-8.284271 6.395932,-15 14.285714,-15 7.889782,0 14.285714,6.715729 14.285714,15 z"
       sodipodi:ry="15"
       sodipodi:rx="14.285714"
       sodipodi:cy="60.219326"
       sodipodi:cx="75.714287"
       id="use2986-31-74"
       style="fill:#803300;fill-opacity:1;stroke:#000000;stroke-width:0.90899998;stroke-linecap:round;stroke-miterlimit:4;stroke-opacity:1;stroke-dasharray:none"
       sodipodi:type="arc" />
    <path
       sodipodi:type="arc"
       style="fill:#803300;fill-opacity:1;stroke:#000000;stroke-width:0.90899998;stroke-linecap:round;stroke-miterlimit:4;stroke-opacity:1;stroke-dasharray:none"
       id="path2984-7-1"
       sodipodi:cx="75.714287"
       sodipodi:cy="60.219326"
       sodipodi:rx="14.285714"
       sodipodi:ry="15"
       d="m 90.000001,60.219326 c 0,8.284271 -6.395932,15 -14.285714,15 -7.889782,0 -14.285714,-6.715729 -14.285714,-15 0,-8.284271 6.395932,-15 14.285714,-15 7.889782,0 14.285714,6.715729 14.285714,15 z"
       transform="matrix(1.018381,0,0,0.96988671,448.98144,155.32764)" />
  </g>
</svg>
