<?xml version="1.0" encoding="UTF-8" standalone="no"?>
<!-- Created with Inkscape (http://www.inkscape.org/) -->

<svg
   xmlns:dc="http://purl.org/dc/elements/1.1/"
   xmlns:cc="http://creativecommons.org/ns#"
   xmlns:rdf="http://www.w3.org/1999/02/22-rdf-syntax-ns#"
   xmlns:svg="http://www.w3.org/2000/svg"
   xmlns="http://www.w3.org/2000/svg"
   xmlns:sodipodi="http://sodipodi.sourceforge.net/DTD/sodipodi-0.dtd"
   xmlns:inkscape="http://www.inkscape.org/namespaces/inkscape"
   width="121.60204"
   height="118.31543"
   id="svg2"
   inkscape:label="Pozadí"
   version="1.1"
   inkscape:version="0.48.5 r10040"
   sodipodi:docname="2015-CZ-01-EN_dog.svg">
  <defs
     id="defs3" />
  <sodipodi:namedview
     id="base"
     pagecolor="#ffffff"
     bordercolor="#666666"
     borderopacity="1.0"
     inkscape:pageopacity="0.0"
     inkscape:pageshadow="2"
     inkscape:zoom="0.7071068"
     inkscape:cx="734.32276"
     inkscape:cy="162.2417"
     inkscape:document-units="px"
     inkscape:current-layer="layer1"
     showgrid="false"
     inkscape:window-width="1323"
     inkscape:window-height="748"
     inkscape:window-x="41"
     inkscape:window-y="-3"
     inkscape:window-maximized="1"
     fit-margin-top="0"
     fit-margin-left="0"
     fit-margin-right="0"
     fit-margin-bottom="0" />
  <metadata
     id="metadata6">
    <rdf:RDF>
      <cc:Work
         rdf:about="">
        <dc:format>image/svg+xml</dc:format>
        <dc:type
           rdf:resource="http://purl.org/dc/dcmitype/StillImage" />
        <dc:title />
      </cc:Work>
    </rdf:RDF>
  </metadata>
  <g
     inkscape:label="Vrstva 1"
     inkscape:groupmode="layer"
     id="layer1"
     transform="translate(-45.485408,-407.02681)">
    <path
       inkscape:connector-curvature="0"
       id="use3899-6"
       d="m 127.86635,461.66867 24.98159,-37.18441"
       style="fill:none;stroke:#ffff00;stroke-width:3;stroke-linecap:butt;stroke-linejoin:miter;stroke-miterlimit:4;stroke-opacity:1;stroke-dasharray:none" />
    <path
       inkscape:connector-curvature="0"
       id="use3899-27"
       d="m 73.683202,463.47161 44.776448,1.35258"
       style="fill:none;stroke:#ffff00;stroke-width:3;stroke-linecap:butt;stroke-linejoin:miter;stroke-miterlimit:4;stroke-opacity:1;stroke-dasharray:none" />
    <path
       inkscape:connector-curvature="0"
       id="use3899-47"
       d="m 119.07356,467.37022 6.85288,44.26961"
       style="fill:none;stroke:#ffff00;stroke-width:3;stroke-linecap:butt;stroke-linejoin:miter;stroke-miterlimit:4;stroke-opacity:1;stroke-dasharray:none" />
    <path
       inkscape:connector-curvature="0"
       id="use3899-25"
       d="m 115.52504,467.62933 -9.6215,43.75142"
       style="fill:none;stroke:#ffff00;stroke-width:3;stroke-linecap:butt;stroke-linejoin:miter;stroke-miterlimit:4;stroke-opacity:1;stroke-dasharray:none" />
    <path
       inkscape:connector-curvature="0"
       id="use3899-63"
       d="m 72.324541,465.83841 5.35092,44.47615"
       style="fill:none;stroke:#ffff00;stroke-width:3;stroke-linecap:butt;stroke-linejoin:miter;stroke-miterlimit:4;stroke-opacity:1;stroke-dasharray:none" />
    <path
       inkscape:connector-curvature="0"
       id="use3899-40"
       d="M 71.089722,466.33262 60.338848,509.82031"
       style="fill:none;stroke:#ffff00;stroke-width:3;stroke-linecap:butt;stroke-linejoin:miter;stroke-miterlimit:4;stroke-opacity:1;stroke-dasharray:none" />
    <path
       transform="matrix(0.8640568,0,0,0.78406806,59.249764,465.28398)"
       d="m 90.000001,60.219326 c 0,8.284271 -6.395932,15 -14.285714,15 -7.889782,0 -14.285714,-6.715729 -14.285714,-15 0,-8.284271 6.395932,-15 14.285714,-15 7.889782,0 14.285714,6.715729 14.285714,15 z"
       sodipodi:ry="15"
       sodipodi:rx="14.285714"
       sodipodi:cy="60.219326"
       sodipodi:cx="75.714287"
       id="use2986-16"
       style="fill:#803300;fill-opacity:1;stroke:#000000;stroke-width:0.90899998;stroke-linecap:round;stroke-miterlimit:4;stroke-opacity:1;stroke-dasharray:none"
       sodipodi:type="arc" />
    <path
       transform="matrix(0.8640568,0,0,0.78406806,40.864988,465.99108)"
       d="m 90.000001,60.219326 c 0,8.284271 -6.395932,15 -14.285714,15 -7.889782,0 -14.285714,-6.715729 -14.285714,-15 0,-8.284271 6.395932,-15 14.285714,-15 7.889782,0 14.285714,6.715729 14.285714,15 z"
       sodipodi:ry="15"
       sodipodi:rx="14.285714"
       sodipodi:cy="60.219326"
       sodipodi:cx="75.714287"
       id="use2986-56"
       style="fill:#803300;fill-opacity:1;stroke:#000000;stroke-width:0.90899998;stroke-linecap:round;stroke-miterlimit:4;stroke-opacity:1;stroke-dasharray:none"
       sodipodi:type="arc" />
    <path
       transform="matrix(0.8640568,0,0,0.78406806,11.166503,464.57687)"
       d="m 90.000001,60.219326 c 0,8.284271 -6.395932,15 -14.285714,15 -7.889782,0 -14.285714,-6.715729 -14.285714,-15 0,-8.284271 6.395932,-15 14.285714,-15 7.889782,0 14.285714,6.715729 14.285714,15 z"
       sodipodi:ry="15"
       sodipodi:rx="14.285714"
       sodipodi:cy="60.219326"
       sodipodi:cx="75.714287"
       id="use2986-528"
       style="fill:#803300;fill-opacity:1;stroke:#000000;stroke-width:0.90899998;stroke-linecap:round;stroke-miterlimit:4;stroke-opacity:1;stroke-dasharray:none"
       sodipodi:type="arc" />
    <path
       transform="matrix(0.8640568,0,0,0.78406806,-7.2182728,463.86976)"
       d="m 90.000001,60.219326 c 0,8.284271 -6.395932,15 -14.285714,15 -7.889782,0 -14.285714,-6.715729 -14.285714,-15 0,-8.284271 6.395932,-15 14.285714,-15 7.889782,0 14.285714,6.715729 14.285714,15 z"
       sodipodi:ry="15"
       sodipodi:rx="14.285714"
       sodipodi:cy="60.219326"
       sodipodi:cx="75.714287"
       id="use2986-51"
       style="fill:#803300;fill-opacity:1;stroke:#000000;stroke-width:0.90899998;stroke-linecap:round;stroke-miterlimit:4;stroke-opacity:1;stroke-dasharray:none"
       sodipodi:type="arc" />
    <path
       transform="matrix(0.8640568,0,0,0.78406806,88.948244,371.94588)"
       d="m 90.000001,60.219326 c 0,8.284271 -6.395932,15 -14.285714,15 -7.889782,0 -14.285714,-6.715729 -14.285714,-15 0,-8.284271 6.395932,-15 14.285714,-15 7.889782,0 14.285714,6.715729 14.285714,15 z"
       sodipodi:ry="15"
       sodipodi:rx="14.285714"
       sodipodi:cy="60.219326"
       sodipodi:cx="75.714287"
       id="use2986-46"
       style="fill:#803300;fill-opacity:1;stroke:#000000;stroke-width:0.90899998;stroke-linecap:round;stroke-miterlimit:4;stroke-opacity:1;stroke-dasharray:none"
       sodipodi:type="arc" />
    <path
       sodipodi:type="arc"
       style="fill:#803300;fill-opacity:1;stroke:#000000;stroke-width:0.90899998;stroke-linecap:round;stroke-miterlimit:4;stroke-opacity:1;stroke-dasharray:none"
       id="path2984-4"
       sodipodi:cx="75.714287"
       sodipodi:cy="60.219326"
       sodipodi:rx="14.285714"
       sodipodi:ry="15"
       d="m 90.000001,60.219326 c 0,8.284271 -6.395932,15 -14.285714,15 -7.889782,0 -14.285714,-6.715729 -14.285714,-15 0,-8.284271 6.395932,-15 14.285714,-15 7.889782,0 14.285714,6.715729 14.285714,15 z"
       transform="matrix(1.018381,0,0,0.96988671,-4.9810994,404.2292)" />
    <path
       sodipodi:type="arc"
       style="fill:#803300;fill-opacity:1;stroke:#000000;stroke-width:0.90899998;stroke-linecap:round;stroke-miterlimit:4;stroke-opacity:1;stroke-dasharray:none"
       id="path2984-3"
       sodipodi:cx="75.714287"
       sodipodi:cy="60.219326"
       sodipodi:rx="14.285714"
       sodipodi:ry="15"
       d="m 90.000001,60.219326 c 0,8.284271 -6.395932,15 -14.285714,15 -7.889782,0 -14.285714,-6.715729 -14.285714,-15 0,-8.284271 6.395932,-15 14.285714,-15 7.889782,0 14.285714,6.715729 14.285714,15 z"
       transform="matrix(1.018381,0,0,0.96988671,41.687948,405.64341)" />
  </g>
</svg>
