<?xml version="1.0" encoding="UTF-8" standalone="no"?>
<!-- Created with Inkscape (http://www.inkscape.org/) -->

<svg
   xmlns:dc="http://purl.org/dc/elements/1.1/"
   xmlns:cc="http://creativecommons.org/ns#"
   xmlns:rdf="http://www.w3.org/1999/02/22-rdf-syntax-ns#"
   xmlns:svg="http://www.w3.org/2000/svg"
   xmlns="http://www.w3.org/2000/svg"
   xmlns:sodipodi="http://sodipodi.sourceforge.net/DTD/sodipodi-0.dtd"
   xmlns:inkscape="http://www.inkscape.org/namespaces/inkscape"
   width="135.74419"
   height="156.49921"
   id="svg2"
   inkscape:label="Pozadí"
   version="1.1"
   inkscape:version="0.48.5 r10040"
   sodipodi:docname="2015-CZ-01-EN_dog_d.svg">
  <defs
     id="defs3" />
  <sodipodi:namedview
     id="base"
     pagecolor="#ffffff"
     bordercolor="#666666"
     borderopacity="1.0"
     inkscape:pageopacity="0.0"
     inkscape:pageshadow="2"
     inkscape:zoom="0.7071068"
     inkscape:cx="298.39945"
     inkscape:cy="132.71638"
     inkscape:document-units="px"
     inkscape:current-layer="layer1"
     showgrid="false"
     inkscape:window-width="1323"
     inkscape:window-height="748"
     inkscape:window-x="41"
     inkscape:window-y="-3"
     inkscape:window-maximized="1"
     fit-margin-top="0"
     fit-margin-left="0"
     fit-margin-right="0"
     fit-margin-bottom="0" />
  <metadata
     id="metadata6">
    <rdf:RDF>
      <cc:Work
         rdf:about="">
        <dc:format>image/svg+xml</dc:format>
        <dc:type
           rdf:resource="http://purl.org/dc/dcmitype/StillImage" />
        <dc:title />
      </cc:Work>
    </rdf:RDF>
  </metadata>
  <g
     inkscape:label="Vrstva 1"
     inkscape:groupmode="layer"
     id="layer1"
     transform="translate(-402.35392,-373.42536)">
    <path
       inkscape:connector-curvature="0"
       id="use3899-6-6"
       d="m 494.11635,464.59776 24.98159,-37.18441"
       style="fill:none;stroke:#ffff00;stroke-width:3;stroke-linecap:butt;stroke-linejoin:miter;stroke-miterlimit:4;stroke-opacity:1;stroke-dasharray:none" />
    <path
       inkscape:connector-curvature="0"
       id="use3899-27-3"
       d="m 450.89836,441.35689 33.95784,29.21687"
       style="fill:none;stroke:#ffff00;stroke-width:3;stroke-linecap:butt;stroke-linejoin:miter;stroke-miterlimit:4;stroke-opacity:1;stroke-dasharray:none" />
    <path
       inkscape:connector-curvature="0"
       id="use3899-47-8"
       d="m 485.32356,470.29934 6.85289,44.2696"
       style="fill:none;stroke:#ffff00;stroke-width:3;stroke-linecap:butt;stroke-linejoin:miter;stroke-miterlimit:4;stroke-opacity:1;stroke-dasharray:none" />
    <path
       inkscape:connector-curvature="0"
       id="use3899-25-5"
       d="m 486.29149,467.09883 30.84308,32.48791"
       style="fill:none;stroke:#ffff00;stroke-width:3;stroke-linecap:butt;stroke-linejoin:miter;stroke-miterlimit:4;stroke-opacity:1;stroke-dasharray:none" />
    <path
       inkscape:connector-curvature="0"
       id="use3899-63-2"
       d="m 446.79205,388.81112 1.03773,44.78486"
       style="fill:none;stroke:#ffff00;stroke-width:3;stroke-linecap:butt;stroke-linejoin:miter;stroke-miterlimit:4;stroke-opacity:1;stroke-dasharray:none" />
    <path
       inkscape:connector-curvature="0"
       id="use3899-40-8"
       d="m 443.70071,441.27307 -25.49314,36.83558"
       style="fill:none;stroke:#ffff00;stroke-width:3;stroke-linecap:butt;stroke-linejoin:miter;stroke-miterlimit:4;stroke-opacity:1;stroke-dasharray:none" />
    <path
       transform="translate(446.60714,440.74675)"
       d="m 90.000001,60.219326 c 0,8.284271 -6.395932,15 -14.285714,15 -7.889782,0 -14.285714,-6.715729 -14.285714,-15 0,-8.284271 6.395932,-15 14.285714,-15 7.889782,0 14.285714,6.715729 14.285714,15 z"
       sodipodi:ry="15"
       sodipodi:rx="14.285714"
       sodipodi:cy="60.219326"
       sodipodi:cx="75.714287"
       id="use3010-1-7"
       style="fill:#803300;fill-opacity:1;stroke:#000000;stroke-width:0.90899998;stroke-linecap:round;stroke-miterlimit:4;stroke-opacity:1;stroke-dasharray:none"
       sodipodi:type="arc" />
    <path
       sodipodi:type="arc"
       style="fill:#803300;fill-opacity:1;stroke:#000000;stroke-width:0.90899998;stroke-linecap:round;stroke-miterlimit:4;stroke-opacity:1;stroke-dasharray:none"
       id="path2984-27"
       sodipodi:cx="75.714287"
       sodipodi:cy="60.219326"
       sodipodi:rx="14.285714"
       sodipodi:ry="15"
       d="m 90.000001,60.219326 c 0,8.284271 -6.395932,15 -14.285714,15 -7.889782,0 -14.285714,-6.715729 -14.285714,-15 0,-8.284271 6.395932,-15 14.285714,-15 7.889782,0 14.285714,6.715729 14.285714,15 z"
       transform="matrix(1.018381,0,0,0.96988671,412.2119,408.47184)" />
    <path
       sodipodi:type="arc"
       style="fill:#803300;fill-opacity:1;stroke:#000000;stroke-width:0.90899998;stroke-linecap:round;stroke-miterlimit:4;stroke-opacity:1;stroke-dasharray:none"
       id="path2984-00"
       sodipodi:cx="75.714287"
       sodipodi:cy="60.219326"
       sodipodi:rx="14.285714"
       sodipodi:ry="15"
       d="m 90.000001,60.219326 c 0,8.284271 -6.395932,15 -14.285714,15 -7.889782,0 -14.285714,-6.715729 -14.285714,-15 0,-8.284271 6.395932,-15 14.285714,-15 7.889782,0 14.285714,6.715729 14.285714,15 z"
       transform="matrix(1.018381,0,0,0.96988671,369.07839,380.18757)" />
    <path
       transform="matrix(0.8640568,0,0,0.78406806,349.65024,433.80385)"
       d="m 90.000001,60.219326 c 0,8.284271 -6.395932,15 -14.285714,15 -7.889782,0 -14.285714,-6.715729 -14.285714,-15 0,-8.284271 6.395932,-15 14.285714,-15 7.889782,0 14.285714,6.715729 14.285714,15 z"
       sodipodi:ry="15"
       sodipodi:rx="14.285714"
       sodipodi:cy="60.219326"
       sodipodi:cx="75.714287"
       id="use2986-31-23"
       style="fill:#803300;fill-opacity:1;stroke:#000000;stroke-width:0.90899998;stroke-linecap:round;stroke-miterlimit:4;stroke-opacity:1;stroke-dasharray:none"
       sodipodi:type="arc" />
    <path
       transform="matrix(0.8640568,0,0,0.78406806,381.47005,338.34443)"
       d="m 90.000001,60.219326 c 0,8.284271 -6.395932,15 -14.285714,15 -7.889782,0 -14.285714,-6.715729 -14.285714,-15 0,-8.284271 6.395932,-15 14.285714,-15 7.889782,0 14.285714,6.715729 14.285714,15 z"
       sodipodi:ry="15"
       sodipodi:rx="14.285714"
       sodipodi:cy="60.219326"
       sodipodi:cx="75.714287"
       id="use2986-31-7"
       style="fill:#803300;fill-opacity:1;stroke:#000000;stroke-width:0.90899998;stroke-linecap:round;stroke-miterlimit:4;stroke-opacity:1;stroke-dasharray:none"
       sodipodi:type="arc" />
    <path
       transform="matrix(0.8640568,0,0,0.78406806,459.9589,372.28556)"
       d="m 90.000001,60.219326 c 0,8.284271 -6.395932,15 -14.285714,15 -7.889782,0 -14.285714,-6.715729 -14.285714,-15 0,-8.284271 6.395932,-15 14.285714,-15 7.889782,0 14.285714,6.715729 14.285714,15 z"
       sodipodi:ry="15"
       sodipodi:rx="14.285714"
       sodipodi:cy="60.219326"
       sodipodi:cx="75.714287"
       id="use2986-31-3"
       style="fill:#803300;fill-opacity:1;stroke:#000000;stroke-width:0.90899998;stroke-linecap:round;stroke-miterlimit:4;stroke-opacity:1;stroke-dasharray:none"
       sodipodi:type="arc" />
    <path
       transform="matrix(0.8640568,0,0,0.78406806,428.8462,470.57341)"
       d="m 90.000001,60.219326 c 0,8.284271 -6.395932,15 -14.285714,15 -7.889782,0 -14.285714,-6.715729 -14.285714,-15 0,-8.284271 6.395932,-15 14.285714,-15 7.889782,0 14.285714,6.715729 14.285714,15 z"
       sodipodi:ry="15"
       sodipodi:rx="14.285714"
       sodipodi:cy="60.219326"
       sodipodi:cx="75.714287"
       id="use2986-31-8"
       style="fill:#803300;fill-opacity:1;stroke:#000000;stroke-width:0.90899998;stroke-linecap:round;stroke-miterlimit:4;stroke-opacity:1;stroke-dasharray:none"
       sodipodi:type="arc" />
  </g>
</svg>
