<?xml version="1.0" encoding="utf-8"?>
<!-- Generator: Adobe Illustrator 18.1.1, SVG Export Plug-In . SVG Version: 6.00 Build 0)  -->
<svg version="1.1" id="Layer_1" xmlns="http://www.w3.org/2000/svg" xmlns:xlink="http://www.w3.org/1999/xlink" x="0px" y="0px"
	 viewBox="0 0 824.9 148.5" enable-background="new 0 0 824.9 148.5" xml:space="preserve">
<g>
	<path fill="none" stroke="#594A42" stroke-width="3" stroke-miterlimit="10" d="M0.5,53.6c0,0,231.7,87.4,438,18.2
		c167-56,386,4,386,4"/>
	<path fill="#00A79D" d="M242.9,148.5L242.9,148.5c-27.5,0-50-22.5-50-50v0c0-27.5,22.5-50,50-50h0c27.5,0,50,22.5,50,50v0
		C292.9,126,270.4,148.5,242.9,148.5z"/>
	<polygon fill="#27AAE1" points="356.4,136 320.7,101 333.3,52.6 381.5,39.2 417.1,74.3 404.5,122.7 	"/>
	<polygon fill="#F9ED32" points="482.9,8.5 498.4,39.8 532.9,44.9 507.9,69.2 513.8,103.6 482.9,87.4 452,103.6 457.9,69.2 
		432.9,44.9 467.5,39.8 	"/>
	<path fill="#D7DF23" d="M683.1,70.4l9.8-40.8c2.5-10.2,12.7-16.5,22.9-14l40.8,9.8c10.2,2.5,16.5,12.7,14,22.9l-9.8,40.8
		c-2.5,10.2-12.7,16.5-22.9,14l-40.8-9.8C686.9,90.8,680.7,80.6,683.1,70.4z"/>
	
		<rect x="84.9" y="41.3" transform="matrix(-0.2073 0.9783 -0.9783 -0.2073 230.3818 -23.9906)" fill="#EE2A7B" width="80" height="80"/>
	<polygon fill="#FBB040" points="555.9,78.5 605.9,0 655.9,78.5 	"/>
</g>
</svg>
