<?xml version="1.0" encoding="utf-8"?>
<!-- Generator: Adobe Illustrator 18.1.1, SVG Export Plug-In . SVG Version: 6.00 Build 0)  -->
<svg version="1.1" id="Layer_1" xmlns="http://www.w3.org/2000/svg" xmlns:xlink="http://www.w3.org/1999/xlink" x="0px" y="0px"
	 viewBox="0 0 307.6 356.7" enable-background="new 0 0 307.6 356.7" xml:space="preserve">
<g>
	<circle fill="none" stroke="#594A42" stroke-width="3" stroke-miterlimit="10" cx="147.3" cy="175" r="128.8"/>
	<path fill="#00A79D" stroke="#FFFFFF" stroke-miterlimit="10" d="M100.5,100.2L100.5,100.2c0-27.5-22.5-50-50-50h0
		c-27.5,0-50,22.5-50,50v0c0,27.5,22.5,50,50,50h0C78,150.2,100.5,127.7,100.5,100.2z"/>
	<polygon fill="#27AAE1" stroke="#FFFFFF" stroke-miterlimit="10" points="268.4,213 219.3,203.5 186.5,241.3 202.9,288.6 
		251.9,298 284.7,260.3 	"/>
	<polygon fill="#F9ED32" stroke="#FFFFFF" stroke-miterlimit="10" points="110.1,355.7 136.1,332.4 170.1,340.6 156,308.7 
		174.3,278.9 139.5,282.5 116.9,255.9 109.6,290 77.3,303.3 107.5,320.9 	"/>
	<path fill="#D7DF23" stroke="#FFFFFF" stroke-miterlimit="10" d="M268.6,83.1l-39.8,13.5c-9.9,3.4-15.3,14.1-11.9,24.1l13.5,39.8
		c3.4,9.9,14.1,15.3,24.1,11.9l39.8-13.5c9.9-3.4,15.3-14.1,11.9-24.1L292.7,95C289.3,85.1,278.5,79.8,268.6,83.1z"/>
	<rect x="126.1" y="0.5" fill="#EE2A7B" stroke="#FFFFFF" stroke-miterlimit="10" width="80" height="80"/>
	<polygon fill="#FBB040" points="93.7,251.5 1.8,265.9 27.6,176.5 	"/>
</g>
</svg>
