<?xml version="1.0" encoding="utf-8"?>
<!-- Generator: Adobe Illustrator 18.1.1, SVG Export Plug-In . SVG Version: 6.00 Build 0)  -->
<svg version="1.1" id="Layer_1" xmlns="http://www.w3.org/2000/svg" xmlns:xlink="http://www.w3.org/1999/xlink" x="0px" y="0px"
	 viewBox="0 0 341 347.8" enable-background="new 0 0 341 347.8" xml:space="preserve">
<g>
	<circle fill="none" stroke="#594A42" stroke-width="3" stroke-miterlimit="10" cx="171.4" cy="165.5" r="128.8"/>
	<path fill="#00A79D" stroke="#FFFFFF" stroke-miterlimit="10" d="M19.2,228.3L19.2,228.3c21.5,17.2,53.1,13.7,70.3-7.7l0,0
		c17.2-21.5,13.7-53.1-7.7-70.3l0,0c-21.5-17.2-53.1-13.7-70.3,7.7l0,0C-5.8,179.5-2.3,211.1,19.2,228.3z"/>
	<polygon fill="#27AAE1" stroke="#FFFFFF" stroke-miterlimit="10" points="302.4,193 340.4,160.6 331.5,111.4 284.4,94.6 246.3,127 
		255.3,176.2 	"/>
	<polygon fill="#F9ED32" stroke="#FFFFFF" stroke-miterlimit="10" points="114.1,248.7 116,283.5 88.4,304.9 122.2,313.8 
		133.9,346.7 152.9,317.4 187.7,316.4 165.7,289.3 175.5,255.8 143,268.4 	"/>
	<path fill="#D7DF23" stroke="#FFFFFF" stroke-miterlimit="10" d="M105.1,108.2l31.9-27.4c8-6.8,8.9-18.8,2-26.8l-27.4-31.9
		c-6.8-8-18.8-8.9-26.8-2L53,47.5c-8,6.8-8.9,18.8-2,26.8l27.4,31.9C85.1,114.1,97.1,115,105.1,108.2z"/>
	
		<rect x="224.7" y="224.2" transform="matrix(-0.6254 0.7803 -0.7803 -0.6254 636.4068 222.8814)" fill="#EE2A7B" stroke="#FFFFFF" stroke-miterlimit="10" width="80" height="80"/>
	<polygon fill="#FBB040" points="155.9,73.4 213.1,0 255.5,82.8 	"/>
</g>
</svg>
