<?xml version="1.0" encoding="utf-8"?>
<!-- Generator: Adobe Illustrator 18.1.1, SVG Export Plug-In . SVG Version: 6.00 Build 0)  -->
<svg version="1.1" id="Layer_1" xmlns="http://www.w3.org/2000/svg" xmlns:xlink="http://www.w3.org/1999/xlink" x="0px" y="0px"
	 viewBox="0 0 333.1 342.5" enable-background="new 0 0 333.1 342.5" xml:space="preserve">
<g>
	<circle fill="none" stroke="#594A42" stroke-width="3" stroke-miterlimit="10" cx="164.3" cy="172.3" r="128.8"/>
	<path fill="#00A79D" stroke="#FFFFFF" stroke-miterlimit="10" d="M151.5,259.7L151.5,259.7c-17.8,20.9-15.3,52.7,5.6,70.5l0,0
		c20.9,17.8,52.7,15.3,70.5-5.6l0,0c17.8-20.9,15.3-52.7-5.6-70.5l0,0C201,236.2,169.3,238.7,151.5,259.7z"/>
	<polygon fill="#27AAE1" stroke="#FFFFFF" stroke-miterlimit="10" points="233.4,214.1 263.8,253.7 313.4,247.2 332.5,201 
		302.1,161.3 252.5,167.9 	"/>
	<polygon fill="#F9ED32" stroke="#FFFFFF" stroke-miterlimit="10" points="309.8,59 274.9,59.8 254.4,31.6 244.5,65 211.2,75.8 
		240,95.6 239.9,130.5 267.7,109.3 300.9,120.1 289.3,87.2 	"/>
	<path fill="#D7DF23" stroke="#FFFFFF" stroke-miterlimit="10" d="M12.5,163.6l39,15.6c9.7,3.9,20.8-0.9,24.7-10.6l15.6-39
		c3.9-9.7-0.9-20.8-10.6-24.7l-39-15.6c-9.7-3.9-20.8,0.9-24.7,10.6L1.9,139C-2,148.7,2.7,159.8,12.5,163.6z"/>
	
		<rect x="22.8" y="222.6" transform="matrix(-0.7612 -0.6486 0.6486 -0.7612 -59.6376 503.2121)" fill="#EE2A7B" stroke="#FFFFFF" stroke-miterlimit="10" width="80" height="80"/>
	<polygon fill="#FBB040" points="90.7,88.1 120.8,0 187.9,64.4 	"/>
</g>
</svg>
