<?xml version="1.0" encoding="utf-8"?>
<!-- Generator: Adobe Illustrator 18.1.1, SVG Export Plug-In . SVG Version: 6.00 Build 0)  -->
<svg version="1.1" id="Layer_1" xmlns="http://www.w3.org/2000/svg" xmlns:xlink="http://www.w3.org/1999/xlink" x="0px" y="0px"
	 viewBox="0 0 344.6 331.6" enable-background="new 0 0 344.6 331.6" xml:space="preserve">
<g>
	<circle fill="none" stroke="#594A42" stroke-width="3" stroke-miterlimit="10" cx="172.8" cy="165.6" r="128.8"/>
	<path fill="#00A79D" stroke="#FFFFFF" stroke-miterlimit="10" d="M258.8,145.8L258.8,145.8c19.4-19.4,51.3-19.4,70.7,0l0,0
		c19.4,19.4,19.4,51.3,0,70.7l0,0c-19.4,19.4-51.3,19.4-70.7,0l0,0C239.4,197.1,239.4,165.3,258.8,145.8z"/>
	<polygon fill="#27AAE1" stroke="#FFFFFF" stroke-miterlimit="10" points="219.9,231.1 261.8,258.3 259.3,308.3 214.8,331 
		172.8,303.8 175.3,253.9 	"/>
	<polygon fill="#F9ED32" stroke="#FFFFFF" stroke-miterlimit="10" points="27.7,175.6 29.1,140.7 1.1,119.8 34.7,110.3 45.9,77.3 
		65.3,106.3 100.3,106.8 78.6,134.2 89,167.6 56.2,155.5 	"/>
	<path fill="#D7DF23" stroke="#FFFFFF" stroke-miterlimit="10" d="M152,14.9l18.6,37.7c4.6,9.4,0.8,20.8-8.6,25.4l-37.7,18.6
		c-9.4,4.6-20.8,0.8-25.4-8.6L80.3,50.4c-4.6-9.4-0.8-20.8,8.6-25.4l37.7-18.6C136,1.7,147.4,5.5,152,14.9z"/>
	
		<rect x="214.7" y="17.3" transform="matrix(-0.7071 -0.7071 0.7071 -0.7071 394.2372 277.8497)" fill="#EE2A7B" stroke="#FFFFFF" stroke-miterlimit="10" width="80" height="80"/>
	<polygon fill="#FBB040" points="139.3,273.7 48.8,295.1 67.6,204 	"/>
</g>
</svg>
