<?xml version="1.0" encoding="utf-8"?>
<!-- Generator: Adobe Illustrator 18.1.1, SVG Export Plug-In . SVG Version: 6.00 Build 0)  -->
<svg version="1.1" id="レイヤー_1" xmlns="http://www.w3.org/2000/svg" xmlns:xlink="http://www.w3.org/1999/xlink" x="0px"
	 y="0px" viewBox="0 0 595.3 841.9" enable-background="new 0 0 595.3 841.9" xml:space="preserve">
<rect x="348.3" y="134" fill="#FFFFFF" stroke="#040000" stroke-miterlimit="10" width="24.1" height="24.1"/>
<rect x="83.5" y="158.1" fill="#FFFFFF" stroke="#040000" stroke-miterlimit="10" width="24.1" height="24.1"/>
<rect x="107.6" y="158.1" fill="#FFFFFF" stroke="#040000" stroke-miterlimit="10" width="24.1" height="24.1"/>
<rect x="131.7" y="158.1" fill="#FFFFFF" stroke="#040000" stroke-miterlimit="10" width="24.1" height="24.1"/>
<rect x="155.6" y="158.1" fill="#FFFFFF" stroke="#040000" stroke-miterlimit="10" width="24.1" height="24.1"/>
<rect x="179.7" y="158.1" stroke="#040000" stroke-miterlimit="10" width="24.1" height="24.1"/>
<rect x="203.8" y="158.1" fill="#FFFFFF" stroke="#040000" stroke-miterlimit="10" width="24.1" height="24.1"/>
<rect x="227.9" y="158.1" fill="#FFFFFF" stroke="#040000" stroke-miterlimit="10" width="24.1" height="24.1"/>
<rect x="252" y="158.1" fill="#FFFFFF" stroke="#040000" stroke-miterlimit="10" width="24.1" height="24.1"/>
<rect x="276.1" y="158.1" stroke="#040000" stroke-miterlimit="10" width="24.1" height="24.1"/>
<rect x="300.2" y="158.1" fill="#FFFFFF" stroke="#040000" stroke-miterlimit="10" width="24.1" height="24.1"/>
<rect x="83.5" y="182.2" fill="#FFFFFF" stroke="#040000" stroke-miterlimit="10" width="24.1" height="24.1"/>
<rect x="107.6" y="182.2" stroke="#040000" stroke-miterlimit="10" width="24.1" height="24.1"/>
<rect x="131.7" y="182.2" fill="#FFFFFF" stroke="#040000" stroke-miterlimit="10" width="24.1" height="24.1"/>
<rect x="155.6" y="182.2" stroke="#040000" stroke-miterlimit="10" width="24.1" height="24.1"/>
<rect x="179.7" y="182.2" fill="#FFFFFF" stroke="#040000" stroke-miterlimit="10" width="24.1" height="24.1"/>
<rect x="203.8" y="182.2" fill="#FFFFFF" stroke="#040000" stroke-miterlimit="10" width="24.1" height="24.1"/>
<rect x="227.9" y="182.2" stroke="#040000" stroke-miterlimit="10" width="24.1" height="24.1"/>
<rect x="252" y="182.2" stroke="#040000" stroke-miterlimit="10" width="24.1" height="24.1"/>
<rect x="276.1" y="182.2" fill="#FFFFFF" stroke="#040000" stroke-miterlimit="10" width="24.1" height="24.1"/>
<rect x="300.2" y="182.2" fill="#FFFFFF" stroke="#040000" stroke-miterlimit="10" width="24.1" height="24.1"/>
<rect x="324.3" y="182.2" fill="#FFFFFF" stroke="#040000" stroke-miterlimit="10" width="24.1" height="24.1"/>
<rect x="83.5" y="206.3" fill="#FFFFFF" stroke="#040000" stroke-miterlimit="10" width="24.1" height="24.1"/>
<rect x="107.6" y="206.3" fill="#FFFFFF" stroke="#040000" stroke-miterlimit="10" width="24.1" height="24.1"/>
<rect x="131.7" y="206.3" stroke="#040000" stroke-miterlimit="10" width="24.1" height="24.1"/>
<rect x="155.6" y="206.3" fill="#FFFFFF" stroke="#040000" stroke-miterlimit="10" width="24.1" height="24.1"/>
<rect x="179.7" y="206.3" stroke="#040000" stroke-miterlimit="10" width="24.1" height="24.1"/>
<rect x="203.8" y="206.3" stroke="#040000" stroke-miterlimit="10" width="24.1" height="24.1"/>
<rect x="227.9" y="206.3" fill="#FFFFFF" stroke="#040000" stroke-miterlimit="10" width="24.1" height="24.1"/>
<rect x="252" y="206.3" fill="#FFFFFF" stroke="#040000" stroke-miterlimit="10" width="24.1" height="24.1"/>
<rect x="276.1" y="206.3" fill="#FFFFFF" stroke="#040000" stroke-miterlimit="10" width="24.1" height="24.1"/>
<rect x="300.2" y="206.3" stroke="#040000" stroke-miterlimit="10" width="24.1" height="24.1"/>
<rect x="324.3" y="206.3" fill="#FFFFFF" stroke="#040000" stroke-miterlimit="10" width="24.1" height="24.1"/>
<rect x="83.5" y="230.4" fill="#FFFFFF" stroke="#040000" stroke-miterlimit="10" width="24.1" height="24.1"/>
<rect x="107.6" y="230.4" fill="#FFFFFF" stroke="#040000" stroke-miterlimit="10" width="24.1" height="24.1"/>
<rect x="131.7" y="230.4" fill="#FFFFFF" stroke="#040000" stroke-miterlimit="10" width="24.1" height="24.1"/>
<rect x="155.6" y="230.4" fill="#FFFFFF" stroke="#040000" stroke-miterlimit="10" width="24.1" height="24.1"/>
<rect x="179.7" y="230.4" fill="#FFFFFF" stroke="#040000" stroke-miterlimit="10" width="24.1" height="24.1"/>
<rect x="203.8" y="230.4" fill="#FFFFFF" stroke="#040000" stroke-miterlimit="10" width="24.1" height="24.1"/>
<rect x="227.9" y="230.4" fill="#FFFFFF" stroke="#040000" stroke-miterlimit="10" width="24.1" height="24.1"/>
<rect x="252" y="230.4" fill="#FFFFFF" stroke="#040000" stroke-miterlimit="10" width="24.1" height="24.1"/>
<rect x="276.1" y="230.4" fill="#FFFFFF" stroke="#040000" stroke-miterlimit="10" width="24.1" height="24.1"/>
<rect x="300.2" y="230.4" stroke="#040000" stroke-miterlimit="10" width="24.1" height="24.1"/>
<rect x="324.3" y="230.4" fill="#FFFFFF" stroke="#040000" stroke-miterlimit="10" width="24.1" height="24.1"/>
<rect x="83.5" y="254.5" fill="#FFFFFF" stroke="#040000" stroke-miterlimit="10" width="24.1" height="24.1"/>
<rect x="107.6" y="254.5" fill="#FFFFFF" stroke="#040000" stroke-miterlimit="10" width="24.1" height="24.1"/>
<rect x="131.7" y="254.5" fill="#FFFFFF" stroke="#040000" stroke-miterlimit="10" width="24.1" height="24.1"/>
<rect x="155.6" y="254.5" fill="#FFFFFF" stroke="#040000" stroke-miterlimit="10" width="24.1" height="24.1"/>
<rect x="179.7" y="254.5" fill="#FFFFFF" stroke="#040000" stroke-miterlimit="10" width="24.1" height="24.1"/>
<rect x="203.8" y="254.5" stroke="#040000" stroke-miterlimit="10" width="24.1" height="24.1"/>
<rect x="227.9" y="254.5" fill="#FFFFFF" stroke="#040000" stroke-miterlimit="10" width="24.1" height="24.1"/>
<rect x="252" y="254.5" stroke="#040000" stroke-miterlimit="10" width="24.1" height="24.1"/>
<rect x="276.1" y="254.5" stroke="#040000" stroke-miterlimit="10" width="24.1" height="24.1"/>
<rect x="300.2" y="254.5" fill="#FFFFFF" stroke="#040000" stroke-miterlimit="10" width="24.1" height="24.1"/>
<rect x="324.3" y="254.5" fill="#FFFFFF" stroke="#040000" stroke-miterlimit="10" width="24.1" height="24.1"/>
<rect x="83.5" y="278.6" fill="#A3CC34" stroke="#040000" stroke-miterlimit="10" width="24.1" height="24.1"/>
<rect x="107.6" y="278.6" fill="#FFFFFF" stroke="#040000" stroke-miterlimit="10" width="24.1" height="24.1"/>
<rect x="131.7" y="278.6" stroke="#040000" stroke-miterlimit="10" width="24.1" height="24.1"/>
<rect x="155.6" y="278.6" fill="#FFFFFF" stroke="#040000" stroke-miterlimit="10" width="24.1" height="24.1"/>
<rect x="179.7" y="278.6" fill="#FFFFFF" stroke="#040000" stroke-miterlimit="10" width="24.1" height="24.1"/>
<rect x="203.8" y="278.6" fill="#FFFFFF" stroke="#040000" stroke-miterlimit="10" width="24.1" height="24.1"/>
<rect x="227.9" y="278.6" fill="#FFFFFF" stroke="#040000" stroke-miterlimit="10" width="24.1" height="24.1"/>
<rect x="252" y="278.6" fill="#FFFFFF" stroke="#040000" stroke-miterlimit="10" width="24.1" height="24.1"/>
<rect x="276.1" y="278.6" fill="#FFFFFF" stroke="#040000" stroke-miterlimit="10" width="24.1" height="24.1"/>
<rect x="300.2" y="278.6" fill="#FFFFFF" stroke="#040000" stroke-miterlimit="10" width="24.1" height="24.1"/>
<rect x="324.3" y="278.6" fill="#FFFFFF" stroke="#040000" stroke-miterlimit="10" width="24.1" height="24.1"/>
<rect x="348.3" y="158.1" fill="#F7C3B8" stroke="#040000" stroke-miterlimit="10" width="24.1" height="24.1"/>
<text transform="matrix(1 0 0 1 357.3901 172.5682)" font-family="'Times-Roman'" font-size="12">1</text>
<rect x="348.3" y="182.2" fill="#F7C3B8" stroke="#040000" stroke-miterlimit="10" width="24.1" height="24.1"/>
<text transform="matrix(1 0 0 1 357.3901 196.6694)" font-family="'Times-Roman'" font-size="12">2</text>
<rect x="348.3" y="206.3" fill="#F7C3B8" stroke="#040000" stroke-miterlimit="10" width="24.1" height="24.1"/>
<text transform="matrix(1 0 0 1 357.3901 220.7705)" font-family="'Times-Roman'" font-size="12">3</text>
<rect x="348.3" y="230.4" fill="#F7C3B8" stroke="#040000" stroke-miterlimit="10" width="24.1" height="24.1"/>
<text transform="matrix(1 0 0 1 357.3901 244.8716)" font-family="'Times-Roman'" font-size="12">4</text>
<rect x="348.3" y="254.5" fill="#F7C3B8" stroke="#040000" stroke-miterlimit="10" width="24.1" height="24.1"/>
<text transform="matrix(1 0 0 1 357.3901 268.9728)" font-family="'Times-Roman'" font-size="12">5</text>
<rect x="348.3" y="278.6" fill="#F7C3B8" stroke="#040000" stroke-miterlimit="10" width="24.1" height="24.1"/>
<text transform="matrix(1 0 0 1 357.3901 293.0739)" font-family="'Times-Roman'" font-size="12">6</text>
<g>
	<rect x="324.3" y="134" fill="#F9F3AF" stroke="#040000" stroke-miterlimit="10" width="24.1" height="24.1"/>
	<text transform="matrix(1 0 0 1 333.2077 149.7215)" font-family="'TimesNewRomanPSMT'" font-size="14">a</text>
</g>
<g>
	<rect x="300.2" y="134" fill="#F9F3AF" stroke="#040000" stroke-miterlimit="10" width="24.1" height="24.1"/>
	<text transform="matrix(1 0 0 1 309.1065 149.7215)" font-family="'TimesNewRomanPSMT'" font-size="14">b</text>
</g>
<g>
	<rect x="276.1" y="134" fill="#F9F3AF" stroke="#040000" stroke-miterlimit="10" width="24.1" height="24.1"/>
	<text transform="matrix(1 0 0 1 285.0054 149.7215)" font-family="'TimesNewRomanPSMT'" font-size="14">c</text>
</g>
<g>
	<rect x="252" y="134" fill="#F9F3AF" stroke="#040000" stroke-miterlimit="10" width="24.1" height="24.1"/>
	<text transform="matrix(1 0 0 1 260.9043 149.7215)" font-family="'TimesNewRomanPSMT'" font-size="14">d</text>
</g>
<g>
	<rect x="227.9" y="134" fill="#F9F3AF" stroke="#040000" stroke-miterlimit="10" width="24.1" height="24.1"/>
	<text transform="matrix(1 0 0 1 236.8031 149.7215)" font-family="'TimesNewRomanPSMT'" font-size="14">e</text>
</g>
<g>
	<rect x="203.8" y="134" fill="#F9F3AF" stroke="#040000" stroke-miterlimit="10" width="24.1" height="24.1"/>
	<text transform="matrix(1 0 0 1 212.702 149.7215)" font-family="'TimesNewRomanPSMT'" font-size="14">f</text>
</g>
<g>
	<rect x="179.7" y="134" fill="#F9F3AF" stroke="#040000" stroke-miterlimit="10" width="24.1" height="24.1"/>
	<text transform="matrix(1 0 0 1 188.6009 149.7215)" font-family="'TimesNewRomanPSMT'" font-size="14">g</text>
</g>
<g>
	<rect x="155.6" y="134" fill="#F9F3AF" stroke="#040000" stroke-miterlimit="10" width="24.1" height="24.1"/>
	<text transform="matrix(1 0 0 1 164.4997 149.7215)" font-family="'TimesNewRomanPSMT'" font-size="14">h</text>
</g>
<g>
	<rect x="131.7" y="134" fill="#F9F3AF" stroke="#040000" stroke-miterlimit="10" width="24.1" height="24.1"/>
	<text transform="matrix(1 0 0 1 140.6333 149.7215)" font-family="'TimesNewRomanPSMT'" font-size="14">i</text>
</g>
<g>
	<rect x="107.6" y="134" fill="#F9F3AF" stroke="#040000" stroke-miterlimit="10" width="24.1" height="24.1"/>
	<text transform="matrix(1 0 0 1 116.5321 149.7215)" font-family="'TimesNewRomanPSMT'" font-size="14">j</text>
</g>
<g>
	<rect x="83.5" y="134" fill="#F9F3AF" stroke="#040000" stroke-miterlimit="10" width="24.1" height="24.1"/>
	<text transform="matrix(1 0 0 1 92.431 149.7215)" font-family="'TimesNewRomanPSMT'" font-size="14">k</text>
</g>
<g id="Gnavwd.tif">
	
		<image overflow="visible" width="387" height="281" id="レイヤー_1_2_" xlink:href="ED57CBD2A660908E.png"  transform="matrix(6.000000e-02 0 0 6.000000e-02 324.7046 161.7217)">
	</image>
</g>
<text transform="matrix(1 0 0 1 332.7106 198.2438)" fill="#1D2088" stroke="#1D2088" stroke-miterlimit="10" font-family="'Helvetica'" font-size="12">1</text>
<g>
	
		<text transform="matrix(1 0 0 1 308.2187 173.6366)" fill="#1D2088" stroke="#1D2088" stroke-miterlimit="10" font-family="'Helvetica'" font-size="12">1</text>
	
		<text transform="matrix(1 0 0 1 308.2189 198.244)" fill="#1D2088" stroke="#1D2088" stroke-miterlimit="10" font-family="'Helvetica'" font-size="12">1</text>
</g>
<g>
</g>
<g>
</g>
<g>
</g>
<g>
</g>
<g>
</g>
<g>
</g>
<g>
</g>
<g>
</g>
<g>
</g>
</svg>
