<?xml version="1.0" encoding="utf-8"?>
<!-- Generator: Adobe Illustrator 18.1.1, SVG Export Plug-In . SVG Version: 6.00 Build 0)  -->
<svg version="1.1" id="レイヤー_1" xmlns="http://www.w3.org/2000/svg" xmlns:xlink="http://www.w3.org/1999/xlink" x="0px"
	 y="0px" viewBox="0 0 595.3 841.9" enable-background="new 0 0 595.3 841.9" xml:space="preserve">
<rect x="348.3" y="134" fill="#FFFFFF" stroke="#040000" stroke-miterlimit="10" width="24.1" height="24.1"/>
<rect x="83.5" y="158.1" fill="#FFFFFF" stroke="#040000" stroke-miterlimit="10" width="24.1" height="24.1"/>
<rect x="107.6" y="158.1" fill="#FFFFFF" stroke="#040000" stroke-miterlimit="10" width="24.1" height="24.1"/>
<rect x="131.7" y="158.1" fill="#FFFFFF" stroke="#040000" stroke-miterlimit="10" width="24.1" height="24.1"/>
<rect x="155.6" y="158.1" fill="#FFFFFF" stroke="#040000" stroke-miterlimit="10" width="24.1" height="24.1"/>
<rect x="179.7" y="158.1" stroke="#040000" stroke-miterlimit="10" width="24.1" height="24.1"/>
<rect x="203.8" y="158.1" fill="#FFFFFF" stroke="#040000" stroke-miterlimit="10" width="24.1" height="24.1"/>
<rect x="227.9" y="158.1" fill="#FFFFFF" stroke="#040000" stroke-miterlimit="10" width="24.1" height="24.1"/>
<rect x="252" y="158.1" fill="#FFFFFF" stroke="#040000" stroke-miterlimit="10" width="24.1" height="24.1"/>
<rect x="276.1" y="158.1" stroke="#040000" stroke-miterlimit="10" width="24.1" height="24.1"/>
<rect x="300.2" y="158.1" fill="#FFFFFF" stroke="#040000" stroke-miterlimit="10" width="24.1" height="24.1"/>
<rect x="83.5" y="182.2" fill="#FFFFFF" stroke="#040000" stroke-miterlimit="10" width="24.1" height="24.1"/>
<rect x="107.6" y="182.2" stroke="#040000" stroke-miterlimit="10" width="24.1" height="24.1"/>
<rect x="131.7" y="182.2" fill="#FFFFFF" stroke="#040000" stroke-miterlimit="10" width="24.1" height="24.1"/>
<rect x="155.6" y="182.2" stroke="#040000" stroke-miterlimit="10" width="24.1" height="24.1"/>
<rect x="179.7" y="182.2" fill="#FFFFFF" stroke="#040000" stroke-miterlimit="10" width="24.1" height="24.1"/>
<rect x="203.8" y="182.2" fill="#FFFFFF" stroke="#040000" stroke-miterlimit="10" width="24.1" height="24.1"/>
<rect x="227.9" y="182.2" stroke="#040000" stroke-miterlimit="10" width="24.1" height="24.1"/>
<rect x="252" y="182.2" stroke="#040000" stroke-miterlimit="10" width="24.1" height="24.1"/>
<rect x="276.1" y="182.2" fill="#FFFFFF" stroke="#040000" stroke-miterlimit="10" width="24.1" height="24.1"/>
<rect x="300.2" y="182.2" fill="#FFFFFF" stroke="#040000" stroke-miterlimit="10" width="24.1" height="24.1"/>
<rect x="324.3" y="182.2" fill="#FFFFFF" stroke="#040000" stroke-miterlimit="10" width="24.1" height="24.1"/>
<rect x="83.5" y="206.3" fill="#FFFFFF" stroke="#040000" stroke-miterlimit="10" width="24.1" height="24.1"/>
<rect x="107.6" y="206.3" fill="#FFFFFF" stroke="#040000" stroke-miterlimit="10" width="24.1" height="24.1"/>
<rect x="131.7" y="206.3" stroke="#040000" stroke-miterlimit="10" width="24.1" height="24.1"/>
<rect x="155.6" y="206.3" fill="#FFFFFF" stroke="#040000" stroke-miterlimit="10" width="24.1" height="24.1"/>
<rect x="179.7" y="206.3" stroke="#040000" stroke-miterlimit="10" width="24.1" height="24.1"/>
<rect x="203.8" y="206.3" stroke="#040000" stroke-miterlimit="10" width="24.1" height="24.1"/>
<rect x="227.9" y="206.3" fill="#FFFFFF" stroke="#040000" stroke-miterlimit="10" width="24.1" height="24.1"/>
<rect x="252" y="206.3" fill="#FFFFFF" stroke="#040000" stroke-miterlimit="10" width="24.1" height="24.1"/>
<rect x="276.1" y="206.3" fill="#FFFFFF" stroke="#040000" stroke-miterlimit="10" width="24.1" height="24.1"/>
<rect x="300.2" y="206.3" stroke="#040000" stroke-miterlimit="10" width="24.1" height="24.1"/>
<rect x="324.3" y="206.3" fill="#FFFFFF" stroke="#040000" stroke-miterlimit="10" width="24.1" height="24.1"/>
<rect x="83.5" y="230.4" fill="#FFFFFF" stroke="#040000" stroke-miterlimit="10" width="24.1" height="24.1"/>
<rect x="107.6" y="230.4" fill="#FFFFFF" stroke="#040000" stroke-miterlimit="10" width="24.1" height="24.1"/>
<rect x="131.7" y="230.4" fill="#FFFFFF" stroke="#040000" stroke-miterlimit="10" width="24.1" height="24.1"/>
<rect x="155.6" y="230.4" fill="#FFFFFF" stroke="#040000" stroke-miterlimit="10" width="24.1" height="24.1"/>
<rect x="179.7" y="230.4" fill="#FFFFFF" stroke="#040000" stroke-miterlimit="10" width="24.1" height="24.1"/>
<rect x="203.8" y="230.4" fill="#FFFFFF" stroke="#040000" stroke-miterlimit="10" width="24.1" height="24.1"/>
<rect x="227.9" y="230.4" fill="#FFFFFF" stroke="#040000" stroke-miterlimit="10" width="24.1" height="24.1"/>
<rect x="252" y="230.4" fill="#FFFFFF" stroke="#040000" stroke-miterlimit="10" width="24.1" height="24.1"/>
<rect x="276.1" y="230.4" fill="#FFFFFF" stroke="#040000" stroke-miterlimit="10" width="24.1" height="24.1"/>
<rect x="300.2" y="230.4" stroke="#040000" stroke-miterlimit="10" width="24.1" height="24.1"/>
<rect x="324.3" y="230.4" fill="#FFFFFF" stroke="#040000" stroke-miterlimit="10" width="24.1" height="24.1"/>
<rect x="83.5" y="254.5" fill="#FFFFFF" stroke="#040000" stroke-miterlimit="10" width="24.1" height="24.1"/>
<rect x="107.6" y="254.5" fill="#FFFFFF" stroke="#040000" stroke-miterlimit="10" width="24.1" height="24.1"/>
<rect x="131.7" y="254.5" fill="#FFFFFF" stroke="#040000" stroke-miterlimit="10" width="24.1" height="24.1"/>
<rect x="155.6" y="254.5" fill="#FFFFFF" stroke="#040000" stroke-miterlimit="10" width="24.1" height="24.1"/>
<rect x="179.7" y="254.5" fill="#FFFFFF" stroke="#040000" stroke-miterlimit="10" width="24.1" height="24.1"/>
<rect x="203.8" y="254.5" stroke="#040000" stroke-miterlimit="10" width="24.1" height="24.1"/>
<rect x="227.9" y="254.5" fill="#FFFFFF" stroke="#040000" stroke-miterlimit="10" width="24.1" height="24.1"/>
<rect x="252" y="254.5" stroke="#040000" stroke-miterlimit="10" width="24.1" height="24.1"/>
<rect x="276.1" y="254.5" stroke="#040000" stroke-miterlimit="10" width="24.1" height="24.1"/>
<rect x="300.2" y="254.5" fill="#FFFFFF" stroke="#040000" stroke-miterlimit="10" width="24.1" height="24.1"/>
<rect x="324.3" y="254.5" fill="#FFFFFF" stroke="#040000" stroke-miterlimit="10" width="24.1" height="24.1"/>
<rect x="83.5" y="278.6" fill="#A3CC34" stroke="#040000" stroke-miterlimit="10" width="24.1" height="24.1"/>
<rect x="107.6" y="278.6" fill="#FFFFFF" stroke="#040000" stroke-miterlimit="10" width="24.1" height="24.1"/>
<rect x="131.7" y="278.6" stroke="#040000" stroke-miterlimit="10" width="24.1" height="24.1"/>
<rect x="155.6" y="278.6" fill="#FFFFFF" stroke="#040000" stroke-miterlimit="10" width="24.1" height="24.1"/>
<rect x="179.7" y="278.6" fill="#FFFFFF" stroke="#040000" stroke-miterlimit="10" width="24.1" height="24.1"/>
<rect x="203.8" y="278.6" fill="#FFFFFF" stroke="#040000" stroke-miterlimit="10" width="24.1" height="24.1"/>
<rect x="227.9" y="278.6" fill="#FFFFFF" stroke="#040000" stroke-miterlimit="10" width="24.1" height="24.1"/>
<rect x="252" y="278.6" fill="#FFFFFF" stroke="#040000" stroke-miterlimit="10" width="24.1" height="24.1"/>
<rect x="276.1" y="278.6" fill="#FFFFFF" stroke="#040000" stroke-miterlimit="10" width="24.1" height="24.1"/>
<rect x="300.2" y="278.6" fill="#FFFFFF" stroke="#040000" stroke-miterlimit="10" width="24.1" height="24.1"/>
<rect x="324.3" y="278.6" fill="#FFFFFF" stroke="#040000" stroke-miterlimit="10" width="24.1" height="24.1"/>
<rect x="348.3" y="158.1" fill="#F7C3B8" stroke="#040000" stroke-miterlimit="10" width="24.1" height="24.1"/>
<text transform="matrix(1 0 0 1 357.3779 172.5716)" font-family="'Times-Roman'" font-size="11.9996">1</text>
<rect x="348.3" y="182.2" fill="#F7C3B8" stroke="#040000" stroke-miterlimit="10" width="24.1" height="24.1"/>
<text transform="matrix(1 0 0 1 357.3779 196.6722)" font-family="'Times-Roman'" font-size="11.9996">2</text>
<rect x="348.3" y="206.3" fill="#F7C3B8" stroke="#040000" stroke-miterlimit="10" width="24.1" height="24.1"/>
<text transform="matrix(1 0 0 1 357.3779 220.7728)" font-family="'Times-Roman'" font-size="11.9996">3</text>
<rect x="348.3" y="230.4" fill="#F7C3B8" stroke="#040000" stroke-miterlimit="10" width="24.1" height="24.1"/>
<text transform="matrix(1 0 0 1 357.3779 244.8729)" font-family="'Times-Roman'" font-size="11.9996">4</text>
<rect x="348.3" y="254.5" fill="#F7C3B8" stroke="#040000" stroke-miterlimit="10" width="24.1" height="24.1"/>
<text transform="matrix(1 0 0 1 357.3779 268.973)" font-family="'Times-Roman'" font-size="11.9996">5</text>
<rect x="348.3" y="278.6" fill="#F7C3B8" stroke="#040000" stroke-miterlimit="10" width="24.1" height="24.1"/>
<text transform="matrix(1 0 0 1 357.3779 293.0736)" font-family="'Times-Roman'" font-size="11.9996">6</text>
<g>
	<rect x="324.3" y="134" fill="#F9F3AF" stroke="#040000" stroke-miterlimit="10" width="24.1" height="24.1"/>
	<text transform="matrix(1 0 0 1 333.1963 149.726)" font-family="'TimesNewRomanPSMT'" font-size="13.9995">a</text>
</g>
<g>
	<rect x="300.2" y="134" fill="#F9F3AF" stroke="#040000" stroke-miterlimit="10" width="24.1" height="24.1"/>
	<text transform="matrix(1 0 0 1 309.0957 149.726)" font-family="'TimesNewRomanPSMT'" font-size="13.9995">b</text>
</g>
<g>
	<rect x="276.1" y="134" fill="#F9F3AF" stroke="#040000" stroke-miterlimit="10" width="24.1" height="24.1"/>
	<text transform="matrix(1 0 0 1 284.9956 149.726)" font-family="'TimesNewRomanPSMT'" font-size="13.9995">c</text>
</g>
<g>
	<rect x="252" y="134" fill="#F9F3AF" stroke="#040000" stroke-miterlimit="10" width="24.1" height="24.1"/>
	<text transform="matrix(1 0 0 1 260.8955 149.726)" font-family="'TimesNewRomanPSMT'" font-size="13.9995">d</text>
</g>
<g>
	<rect x="227.9" y="134" fill="#F9F3AF" stroke="#040000" stroke-miterlimit="10" width="24.1" height="24.1"/>
	<text transform="matrix(1 0 0 1 236.7949 149.726)" font-family="'TimesNewRomanPSMT'" font-size="13.9995">e</text>
</g>
<g>
	<rect x="203.8" y="134" fill="#F9F3AF" stroke="#040000" stroke-miterlimit="10" width="24.1" height="24.1"/>
	<text transform="matrix(1 0 0 1 212.6948 149.726)" font-family="'TimesNewRomanPSMT'" font-size="13.9995">f</text>
</g>
<g>
	<rect x="179.7" y="134" fill="#F9F3AF" stroke="#040000" stroke-miterlimit="10" width="24.1" height="24.1"/>
	<text transform="matrix(1 0 0 1 188.5942 149.726)" font-family="'TimesNewRomanPSMT'" font-size="13.9995">g</text>
</g>
<g>
	<rect x="155.6" y="134" fill="#F9F3AF" stroke="#040000" stroke-miterlimit="10" width="24.1" height="24.1"/>
	<text transform="matrix(1 0 0 1 164.4941 149.726)" font-family="'TimesNewRomanPSMT'" font-size="13.9995">h</text>
</g>
<g>
	<rect x="131.7" y="134" fill="#F9F3AF" stroke="#040000" stroke-miterlimit="10" width="24.1" height="24.1"/>
	<text transform="matrix(1 0 0 1 140.6284 149.726)" font-family="'TimesNewRomanPSMT'" font-size="13.9995">i</text>
</g>
<g>
	<rect x="107.6" y="134" fill="#F9F3AF" stroke="#040000" stroke-miterlimit="10" width="24.1" height="24.1"/>
	<text transform="matrix(1 0 0 1 116.5278 149.726)" font-family="'TimesNewRomanPSMT'" font-size="13.9995">j</text>
</g>
<g>
	<rect x="83.5" y="134" fill="#F9F3AF" stroke="#040000" stroke-miterlimit="10" width="24.1" height="24.1"/>
	<text transform="matrix(1 0 0 1 92.4277 149.726)" font-family="'TimesNewRomanPSMT'" font-size="13.9995">k</text>
</g>
<g id="Gnavwd.tif">
	
		<image overflow="visible" enable-background="new    " width="400" height="300" id="レイヤー_1_2_" xlink:href="ED57CBD2A6609088.png"  transform="matrix(5.738895e-02 0 0 5.738895e-02 324.8255 161.5467)">
	</image>
</g>
<text transform="matrix(1 0 0 1 332.6992 198.2464)" fill="#1D2088" font-family="'Helvetica'" font-size="11.9996">1</text>
<text transform="matrix(1 0 0 1 332.6992 198.2464)" fill="none" stroke="#1D2088" stroke-miterlimit="10" font-family="'Helvetica'" font-size="11.9996">1</text>
<text transform="matrix(1 0 0 1 333.1963 223.0789)" fill="#1D2088" font-family="'Helvetica'" font-size="11.9996">2</text>
<text transform="matrix(1 0 0 1 333.1963 223.0789)" fill="none" stroke="#1D2088" stroke-miterlimit="10" font-family="'Helvetica'" font-size="11.9996">2</text>
<text transform="matrix(1 0 0 1 308.208 173.64)" fill="#1D2088" font-family="'Helvetica'" font-size="11.9996">1</text>
<text transform="matrix(1 0 0 1 308.208 173.64)" fill="none" stroke="#1D2088" stroke-miterlimit="10" font-family="'Helvetica'" font-size="11.9996">1</text>
<text transform="matrix(1 0 0 1 308.208 198.2469)" fill="#1D2088" font-family="'Helvetica'" font-size="11.9996">1</text>
<text transform="matrix(1 0 0 1 308.208 198.2469)" fill="none" stroke="#1D2088" stroke-miterlimit="10" font-family="'Helvetica'" font-size="11.9996">1</text>
<text transform="matrix(1 0 0 1 308.208 272.0775)" fill="#1D2088" font-family="'Helvetica'" font-size="11.9996">3</text>
<text transform="matrix(1 0 0 1 308.208 272.0775)" fill="none" stroke="#1D2088" stroke-miterlimit="10" font-family="'Helvetica'" font-size="11.9996">3</text>
<text transform="matrix(1 0 0 1 308.208 294.41)" fill="#1D2088" font-family="'Helvetica'" font-size="11.9996">3</text>
<text transform="matrix(1 0 0 1 308.208 294.41)" fill="none" stroke="#1D2088" stroke-miterlimit="10" font-family="'Helvetica'" font-size="11.9996">3</text>
<g>
	<text transform="matrix(1 0 0 1 284.9961 198.3002)" fill="#1D2088" font-family="'Helvetica'" font-size="11.9996">2</text>
	
		<text transform="matrix(1 0 0 1 284.9961 198.3002)" fill="none" stroke="#1D2088" stroke-miterlimit="10" font-family="'Helvetica'" font-size="11.9996">2</text>
	<text transform="matrix(1 0 0 1 284.9956 223.1326)" fill="#1D2088" font-family="'Helvetica'" font-size="11.9996">3</text>
	
		<text transform="matrix(1 0 0 1 284.9956 223.1326)" fill="none" stroke="#1D2088" stroke-miterlimit="10" font-family="'Helvetica'" font-size="11.9996">3</text>
	<text transform="matrix(1 0 0 1 284.9961 247.1317)" fill="#1D2088" font-family="'Helvetica'" font-size="11.9996">2</text>
	
		<text transform="matrix(1 0 0 1 284.9961 247.1317)" fill="none" stroke="#1D2088" stroke-miterlimit="10" font-family="'Helvetica'" font-size="11.9996">2</text>
	<text transform="matrix(1 0 0 1 284.9951 294.4632)" fill="#1D2088" font-family="'Helvetica'" font-size="11.9996">2</text>
	
		<text transform="matrix(1 0 0 1 284.9951 294.4632)" fill="none" stroke="#1D2088" stroke-miterlimit="10" font-family="'Helvetica'" font-size="11.9996">2</text>
</g>
<g>
	<text transform="matrix(1 0 0 1 260.8955 173.6937)" fill="#1D2088" font-family="'Helvetica'" font-size="11.9996">2</text>
	
		<text transform="matrix(1 0 0 1 260.8955 173.6937)" fill="none" stroke="#1D2088" stroke-miterlimit="10" font-family="'Helvetica'" font-size="11.9996">2</text>
	<text transform="matrix(1 0 0 1 260.8955 223.1326)" fill="#1D2088" font-family="'Helvetica'" font-size="11.9996">2</text>
	
		<text transform="matrix(1 0 0 1 260.8955 223.1326)" fill="none" stroke="#1D2088" stroke-miterlimit="10" font-family="'Helvetica'" font-size="11.9996">2</text>
	<text transform="matrix(1 0 0 1 260.8955 247.1317)" fill="#1D2088" font-family="'Helvetica'" font-size="11.9996">3</text>
	
		<text transform="matrix(1 0 0 1 260.8955 247.1317)" fill="none" stroke="#1D2088" stroke-miterlimit="10" font-family="'Helvetica'" font-size="11.9996">3</text>
	<text transform="matrix(1 0 0 1 260.895 294.4632)" fill="#1D2088" font-family="'Helvetica'" font-size="11.9996">3</text>
	
		<text transform="matrix(1 0 0 1 260.895 294.4632)" fill="none" stroke="#1D2088" stroke-miterlimit="10" font-family="'Helvetica'" font-size="11.9996">3</text>
</g>
<g>
	<text transform="matrix(1 0 0 1 236.7949 173.6937)" fill="#1D2088" font-family="'Helvetica'" font-size="11.9996">3</text>
	
		<text transform="matrix(1 0 0 1 236.7949 173.6937)" fill="none" stroke="#1D2088" stroke-miterlimit="10" font-family="'Helvetica'" font-size="11.9996">3</text>
	<text transform="matrix(1 0 0 1 236.7949 223.1326)" fill="#1D2088" font-family="'Helvetica'" font-size="11.9996">3</text>
	
		<text transform="matrix(1 0 0 1 236.7949 223.1326)" fill="none" stroke="#1D2088" stroke-miterlimit="10" font-family="'Helvetica'" font-size="11.9996">3</text>
	<text transform="matrix(1 0 0 1 236.7954 272.1307)" fill="#1D2088" font-family="'Helvetica'" font-size="11.9996">3</text>
	
		<text transform="matrix(1 0 0 1 236.7954 272.1307)" fill="none" stroke="#1D2088" stroke-miterlimit="10" font-family="'Helvetica'" font-size="11.9996">3</text>
	<text transform="matrix(1 0 0 1 236.7954 247.1317)" fill="#1D2088" font-family="'Helvetica'" font-size="11.9996">2</text>
	
		<text transform="matrix(1 0 0 1 236.7954 247.1317)" fill="none" stroke="#1D2088" stroke-miterlimit="10" font-family="'Helvetica'" font-size="11.9996">2</text>
	<text transform="matrix(1 0 0 1 236.7944 294.4632)" fill="#1D2088" font-family="'Helvetica'" font-size="11.9996">2</text>
	
		<text transform="matrix(1 0 0 1 236.7944 294.4632)" fill="none" stroke="#1D2088" stroke-miterlimit="10" font-family="'Helvetica'" font-size="11.9996">2</text>
</g>
<g>
	<text transform="matrix(1 0 0 1 212.6948 173.6937)" fill="#1D2088" font-family="'Helvetica'" font-size="11.9996">2</text>
	
		<text transform="matrix(1 0 0 1 212.6948 173.6937)" fill="none" stroke="#1D2088" stroke-miterlimit="10" font-family="'Helvetica'" font-size="11.9996">2</text>
	<text transform="matrix(1 0 0 1 212.6948 198.3002)" fill="#1D2088" font-family="'Helvetica'" font-size="11.9996">3</text>
	
		<text transform="matrix(1 0 0 1 212.6948 198.3002)" fill="none" stroke="#1D2088" stroke-miterlimit="10" font-family="'Helvetica'" font-size="11.9996">3</text>
	<text transform="matrix(1 0 0 1 212.6948 247.1317)" fill="#1D2088" font-family="'Helvetica'" font-size="11.9996">3</text>
	
		<text transform="matrix(1 0 0 1 212.6948 247.1317)" fill="none" stroke="#1D2088" stroke-miterlimit="10" font-family="'Helvetica'" font-size="11.9996">3</text>
	<text transform="matrix(1 0 0 1 212.6943 294.4632)" fill="#1D2088" font-family="'Helvetica'" font-size="11.9996">3</text>
	
		<text transform="matrix(1 0 0 1 212.6943 294.4632)" fill="none" stroke="#1D2088" stroke-miterlimit="10" font-family="'Helvetica'" font-size="11.9996">3</text>
</g>
<g>
	<text transform="matrix(1 0 0 1 189.5459 198.3002)" fill="#1D2088" font-family="'Helvetica'" font-size="11.9996">2</text>
	
		<text transform="matrix(1 0 0 1 189.5459 198.3002)" fill="none" stroke="#1D2088" stroke-miterlimit="10" font-family="'Helvetica'" font-size="11.9996">2</text>
	<text transform="matrix(1 0 0 1 189.5454 272.1307)" fill="#1D2088" font-family="'Helvetica'" font-size="11.9996">3</text>
	
		<text transform="matrix(1 0 0 1 189.5454 272.1307)" fill="none" stroke="#1D2088" stroke-miterlimit="10" font-family="'Helvetica'" font-size="11.9996">3</text>
	<text transform="matrix(1 0 0 1 189.5454 247.1317)" fill="#1D2088" font-family="'Helvetica'" font-size="11.9996">2</text>
	
		<text transform="matrix(1 0 0 1 189.5454 247.1317)" fill="none" stroke="#1D2088" stroke-miterlimit="10" font-family="'Helvetica'" font-size="11.9996">2</text>
	<text transform="matrix(1 0 0 1 189.5449 294.4632)" fill="#1D2088" font-family="'Helvetica'" font-size="11.9996">2</text>
	
		<text transform="matrix(1 0 0 1 189.5449 294.4632)" fill="none" stroke="#1D2088" stroke-miterlimit="10" font-family="'Helvetica'" font-size="11.9996">2</text>
</g>
<g>
	<text transform="matrix(1 0 0 1 164.4941 173.6937)" fill="#1D2088" font-family="'Helvetica'" font-size="11.9996">2</text>
	
		<text transform="matrix(1 0 0 1 164.4941 173.6937)" fill="none" stroke="#1D2088" stroke-miterlimit="10" font-family="'Helvetica'" font-size="11.9996">2</text>
	<text transform="matrix(1 0 0 1 164.4937 223.1326)" fill="#1D2088" font-family="'Helvetica'" font-size="11.9996">2</text>
	
		<text transform="matrix(1 0 0 1 164.4937 223.1326)" fill="none" stroke="#1D2088" stroke-miterlimit="10" font-family="'Helvetica'" font-size="11.9996">2</text>
	<text transform="matrix(1 0 0 1 164.4941 272.1307)" fill="#1D2088" font-family="'Helvetica'" font-size="11.9996">3</text>
	
		<text transform="matrix(1 0 0 1 164.4941 272.1307)" fill="none" stroke="#1D2088" stroke-miterlimit="10" font-family="'Helvetica'" font-size="11.9996">3</text>
	<text transform="matrix(1 0 0 1 164.4941 247.1317)" fill="#1D2088" font-family="'Helvetica'" font-size="11.9996">3</text>
	
		<text transform="matrix(1 0 0 1 164.4941 247.1317)" fill="none" stroke="#1D2088" stroke-miterlimit="10" font-family="'Helvetica'" font-size="11.9996">3</text>
	<text transform="matrix(1 0 0 1 164.4937 294.4632)" fill="#1D2088" font-family="'Helvetica'" font-size="11.9996">3</text>
	
		<text transform="matrix(1 0 0 1 164.4937 294.4632)" fill="none" stroke="#1D2088" stroke-miterlimit="10" font-family="'Helvetica'" font-size="11.9996">3</text>
</g>
<g>
	<text transform="matrix(1 0 0 1 139.5469 173.6937)" fill="#1D2088" font-family="'Helvetica'" font-size="11.9996">3</text>
	
		<text transform="matrix(1 0 0 1 139.5469 173.6937)" fill="none" stroke="#1D2088" stroke-miterlimit="10" font-family="'Helvetica'" font-size="11.9996">3</text>
	<text transform="matrix(1 0 0 1 139.5474 198.3002)" fill="#1D2088" font-family="'Helvetica'" font-size="11.9996">2</text>
	
		<text transform="matrix(1 0 0 1 139.5474 198.3002)" fill="none" stroke="#1D2088" stroke-miterlimit="10" font-family="'Helvetica'" font-size="11.9996">2</text>
	<text transform="matrix(1 0 0 1 139.5474 272.1307)" fill="#1D2088" font-family="'Helvetica'" font-size="11.9996">3</text>
	
		<text transform="matrix(1 0 0 1 139.5474 272.1307)" fill="none" stroke="#1D2088" stroke-miterlimit="10" font-family="'Helvetica'" font-size="11.9996">3</text>
	<text transform="matrix(1 0 0 1 139.5474 247.1317)" fill="#1D2088" font-family="'Helvetica'" font-size="11.9996">2</text>
	
		<text transform="matrix(1 0 0 1 139.5474 247.1317)" fill="none" stroke="#1D2088" stroke-miterlimit="10" font-family="'Helvetica'" font-size="11.9996">2</text>
</g>
<text transform="matrix(1 0 0 1 116.5283 173.6937)" fill="#1D2088" font-family="'Helvetica'" font-size="11.9996">2</text>
<text transform="matrix(1 0 0 1 116.5283 173.6937)" fill="none" stroke="#1D2088" stroke-miterlimit="10" font-family="'Helvetica'" font-size="11.9996">2</text>
<text transform="matrix(1 0 0 1 116.5278 223.1326)" fill="#1D2088" font-family="'Helvetica'" font-size="11.9996">2</text>
<text transform="matrix(1 0 0 1 116.5278 223.1326)" fill="none" stroke="#1D2088" stroke-miterlimit="10" font-family="'Helvetica'" font-size="11.9996">2</text>
<text transform="matrix(1 0 0 1 116.5283 272.1307)" fill="#1D2088" font-family="'Helvetica'" font-size="11.9996">3</text>
<text transform="matrix(1 0 0 1 116.5283 272.1307)" fill="none" stroke="#1D2088" stroke-miterlimit="10" font-family="'Helvetica'" font-size="11.9996">3</text>
<text transform="matrix(1 0 0 1 116.5283 247.1317)" fill="#1D2088" font-family="'Helvetica'" font-size="11.9996">3</text>
<text transform="matrix(1 0 0 1 116.5283 247.1317)" fill="none" stroke="#1D2088" stroke-miterlimit="10" font-family="'Helvetica'" font-size="11.9996">3</text>
<text transform="matrix(1 0 0 1 92.4277 173.6937)" fill="#1D2088" font-family="'Helvetica'" font-size="11.9996">3</text>
<text transform="matrix(1 0 0 1 92.4277 173.6937)" fill="none" stroke="#1D2088" stroke-miterlimit="10" font-family="'Helvetica'" font-size="11.9996">3</text>
<text transform="matrix(1 0 0 1 92.4282 198.3002)" fill="#1D2088" font-family="'Helvetica'" font-size="11.9996">2</text>
<text transform="matrix(1 0 0 1 92.4282 198.3002)" fill="none" stroke="#1D2088" stroke-miterlimit="10" font-family="'Helvetica'" font-size="11.9996">2</text>
<text transform="matrix(1 0 0 1 92.4277 223.1326)" fill="#1D2088" font-family="'Helvetica'" font-size="11.9996">3</text>
<text transform="matrix(1 0 0 1 92.4277 223.1326)" fill="none" stroke="#1D2088" stroke-miterlimit="10" font-family="'Helvetica'" font-size="11.9996">3</text>
<text transform="matrix(1 0 0 1 92.4282 247.1317)" fill="#1D2088" font-family="'Helvetica'" font-size="11.9996">3</text>
<text transform="matrix(1 0 0 1 92.4282 247.1317)" fill="none" stroke="#1D2088" stroke-miterlimit="10" font-family="'Helvetica'" font-size="11.9996">3</text>
<text transform="matrix(1 0 0 1 332.6992 247.0784)" fill="none" stroke="#1D2088" stroke-miterlimit="10" font-family="'Helvetica'" font-size="11.9996">2</text>
<text transform="matrix(1 0 0 1 332.6992 272.0775)" fill="none" stroke="#1D2088" stroke-miterlimit="10" font-family="'Helvetica'" font-size="11.9996">3</text>
</svg>
